SplineFontDB: 1.0
FontName: NimbusMonL-Bold
FullName: Nimbus Mono L Bold
FamilyName: Nimbus Mono L
Weight: Bold
Copyright: Copyright (URW)++,Copyright 1999 by (URW)++ Design & Development; Cyrillic glyphs aded by Valek Filippov (C) 2001
Version: 1.06
ItalicAngle: 0
UnderlinePosition: -100
UnderlineWidth: 50
Ascent: 620
Descent: 155
NeedsXUIDChange: 1
UniqueID: 4225734
FSType: 0
OS2WinAscent: 0
OS2WinAOffset: 1
OS2WinDescent: 0
OS2WinDOffset: 1
HheadAscent: 0
HheadAOffset: 1
HheadDescent: 0
HheadDOffset: 1
ScriptLang: 2
 1 latn 1 dflt 
 1 DFLT 1 dflt 
Encoding: adobestandard
UnicodeInterp: none
DisplaySize: -36
AntiAlias: 1
FitToEm: 1
WinInfo: 330 30 14
BeginPrivate: 7
BlueValues 31 [-20 0 437 457 583 603 623 643]
BlueScale 8 0.039625
StdHW 5 [101]
StdVW 5 [101]
StemSnapH 8 [93 101]
StemSnapV 5 [101]
ForceBold 5 false
EndPrivate
BeginChars: 767 660
StartChar: exclam
Encoding: 33 33 2
Width: 578
Flags: W
HStem: -15 128<283 310>
Fore
367 508 m 1
 339 221 l 2
 336 191 319 172 291 172 c 0
 264 172 246 192 243 221 c 1
 215 508 l 2
 214 519 213 534 213 541 c 0
 213 585 246 618 291 618 c 0
 336 618 369 585 369 541 c 0
 369 535 368 521 367 508 c 1
299 -15 m 2
 283 -15 l 2
 247 -15 218 15 218 50 c 0
 218 84 247 113 283 113 c 2
 299 113 l 2
 335 113 363 86 363 50 c 0
 363 15 335 -15 299 -15 c 2
EndSplineSet
EndChar
StartChar: quotedbl
Encoding: 34 34 3
Width: 578
Flags: W
HStem: 563 20G<132 257 326 450>
Fore
132 583 m 1
 257 583 l 1
 226 337 l 1
 222 312 214 302 195 302 c 0
 177 302 169 312 164 336 c 1
 132 583 l 1
326 583 m 1
 450 583 l 1
 419 337 l 1
 415 312 408 302 388 302 c 0
 370 302 361 312 358 336 c 2
 326 583 l 1
EndSplineSet
EndChar
StartChar: numbersign
Encoding: 35 35 4
Width: 578
Flags: W
HStem: 136 95<123 149 253 316 418 459> 332 98<144 162 267 329 433 477>
VStem: 138 96<-42 -28>
DStem: 149 136 246 136 139 -22 234 -28 162 332 260 332 156 231 253 231 181 593 277 587 170 430 267 430 316 136 412 136 306 -22 401 -28 329 332 427 332 322 231 418 231 348 593 443 587 336 430 433 430
Fore
433 430 m 1
 457 430 l 2
 484 430 491 428 501 420 c 0
 513 412 521 397 521 381 c 0
 521 365 512 349 499 340 c 1
 489 335 480 332 457 332 c 2
 427 332 l 1
 418 231 l 1
 437 231 l 2
 463 231 473 228 482 222 c 1
 494 211 502 198 502 182 c 0
 502 166 492 150 479 141 c 0
 470 136 460 136 437 136 c 2
 412 136 l 1
 401 -28 l 2
 400 -43 394 -65 388 -71 c 0
 379 -82 364 -89 350 -89 c 0
 325 -89 301 -65 303 -40 c 1
 306 -22 l 1
 316 136 l 1
 246 136 l 1
 234 -28 l 1
 234 -68 218 -89 186 -89 c 0
 158 -89 138 -68 138 -39 c 0
 138 -35 138 -28 139 -22 c 1
 149 136 l 1
 123 136 l 2
 100 136 90 136 81 143 c 0
 68 153 60 169 60 183 c 0
 60 198 70 215 84 224 c 0
 92 229 99 231 123 231 c 2
 156 231 l 1
 162 332 l 1
 144 332 l 2
 119 332 109 335 100 342 c 0
 87 352 81 367 81 381 c 0
 81 398 88 415 102 423 c 0
 112 429 119 430 144 430 c 2
 170 430 l 1
 181 593 l 1
 182 618 185 624 192 636 c 1
 202 646 216 654 231 654 c 0
 259 654 280 629 279 604 c 1
 277 587 l 1
 267 430 l 1
 336 430 l 1
 348 593 l 1
 349 620 350 626 358 636 c 1
 368 646 381 654 397 654 c 0
 422 654 448 629 446 608 c 1
 443 587 l 1
 433 430 l 1
329 332 m 1
 260 332 l 1
 253 231 l 1
 322 231 l 1
 329 332 l 1
EndSplineSet
EndChar
StartChar: dollar
Encoding: 36 36 5
Width: 578
Flags: W
HStem: -119 239<288 301> 33 189<119.259 132> 404 159<421.738 436> 480 183<288 301>
VStem: 104 101<410.208 427> 244 96<-54 26 573 618> 400 101<184 204>
Fore
340 598 m 2x9e
 340 574 l 1
 350 572 356 572 363 570 c 0
 368 569 374 567 381 565 c 2
 396 558 l 2
 397 558 401 557 404 556 c 1
 415 561 423 563 433 563 c 0
 458 563 477 546 480 519 c 1
 480 499 l 1
 480 468 l 2
 480 443 479 433 472 425 c 0
 462 411 448 404 433 404 c 0x2e
 406 404 388 418 381 445 c 1
 379 463 340 480 299 480 c 0
 242 480 205 456 205 419 c 0
 205 394 228 375 277 365 c 2
 340 352 l 2
 400 339 435 324 460 298 c 1
 487 273 501 234 501 193 c 0
 501 108 441 46 340 26 c 1
 340 -54 l 2
 340 -81 339 -89 332 -99 c 0
 322 -112 307 -119 293 -119 c 0x9e
 276 -119 260 -110 250 -97 c 0
 244 -87 244 -78 244 -54 c 2
 244 26 l 1
 203 35 198 37 169 50 c 1
 152 37 143 33 129 33 c 0
 113 33 97 40 87 56 c 0
 82 65 81 74 81 98 c 2
 81 156 l 2
 81 183 82 192 89 202 c 0
 99 214 113 222 129 222 c 0x4e
 141 222 155 216 164 208 c 0
 170 202 170 202 178 174 c 0
 186 144 237 120 291 120 c 0
 353 120 400 152 400 194 c 0
 400 228 378 246 322 257 c 2
 250 271 l 2
 155 291 104 343 104 420 c 0
 104 497 161 558 244 574 c 1
 244 598 l 2
 244 624 246 632 253 643 c 1
 263 655 277 663 293 663 c 0
 309 663 325 654 332 639 c 1
 339 629 340 624 340 598 c 2x9e
EndSplineSet
EndChar
StartChar: percent
Encoding: 37 37 6
Width: 578
Flags: W
HStem: -15 63<349 367> 193 64<356 367> 329 62<209.12 224> 535 63<209.283 224>
VStem: 86 63<463 465> 222 63<121 130> 294 62<459 466> 429 63<112 130>
DStem: 457 378 477 321 107 264 125 208
Fore
221 598 m 0
 298 598 356 538 356 461 c 0
 356 388 295 329 222 329 c 0
 147 329 86 388 86 463 c 0
 86 536 147 598 221 598 c 0
221 535 m 0
 182 535 149 502 149 463 c 0
 149 423 182 391 221 391 c 0
 260 391 294 423 294 462 c 0
 294 503 260 535 221 535 c 0
477 321 m 1
 125 208 l 1
 119 205 109 202 105 202 c 0
 90 202 78 218 78 234 c 0
 78 249 86 257 107 264 c 2
 457 378 l 2
 469 381 470 381 477 381 c 0
 491 381 505 367 505 350 c 0
 505 335 497 326 477 321 c 1
356 257 m 0
 433 257 492 195 492 119 c 0
 492 47 431 -15 356 -15 c 0
 283 -15 222 47 222 121 c 0
 222 195 283 257 356 257 c 0
356 193 m 0
 318 193 285 160 285 121 c 0
 285 81 318 48 357 48 c 0
 396 48 429 81 429 120 c 0
 429 161 397 193 356 193 c 0
EndSplineSet
EndChar
StartChar: ampersand
Encoding: 38 38 7
Width: 578
Flags: W
HStem: -15 99<249 266> 436 97<278 283>
VStem: 73 97<140 146> 133 96<384 390>
DStem: 221 213 257 332 302 97 353 192
Fore
353 192 m 1xd0
 376 271 l 1
 427 271 l 2
 453 271 462 270 472 260 c 1
 484 252 491 239 491 222 c 0
 491 197 473 177 450 174 c 1
 439 136 433 117 420 97 c 1
 428 97 l 2
 453 97 462 95 472 88 c 0
 484 78 492 64 492 48 c 0
 492 32 484 16 469 7 c 0
 461 2 450 0 428 0 c 2
 369 0 l 1
 358 15 l 1
 329 -6 299 -15 249 -15 c 0
 143 -15 73 47 73 140 c 0xe0
 73 205 105 259 166 294 c 1
 140 339 133 356 133 387 c 0
 133 466 202 533 280 533 c 0
 303 533 322 528 348 516 c 1
 360 519 368 523 375 523 c 0
 398 523 420 499 420 474 c 0
 420 453 412 442 381 425 c 2
 342 403 l 1
 314 428 299 436 281 436 c 0
 253 436 229 415 229 388 c 0
 229 378 239 358 257 332 c 2
 353 192 l 1xd0
302 97 m 1
 221 213 l 1
 187 198 170 171 170 140 c 0
 170 102 195 84 249 84 c 0
 273 84 283 86 302 97 c 1
EndSplineSet
EndChar
StartChar: quoteright
Encoding: 39 8217 8
Width: 578
Flags: W
HStem: 584 20G<211 340>
Fore
211 604 m 1
 340 604 l 1
 203 345 l 2
 195 329 185 321 172 321 c 0
 156 321 143 332 143 348 c 0
 143 353 143 356 146 365 c 1
 211 604 l 1
EndSplineSet
KernsSLIF: 121 -145 1 0 119 -131 1 0 118 -138 1 0 116 -145 1 0 115 -188 1 0 114 -185 1 0 46 -304 1 0 111 -179 1 0 100 -175 1 0 44 -283 1 0 262 -192 1 0 256 -192 1 0 257 -192 1 0 225 -190 1 0 65 -192 1 0
EndChar
StartChar: parenleft
Encoding: 40 40 9
Width: 578
Flags: W
Fore
423 612 m 0
 451 612 473 591 473 565 c 0
 473 554 470 549 461 532 c 1
 394 423 363 330 363 232 c 0
 363 133 394 40 461 -68 c 0
 470 -84 473 -89 473 -101 c 0
 473 -127 451 -148 423 -148 c 0
 400 -148 388 -138 360 -92 c 0
 291 17 257 129 257 236 c 0
 257 339 298 463 368 569 c 0
 391 604 402 612 423 612 c 0
EndSplineSet
EndChar
StartChar: parenright
Encoding: 41 41 10
Width: 578
Flags: W
VStem: 113 217<-101 228>
Fore
162 612 m 0
 186 612 198 601 226 556 c 0
 295 446 330 335 330 228 c 0
 330 125 290 1 218 -105 c 0
 195 -140 185 -148 162 -148 c 0
 136 -148 113 -127 113 -101 c 0
 113 -89 115 -84 125 -68 c 0
 193 40 224 133 224 232 c 0
 224 330 192 423 125 532 c 0
 115 549 113 554 113 565 c 0
 113 591 136 612 162 612 c 0
EndSplineSet
EndChar
StartChar: asterisk
Encoding: 42 42 11
Width: 578
Flags: W
HStem: 584 20G<283 299>
VStem: 242 97<453 555>
Fore
211 361 m 1
 129 388 l 1
 93 398 81 412 81 437 c 0
 81 464 102 487 126 487 c 0
 136 487 139 485 159 480 c 1
 242 453 l 1
 242 539 l 2
 242 563 244 574 250 582 c 0
 260 595 275 604 291 604 c 0
 307 604 324 594 332 580 c 0
 337 570 339 562 339 539 c 2
 339 453 l 1
 422 480 l 1
 443 485 446 487 453 487 c 0
 479 487 501 463 501 437 c 0
 501 412 487 398 453 388 c 2
 369 361 l 1
 419 291 l 2
 434 271 437 263 437 250 c 0
 437 224 415 202 389 202 c 0
 369 202 361 208 341 234 c 1
 291 304 l 1
 240 234 l 2
 221 208 211 202 192 202 c 0
 166 202 143 224 143 250 c 0
 143 263 147 270 162 291 c 2
 211 361 l 1
EndSplineSet
EndChar
StartChar: plus
Encoding: 43 43 12
Width: 578
Flags: W
HStem: 0 21G<282.5 298.5> 224 95<105 242 338 489>
VStem: 242 97<64 224 318 497>
Fore
339 224 m 1
 339 64 l 2
 339 38 337 31 330 20 c 0
 321 8 306 0 291 0 c 0
 274 0 257 8 249 23 c 0
 244 32 242 40 242 64 c 2
 242 224 l 1
 105 224 l 2
 81 224 70 225 61 232 c 0
 48 241 40 257 40 271 c 0
 40 288 50 304 64 313 c 0
 73 319 81 319 105 319 c 2
 242 319 l 1
 242 479 l 2
 242 503 244 513 252 522 c 1
 260 536 275 542 291 542 c 0
 307 542 324 534 332 519 c 1
 339 511 339 503 339 479 c 2
 339 319 l 1
 477 319 l 2
 503 319 511 318 519 312 c 0
 533 301 541 287 541 271 c 0
 541 255 532 239 518 229 c 1
 508 225 499 224 477 224 c 2
 339 224 l 1
EndSplineSet
EndChar
StartChar: comma
Encoding: 44 44 13
Width: 578
Flags: W
Fore
211 129 m 1
 340 129 l 1
 203 -129 l 1
 195 -146 185 -153 172 -153 c 0
 156 -153 143 -140 143 -126 c 0
 143 -120 143 -119 146 -107 c 1
 211 129 l 1
EndSplineSet
KernsSLIF: 39 -207 1 0 186 -171 1 0 49 -158 1 0
EndChar
StartChar: hyphen
Encoding: 45 45 14
Width: 578
Flags: W
HStem: 222 97<105 489>
Fore
477 222 m 2
 105 222 l 2
 81 222 70 224 61 231 c 0
 48 240 40 255 40 270 c 0
 40 287 50 302 64 312 c 0
 73 318 81 319 105 319 c 2
 477 319 l 2
 502 319 512 316 521 310 c 0
 534 299 541 286 541 270 c 0
 541 254 532 237 518 228 c 1
 508 224 499 222 477 222 c 2
EndSplineSet
KernsSLIF: 89 -100 1 0 87 1 1 0 86 -47 1 0 84 -112 1 0 262 -21 1 0 256 -21 1 0 257 -21 1 0 225 -19 1 0 65 -21 1 0
EndChar
StartChar: period
Encoding: 46 46 15
Width: 578
Flags: W
HStem: -15 21G<282 299>
Fore
299 -15 m 2
 282 -15 l 2
 247 -15 218 15 218 50 c 0
 218 84 247 113 282 113 c 2
 299 113 l 2
 335 113 363 86 363 50 c 0
 363 15 335 -15 299 -15 c 2
EndSplineSet
KernsSLIF: 39 -201 1 0 186 -163 1 0 49 -140 1 0
EndChar
StartChar: slash
Encoding: 47 47 16
Width: 578
Flags: W
DStem: 403 629 489 591 92 -26 178 -67
Fore
489 591 m 1
 178 -67 l 1
 164 -100 152 -109 129 -109 c 0
 104 -109 81 -87 81 -64 c 0
 81 -53 84 -43 92 -26 c 2
 403 629 l 1
 418 663 430 673 453 673 c 0
 479 673 501 651 501 627 c 0
 501 616 499 611 489 591 c 1
EndSplineSet
EndChar
StartChar: zero
Encoding: 48 48 17
Width: 578
Flags: W
HStem: -15 97<276.462 306> 521 97<276.368 306>
VStem: 81 96<240 370> 404 97<240 370>
Fore
501 348 m 2
 501 257 l 2
 501 169 474 89 425 39 c 0
 392 4 346 -15 291 -15 c 0
 236 -15 189 4 156 39 c 0
 107 89 81 169 81 257 c 2
 81 348 l 2
 81 436 107 515 156 565 c 0
 189 600 236 618 291 618 c 0
 346 618 392 600 425 565 c 0
 474 515 501 436 501 348 c 2
177 356 m 2
 177 249 l 2
 177 148 222 82 291 82 c 0
 360 82 404 148 404 249 c 2
 404 356 l 2
 404 456 360 521 291 521 c 0
 222 521 177 456 177 356 c 2
EndSplineSet
KernsSLIF: 55 -85 1 0 49 -95 1 0 52 -73 1 0
EndChar
StartChar: one
Encoding: 49 49 18
Width: 578
Flags: W
HStem: 0 97<144 242 338 450>
VStem: 242 97<96 618>
Fore
339 618 m 1
 339 97 l 1
 437 97 l 2
 463 97 470 95 480 88 c 0
 492 78 501 64 501 48 c 0
 501 32 492 16 477 7 c 0
 470 2 456 0 437 0 c 2
 144 0 l 2
 122 0 108 2 101 9 c 1
 88 19 81 34 81 48 c 0
 81 65 89 81 104 90 c 1
 113 97 119 97 144 97 c 2
 242 97 l 1
 242 492 l 1
 158 470 l 2
 140 466 136 466 127 466 c 0
 102 466 82 487 82 515 c 0
 82 543 95 555 133 565 c 2
 339 618 l 1
EndSplineSet
KernsSLIF: 48 -108 1 0 50 -59 1 0 51 -65 1 0 54 -122 1 0 55 -175 1 0 46 -141 1 0 49 -77 1 0 57 -91 1 0 52 -108 1 0 53 -68 1 0 56 -91 1 0 44 -125 1 0
EndChar
StartChar: two
Encoding: 50 50 19
Width: 578
Flags: W
HStem: 0 97<202 492> 0 149<434 492> 521 97<260.951 292>
VStem: 391 96<428 440>
Fore
202 97 m 1xb0
 395 97 l 1xb0
 398 132 414 149 443 149 c 0x70
 460 149 477 140 485 126 c 0
 490 117 492 108 492 86 c 2
 492 0 l 1xb0
 51 0 l 1x70
 51 102 l 1
 215 236 234 252 277 291 c 0
 374 380 391 401 391 434 c 0
 391 484 342 521 279 521 c 0
 240 521 208 507 185 482 c 0
 175 470 174 468 164 437 c 0
 159 420 140 409 120 409 c 0
 94 409 71 430 71 456 c 0
 71 487 97 534 129 565 c 1
 169 598 224 618 281 618 c 0
 398 618 487 538 487 430 c 0
 487 367 464 330 368 243 c 1
 202 97 l 1xb0
EndSplineSet
KernsSLIF: 55 -85 1 0 49 -82 1 0 52 -83 1 0
EndChar
StartChar: three
Encoding: 51 51 20
Width: 578
Flags: W
HStem: -15 97<239 293> 277 94<267 293.1> 521 97<265 307>
VStem: 394 97<436.903 453> 415 97<165.172 180>
Fore
267 371 m 2xe8
 306 371 l 2
 353 371 394 407 394 448 c 0
 394 492 353 521 286 521 c 0
 232 521 205 511 174 477 c 0
 166 468 153 462 140 462 c 0
 113 462 92 484 92 511 c 0
 92 567 188 618 291 618 c 0
 356 618 406 600 443 562 c 1
 474 532 491 489 491 450 c 0xf0
 491 396 466 361 403 322 c 1
 477 287 512 239 512 177 c 0
 512 120 485 66 441 31 c 1
 398 -1 347 -15 263 -15 c 0
 143 -15 64 19 64 68 c 0
 64 95 86 116 113 116 c 0
 123 116 128 115 143 105 c 0
 169 88 198 82 260 82 c 0
 326 82 363 92 388 115 c 0
 404 131 415 155 415 177 c 0
 415 213 388 247 342 265 c 0
 322 274 309 276 267 277 c 1
 236 280 218 296 218 322 c 0
 218 350 239 371 267 371 c 2xe8
EndSplineSet
KernsSLIF: 55 -80 1 0 49 -90 1 0 52 -64 1 0
EndChar
StartChar: four
Encoding: 52 52 21
Width: 578
Flags: W
HStem: 0 97<299 336 427 448.033> 133 98<191 336> 584 20G<306 433>
VStem: 336 97<96 133 231 604>
DStem: 306 604 336 466 73 214 191 231
Fore
433 604 m 1
 433 231 l 1
 470 231 492 213 492 182 c 0
 492 152 472 136 433 133 c 1
 433 97 l 1
 470 97 492 81 492 48 c 0
 492 32 484 16 469 7 c 0
 462 2 448 0 427 0 c 2
 299 0 l 2
 277 0 264 2 257 9 c 1
 243 19 236 34 236 48 c 0
 236 65 244 81 259 90 c 1
 267 97 276 97 299 97 c 2
 336 97 l 1
 336 133 l 1
 73 133 l 1
 73 214 l 1
 306 604 l 1
 433 604 l 1
336 231 m 1
 336 466 l 1
 191 231 l 1
 336 231 l 1
EndSplineSet
KernsSLIF: 55 -116 1 0 49 -82 1 0 52 -77 1 0
EndChar
StartChar: five
Encoding: 53 53 22
Width: 578
Flags: W
HStem: -15 97<239 289> -15 144<113 270> 314 97<289.735 321> 505 99<115 417>
VStem: 115 96<329 505> 415 97<195 210>
Fore
211 505 m 1xbc
 211 394 l 1
 247 404 280 411 308 411 c 0
 425 411 512 319 512 195 c 0
 512 140 494 89 460 51 c 0
 417 5 361 -15 270 -15 c 0xbc
 153 -15 64 27 64 81 c 0
 64 107 86 129 113 129 c 0x7c
 126 129 133 126 147 115 c 0
 177 90 205 82 268 82 c 0
 369 82 415 119 415 195 c 0
 415 267 371 314 307 314 c 0
 275 314 232 302 191 281 c 0
 178 275 172 273 164 273 c 0
 136 273 115 296 115 329 c 2
 115 604 l 1
 408 604 l 2
 434 604 442 601 453 594 c 1
 464 584 472 570 472 554 c 0
 472 538 463 521 450 512 c 0
 442 508 428 505 408 505 c 2
 211 505 l 1xbc
EndSplineSet
KernsSLIF: 55 -91 1 0 49 -91 1 0 52 -64 1 0
EndChar
StartChar: six
Encoding: 54 54 23
Width: 578
Flags: W
HStem: -15 97<309 336> 285 96<319 343> 518 100<405 422>
VStem: 420 98<176 194>
Fore
202 314 m 1
 248 363 285 381 334 381 c 0
 436 381 518 293 518 183 c 0
 518 128 501 78 468 43 c 0
 433 4 386 -15 321 -15 c 0
 240 -15 181 19 144 84 c 1
 119 131 102 208 102 276 c 0
 102 363 127 436 177 499 c 0
 241 577 321 618 411 618 c 0
 477 618 523 593 523 555 c 0
 523 528 501 505 474 505 c 0
 466 505 456 508 440 513 c 0
 429 518 425 518 415 518 c 0
 313 518 224 433 202 314 c 1
211 202 m 1
 226 119 260 82 324 82 c 0
 384 82 420 121 420 185 c 0
 420 240 380 285 329 285 c 0
 286 285 237 250 211 202 c 1
EndSplineSet
KernsSLIF: 55 -58 1 0 49 -65 1 0 52 -60 1 0
EndChar
StartChar: seven
Encoding: 55 55 24
Width: 578
Flags: W
HStem: -1 21G<274 300.5> 433 20G<113 136.5> 505 99<73 391>
DStem: 391 505 492 507 244 78 339 47
Fore
391 505 m 1
 170 505 l 1
 167 470 152 453 121 453 c 0
 105 453 88 462 81 477 c 1
 74 485 73 494 73 518 c 2
 73 604 l 1
 492 604 l 1
 492 507 l 1
 339 47 l 1
 326 12 313 -1 288 -1 c 0
 260 -1 239 20 239 46 c 0
 239 54 240 62 244 78 c 1
 391 505 l 1
EndSplineSet
KernsSLIF: 50 -80 1 0 51 -90 1 0 54 -116 1 0 55 -77 1 0 46 -219 1 0 49 -83 1 0 52 -126 1 0 53 -104 1 0 56 -91 1 0 44 -196 1 0 58 -196 1 0
EndChar
StartChar: eight
Encoding: 56 56 25
Width: 578
Flags: W
HStem: -15 97<272 306> 255 98<273.552 306> 521 97<291 306>
VStem: 81 96<158 178> 89 97<432 450> 395 97<432 450> 404 97<158 178>
Fore
407 309 m 1xec
 469 270 501 220 501 160 c 0
 501 56 415 -15 290 -15 c 0
 166 -15 81 56 81 160 c 0xf2
 81 220 113 270 174 309 c 1
 116 348 89 389 89 441 c 0
 89 539 178 618 291 618 c 0
 402 618 492 539 492 443 c 0
 492 389 466 348 407 309 c 1xec
291 521 m 0
 228 521 186 487 186 437 c 0
 186 388 229 353 291 353 c 0
 352 353 395 388 395 436 c 0xec
 395 487 353 521 291 521 c 0
291 255 m 0
 228 255 177 216 177 169 c 0
 177 119 225 82 291 82 c 0
 356 82 404 119 404 167 c 0xf2
 404 216 356 255 291 255 c 0
EndSplineSet
KernsSLIF: 55 -82 1 0 49 -90 1 0 52 -72 1 0
EndChar
StartChar: nine
Encoding: 57 57 26
Width: 578
Flags: W
HStem: -15 101<197 218> 222 97<291 311> 521 97<291 311>
VStem: 107 98<403.948 434>
Fore
425 290 m 1
 378 240 341 222 293 222 c 0
 191 222 107 312 107 420 c 0
 107 477 125 525 158 561 c 0
 193 600 240 618 306 618 c 0
 386 618 445 585 482 519 c 0
 507 474 524 396 524 329 c 0
 524 242 499 169 450 105 c 1
 384 26 306 -15 216 -15 c 0
 148 -15 102 11 102 48 c 0
 102 76 125 98 152 98 c 0
 161 98 170 97 186 90 c 0
 197 86 202 86 210 86 c 0
 313 86 402 170 425 290 c 1
415 401 m 1
 400 485 365 521 302 521 c 0
 241 521 205 482 205 419 c 0
 205 363 246 319 298 319 c 0
 340 319 388 353 415 401 c 1
EndSplineSet
KernsSLIF: 55 -70 1 0 49 -82 1 0 52 -65 1 0
EndChar
StartChar: colon
Encoding: 58 58 27
Width: 578
Flags: W
HStem: -15 128<270.976 301> 294 129<270.976 301>
Fore
299 -15 m 2
 282 -15 l 2
 247 -15 218 15 218 50 c 0
 218 84 247 113 282 113 c 2
 299 113 l 2
 335 113 363 86 363 50 c 0
 363 15 335 -15 299 -15 c 2
299 294 m 2
 282 294 l 2
 247 294 218 324 218 358 c 0
 218 394 247 423 282 423 c 2
 299 423 l 2
 335 423 363 395 363 358 c 0
 363 322 335 294 299 294 c 2
EndSplineSet
EndChar
StartChar: semicolon
Encoding: 59 59 28
Width: 578
Flags: W
HStem: 294 129<267 272>
Fore
211 129 m 1
 340 129 l 1
 203 -129 l 1
 195 -146 185 -153 172 -153 c 0
 156 -153 143 -140 143 -126 c 0
 143 -120 143 -119 146 -107 c 1
 211 129 l 1
267 423 m 0
 312 423 340 398 340 358 c 0
 340 319 312 294 267 294 c 0
 224 294 195 321 195 360 c 0
 195 397 224 423 267 423 c 0
EndSplineSet
EndChar
StartChar: less
Encoding: 60 60 29
Width: 578
Flags: W
DStem: 40 271 243 270 457 61 496 139 457 477 496 398 40 271 243 270
Fore
243 270 m 1
 496 139 l 2
 518 127 527 115 527 97 c 0
 527 92 525 86 522 78 c 1
 521 77 l 1
 515 64 500 51 487 51 c 0
 479 51 468 55 457 61 c 2
 40 271 l 1
 457 477 l 2
 469 482 479 485 487 485 c 0
 500 485 515 474 521 461 c 1
 522 460 l 1
 525 453 527 446 527 441 c 0
 527 422 518 411 496 398 c 1
 243 270 l 1
EndSplineSet
EndChar
StartChar: equal
Encoding: 61 61 30
Width: 578
Flags: W
HStem: 133 98<105 489> 312 97<105 489>
Fore
105 409 m 2
 477 409 l 2
 503 409 511 407 519 400 c 1
 533 391 541 376 541 361 c 0
 541 345 532 329 518 319 c 1
 508 314 499 312 477 312 c 2
 105 312 l 2
 81 312 70 314 61 322 c 1
 48 330 40 345 40 361 c 0
 40 378 50 394 64 402 c 0
 73 408 81 409 105 409 c 2
105 231 m 2
 477 231 l 2
 503 231 511 228 519 222 c 0
 533 211 541 198 541 182 c 0
 541 166 532 149 518 140 c 1
 508 136 499 133 477 133 c 2
 105 133 l 2
 81 133 70 136 61 143 c 0
 48 152 40 167 40 182 c 0
 40 198 50 215 64 224 c 0
 73 229 81 231 105 231 c 2
EndSplineSet
EndChar
StartChar: greater
Encoding: 62 62 31
Width: 578
Flags: W
DStem: 86 398 123 477 339 267 541 265 339 267 541 265 86 138 123 60
Fore
339 267 m 1
 86 398 l 1
 64 411 54 420 54 439 c 0
 54 445 56 451 59 458 c 2
 60 460 l 2
 65 473 81 484 95 484 c 0
 102 484 113 482 123 477 c 2
 541 265 l 1
 123 60 l 1
 113 54 102 51 95 51 c 0
 81 51 66 62 60 76 c 2
 59 78 l 2
 56 84 54 90 54 97 c 0
 54 115 64 126 86 138 c 2
 339 267 l 1
EndSplineSet
EndChar
StartChar: question
Encoding: 63 63 32
Width: 578
Flags: W
HStem: -15 128<285 310> 482 98<283 310>
VStem: 101 97<446 460> 220 145<38.7979 53> 404 97<394 407>
Fore
101 446 m 2
 101 522 l 1
 194 567 236 580 298 580 c 0
 418 580 501 505 501 396 c 0
 501 318 460 273 342 221 c 1
 339 186 322 169 294 169 c 0
 277 169 260 177 252 192 c 0
 247 202 244 210 244 232 c 2
 244 287 l 1
 369 334 404 360 404 401 c 0
 404 450 361 482 299 482 c 0
 263 482 229 474 198 460 c 1
 198 446 l 2
 198 420 195 411 189 402 c 0
 178 389 164 381 149 381 c 0
 133 381 116 391 107 404 c 0
 102 412 101 423 101 446 c 2
301 -15 m 2
 285 -15 l 2
 249 -15 220 15 220 50 c 0
 220 84 249 113 285 113 c 2
 301 113 l 2
 337 113 365 86 365 50 c 0
 365 15 337 -15 301 -15 c 2
EndSplineSet
EndChar
StartChar: at
Encoding: 64 64 33
Width: 578
Flags: W
HStem: -147 76<281 315> -147 123<293 425> 70 78<361 379> 524 77<281 299>
VStem: 74 76<140 334> 211 77<206.281 221> 394 76<149 430>
Fore
394 384 m 1xbe
 394 415 l 2
 394 480 353 524 293 524 c 0
 211 524 150 431 150 307 c 2
 150 156 l 2
 150 82 167 22 200 -23 c 0
 224 -57 253 -71 295 -71 c 0xbe
 339 -71 378 -60 395 -40 c 1
 409 -27 414 -24 425 -24 c 0x7e
 446 -24 464 -40 464 -64 c 0
 464 -109 384 -147 293 -147 c 0
 213 -147 160 -115 119 -43 c 0
 90 8 74 78 74 149 c 2
 74 313 l 2
 74 480 166 601 291 601 c 0
 396 601 470 523 470 415 c 2
 470 143 l 1
 487 136 492 126 492 109 c 0
 492 82 477 70 440 70 c 2
 394 70 l 1
 394 73 l 1
 380 71 371 70 363 70 c 0
 280 70 211 139 211 219 c 0
 211 309 286 378 394 384 c 1xbe
394 150 m 1
 394 306 l 1
 330 299 288 265 288 218 c 0
 288 178 322 148 369 148 c 0
 376 148 381 148 394 150 c 1
EndSplineSet
EndChar
StartChar: A
Encoding: 65 65 34
Width: 578
Flags: W
HStem: 0 97<27 45 150 189 380.844 425 536 557> 153 97<211 403> 468 97<133 195>
DStem: 195 468 288 436 45 97 211 250 288 436 343 565 363 250 536 97
Fore
403 153 m 1
 172 153 l 1
 150 97 l 1
 172 97 l 2
 198 97 208 95 216 88 c 0
 228 78 236 64 236 48 c 0
 236 32 228 16 213 7 c 0
 205 2 193 0 172 0 c 2
 43 0 l 2
 1 0 -20 16 -20 48 c 0
 -20 65 -12 81 2 90 c 0
 12 97 20 97 45 97 c 1
 195 468 l 1
 133 468 l 2
 108 468 99 470 89 477 c 0
 77 487 70 501 70 516 c 0
 70 533 78 549 92 558 c 0
 101 565 107 565 133 565 c 2
 343 565 l 1
 536 97 l 1
 563 97 572 95 581 87 c 1
 594 78 601 64 601 48 c 0
 601 32 593 16 578 7 c 0
 570 2 558 0 538 0 c 2
 403 0 l 2
 380 0 368 2 360 9 c 0
 347 19 339 33 339 48 c 0
 339 65 348 81 363 90 c 1
 371 97 378 97 403 97 c 2
 425 97 l 1
 403 153 l 1
363 250 m 1
 288 436 l 1
 211 250 l 1
 363 250 l 1
EndSplineSet
KernsSLIF: 121 -49 0 0 119 -15 0 0 118 -49 0 0 117 -15 0 0 116 -24 0 0 39 -140 0 0 186 -104 0 0 113 -5 0 0 46 -77 0 0 111 -2 0 0 45 -24 0 0 172 -50 0 0 171 -50 0 0 101 2 0 0 100 5 0 0 44 -59 0 0 332 -10 0 0 99 -5 0 0 98 55 0 0 97 19 0 0 89 -33 0 0 87 -15 0 0 86 -73 0 0 300 -28 0 0 298 -28 0 0 301 -28 0 0 299 -28 0 0 85 -28 0 0 84 -33 0 0 81 -20 0 0 286 -19 0 0 79 -19 0 0 71 -11 0 0 264 -28 0 0 67 -19 0 0
EndChar
StartChar: B
Encoding: 66 66 35
Width: 578
Flags: W
HStem: 0 97<77 90 188 381> 234 98<188 319> 468 97<77 90 77 333>
VStem: 90 98<97 234 97 468> 415 97<399 417> 456 98<143 157>
Fore
90 97 m 1xf4
 90 468 l 1
 77 468 l 2
 51 468 40 470 33 477 c 1
 20 487 12 502 12 516 c 0
 12 533 22 549 35 558 c 0
 45 565 53 565 77 565 c 2
 322 565 l 2
 431 565 512 497 512 404 c 0xf8
 512 361 492 329 450 295 c 1
 519 260 554 216 554 155 c 0
 554 62 477 0 363 0 c 2
 77 0 l 2
 54 0 40 2 33 9 c 1
 20 19 12 34 12 48 c 0
 12 65 22 81 35 90 c 0
 45 97 53 97 77 97 c 2
 90 97 l 1xf4
188 332 m 1
 298 332 l 2
 367 332 415 361 415 406 c 0
 415 445 378 468 316 468 c 2
 188 468 l 1
 188 332 l 1
188 97 m 1
 357 97 l 2
 423 97 456 115 456 149 c 0xf4
 456 172 440 198 415 213 c 0
 391 228 360 234 319 234 c 2
 188 234 l 1
 188 97 l 1
EndSplineSet
KernsSLIF: 89 -49 0 0 87 -7 0 0 86 -21 0 0 233 -6 0 0 288 -10 0 0 286 -10 0 0 289 -10 0 0 287 -10 0 0 234 14 0 0 79 -10 0 0 261 5 0 0 262 5 0 0 256 5 0 0 259 5 0 0 257 5 0 0 225 2 0 0 65 5 0 0
EndChar
StartChar: C
Encoding: 67 67 36
Width: 578
Flags: W
HStem: -15 99<294 337> 356 209<484 486> 482 96<287 318>
VStem: 32 97<224 322>
Fore
433 546 m 2xb0
 443 542 l 1
 456 558 467 565 484 565 c 0
 501 565 516 556 525 542 c 0
 532 533 532 525 532 501 c 2
 532 419 l 2
 532 395 530 384 523 376 c 0
 513 363 499 356 484 356 c 0xd0
 470 356 457 361 450 369 c 0
 442 378 440 384 436 407 c 0
 431 430 420 443 394 458 c 0
 367 473 332 482 299 482 c 0
 202 482 129 407 129 306 c 2
 129 243 l 2
 129 146 203 84 319 84 c 0
 363 84 402 90 427 105 c 0
 437 112 437 112 463 139 c 1
 474 149 485 154 499 154 c 0
 524 154 546 132 546 105 c 0
 546 84 528 57 495 35 c 1
 453 4 387 -15 316 -15 c 0
 152 -15 32 94 32 241 c 2
 32 306 l 2
 32 460 146 578 295 578 c 0
 346 578 380 570 433 546 c 2xb0
EndSplineSet
KernsSLIF: 286 -19 0 0 287 -19 0 0 79 -19 0 0 75 -10 0 0 72 -15 0 0 262 10 0 0 256 10 0 0 257 10 0 0 225 9 0 0 65 10 0 0
EndChar
StartChar: D
Encoding: 68 68 37
Width: 578
Flags: W
HStem: 0 97<59 78 169 301> 468 97<59 78 78 285>
VStem: 71 98<97 468> 436 97<239 305>
Fore
71 97 m 1
 71 468 l 1
 34 468 12 485 12 516 c 0
 12 533 22 549 35 558 c 0
 45 565 51 565 78 565 c 2
 283 565 l 2
 425 565 533 448 533 295 c 2
 533 250 l 2
 533 178 508 119 466 73 c 0
 418 22 360 0 275 0 c 2
 78 0 l 2
 54 0 40 2 33 9 c 1
 20 19 12 34 12 48 c 0
 12 81 35 97 71 97 c 1
169 97 m 1
 276 97 l 2
 334 97 365 108 396 140 c 1
 423 170 436 203 436 253 c 2
 436 298 l 2
 436 343 420 386 392 418 c 0
 363 453 326 468 275 468 c 2
 169 468 l 1
 169 97 l 1
EndSplineSet
KernsSLIF: 89 -64 0 0 88 -45 0 0 87 -15 0 0 86 -37 0 0 84 -33 0 0 74 -40 0 0 261 -30 0 0 262 -30 0 0 258 -30 0 0 256 -30 0 0 259 -30 0 0 257 -30 0 0 65 -30 0 0
EndChar
StartChar: E
Encoding: 69 69 38
Width: 578
Flags: W
HStem: 0 97<77 90 188 533> 0 211<475 533> 356 209<77 465> 468 97<77 90 77 415>
VStem: 90 98<97 236 97 468> 270 95<228 236 332 358> 415 97<419 468>
Fore
188 236 m 1x1e
 188 97 l 1
 436 97 l 1x9e
 436 147 l 2
 436 174 437 182 445 192 c 1
 453 205 469 211 484 211 c 0x4e
 501 211 516 203 525 189 c 0
 532 180 533 171 533 147 c 2
 533 0 l 1
 77 0 l 2
 54 0 40 2 33 9 c 1
 20 19 12 33 12 48 c 0
 12 65 22 81 35 90 c 0
 45 97 53 97 77 97 c 2
 90 97 l 1
 90 468 l 1
 77 468 l 2x9e
 51 468 40 470 33 477 c 1
 20 487 12 501 12 516 c 0
 12 533 22 549 35 558 c 0
 45 565 51 565 77 565 c 2x2e
 512 565 l 1x1e
 512 419 l 2
 512 392 508 384 503 375 c 1
 492 363 479 356 463 356 c 0x2e
 446 356 431 363 420 378 c 1
 417 387 415 396 415 419 c 2
 415 468 l 1
 188 468 l 1
 188 332 l 1
 270 332 l 1
 270 339 l 2
 270 364 273 373 279 381 c 0
 290 395 303 403 318 403 c 0
 345 403 361 386 365 358 c 1
 365 339 l 1
 365 228 l 2
 365 203 364 194 357 185 c 0
 348 172 332 164 319 164 c 0
 302 164 286 172 277 188 c 0
 273 197 270 205 270 228 c 2
 270 236 l 1
 188 236 l 1x1e
EndSplineSet
EndChar
StartChar: F
Encoding: 70 70 39
Width: 578
Flags: W
HStem: 0 97<77 90 188 301> 356 209<77 493> 468 97<77 90 77 436>
VStem: 90 98<96 236 97 468> 270 95<209.303 236 332 358> 436 97<418 468>
Fore
188 236 m 1xbc
 188 97 l 1
 285 97 l 2
 312 97 319 95 329 88 c 0
 341 78 349 64 349 48 c 0
 349 32 340 16 326 7 c 0
 319 2 304 0 285 0 c 2
 77 0 l 2
 54 0 40 2 33 9 c 1
 20 19 12 34 12 48 c 0
 12 65 22 81 35 90 c 0
 45 97 53 97 77 97 c 2
 90 97 l 1
 90 468 l 1
 77 468 l 2xbc
 51 468 40 470 33 477 c 1
 20 487 12 501 12 516 c 0
 12 533 22 549 35 558 c 0
 45 565 51 565 77 565 c 2xdc
 533 565 l 1xbc
 533 418 l 2
 533 392 532 384 524 375 c 0
 515 363 500 356 484 356 c 0xdc
 468 356 453 363 443 378 c 0
 437 386 436 396 436 418 c 2
 436 468 l 1
 188 468 l 1
 188 332 l 1
 270 332 l 1
 270 339 l 2
 270 363 273 373 279 381 c 0
 290 394 303 402 319 402 c 0
 335 402 350 394 360 379 c 1
 365 369 365 363 365 339 c 2
 365 228 l 2
 365 202 364 194 357 185 c 0
 348 171 332 164 319 164 c 0
 302 164 286 172 277 187 c 0
 273 195 270 208 270 228 c 2
 270 236 l 1
 188 236 l 1xbc
EndSplineSet
KernsSLIF: 117 -1 0 0 114 -40 0 0 46 -233 0 0 249 -64 0 0 250 -20 0 0 351 -64 0 0 352 -64 0 0 111 -64 0 0 106 -65 0 0 105 -58 0 0 45 -68 0 0 335 -59 0 0 101 -59 0 0 44 -209 0 0 328 -50 0 0 241 -21 0 0 322 -50 0 0 323 -50 0 0 97 -50 0 0 286 -29 0 0 79 -29 0 0 74 -98 0 0 261 -49 0 0 262 -49 0 0 258 -49 0 0 256 -49 0 0 259 -49 0 0 257 -49 0 0 65 -49 0 0
EndChar
StartChar: G
Encoding: 71 71 40
Width: 578
Flags: W
HStem: -15 99<293 341> 174 97<339 436> 482 96<287 323>
VStem: 32 97<222 322>
Fore
533 174 m 1
 533 47 l 1
 446 1 396 -15 321 -15 c 0
 226 -15 143 15 97 64 c 1
 56 105 32 170 32 239 c 2
 32 307 l 2
 32 381 62 453 113 503 c 0
 164 554 228 578 307 578 c 0
 360 578 407 567 448 549 c 1
 460 570 469 578 487 578 c 0
 503 578 519 570 525 555 c 1
 532 546 533 538 533 515 c 2
 533 439 l 2
 533 412 532 404 524 395 c 1
 515 381 500 375 484 375 c 0
 472 375 458 381 450 389 c 1
 445 396 445 396 437 427 c 0
 427 460 379 482 308 482 c 0
 254 482 210 466 180 436 c 0
 148 404 129 356 129 307 c 2
 129 244 l 2
 129 189 143 152 172 126 c 0
 205 98 254 84 315 84 c 0
 361 84 398 90 436 107 c 1
 436 174 l 1
 339 174 l 2
 315 174 304 177 295 185 c 1
 283 193 275 208 275 224 c 0
 275 240 283 257 298 264 c 1
 307 270 315 271 339 271 c 2
 508 271 l 2
 535 271 543 270 554 263 c 0
 567 253 574 239 574 224 c 0
 574 198 560 182 533 174 c 1
EndSplineSet
KernsSLIF: 89 -19 0 0 87 7 0 0 86 7 0 0 84 -30 0 0 261 7 0 0 262 7 0 0 258 7 0 0 256 7 0 0 259 7 0 0 257 7 0 0 225 6 0 0 65 7 0 0
EndChar
StartChar: H
Encoding: 72 72 41
Width: 578
Flags: W
HStem: 0 97<86 92 189 215 358.73 396 492 519> 234 96<189 396> 468 97<105 215 358.652 396>
VStem: 92 97<96 234 97 468> 396 96<96 468>
Fore
396 234 m 1
 189 234 l 1
 189 97 l 1
 203 97 l 2
 228 97 239 95 247 88 c 0
 260 78 267 64 267 48 c 0
 267 32 259 16 244 7 c 0
 236 2 224 0 203 0 c 2
 86 0 l 2
 64 0 50 2 40 8 c 1
 31 19 22 34 22 48 c 0
 22 65 31 81 46 90 c 1
 54 97 62 97 86 97 c 2
 92 97 l 1
 92 468 l 1
 60 470 40 488 40 516 c 0
 40 533 50 549 65 558 c 1
 74 565 81 565 105 565 c 2
 203 565 l 2
 229 565 239 563 247 556 c 0
 260 546 267 532 267 516 c 0
 267 500 259 484 244 474 c 0
 236 470 226 468 203 468 c 2
 189 468 l 1
 189 330 l 1
 396 330 l 1
 396 468 l 1
 381 468 l 2
 356 468 348 470 339 477 c 0
 326 487 318 501 318 516 c 0
 318 533 326 549 341 558 c 1
 349 565 357 565 381 565 c 2
 480 565 l 2
 505 565 515 563 524 556 c 0
 536 546 543 532 543 516 c 0
 543 488 525 470 492 468 c 1
 492 97 l 1
 499 97 l 2
 525 97 534 95 542 88 c 0
 555 78 563 64 563 48 c 0
 563 32 554 16 539 7 c 0
 532 2 519 0 499 0 c 2
 381 0 l 2
 358 0 347 2 339 8 c 0
 326 19 318 34 318 48 c 0
 318 65 326 81 341 90 c 1
 349 97 358 97 381 97 c 2
 396 97 l 1
 396 234 l 1
EndSplineSet
EndChar
StartChar: I
Encoding: 73 73 42
Width: 578
Flags: W
HStem: 0 97<144 242 339 450> 468 97<144 242 144 450>
VStem: 242 97<96 468>
Fore
339 468 m 1
 339 97 l 1
 437 97 l 2
 463 97 470 95 480 88 c 0
 494 78 501 64 501 48 c 0
 501 16 480 0 437 0 c 2
 144 0 l 2
 121 0 109 2 101 9 c 0
 88 19 81 34 81 48 c 0
 81 65 89 81 104 90 c 1
 113 97 119 97 144 97 c 2
 242 97 l 1
 242 468 l 1
 144 468 l 2
 120 468 109 470 101 477 c 0
 88 487 81 501 81 516 c 0
 81 533 89 549 104 558 c 1
 113 565 119 565 144 565 c 2
 437 565 l 2
 463 565 470 563 480 556 c 0
 494 546 501 532 501 516 c 0
 501 500 492 484 477 474 c 0
 470 470 460 468 437 468 c 2
 339 468 l 1
EndSplineSet
EndChar
StartChar: J
Encoding: 74 74 43
Width: 578
Flags: W
HStem: -15 99<242 276> 468 97<263 378 263 548>
VStem: 51 98<50 226> 378 96<176 468>
Fore
474 468 m 1
 474 181 l 2
 474 117 458 81 412 40 c 1
 371 6 318 -15 260 -15 c 0
 205 -15 140 6 51 50 c 1
 51 208 l 2
 51 232 54 242 61 250 c 0
 71 264 86 271 101 271 c 0
 117 271 133 263 143 248 c 0
 148 240 149 231 149 208 c 2
 149 113 l 1
 197 92 229 84 263 84 c 0
 298 84 332 97 356 119 c 1
 375 139 378 147 378 192 c 2
 378 468 l 1
 263 468 l 2
 239 468 228 470 219 477 c 0
 208 487 198 501 198 516 c 0
 198 533 208 549 222 558 c 0
 231 565 237 565 263 565 c 2
 530 565 l 2
 556 565 565 563 574 556 c 0
 587 546 594 532 594 516 c 0
 594 500 585 484 570 474 c 0
 563 470 552 468 530 468 c 2
 474 468 l 1
EndSplineSet
KernsSLIF: 262 -10 0 0 256 -10 0 0 225 -20 0 0 65 -10 0 0
EndChar
StartChar: K
Encoding: 75 75 44
Width: 578
Flags: W
HStem: 0 97<77 90 188 237 487 541> 468 97<77 90 77 237 491 511.079>
VStem: 90 98<96 202 97 468> 330 225<511 518>
DStem: 361 472 495 468 188 324 325 319
Fore
188 202 m 1
 188 97 l 1
 222 97 l 2
 248 97 257 95 265 88 c 0
 277 78 286 64 286 48 c 0
 286 32 277 16 263 7 c 0
 257 2 241 0 222 0 c 2
 77 0 l 2
 54 0 40 2 33 9 c 1
 20 19 12 34 12 48 c 0
 12 65 22 81 35 90 c 0
 45 97 53 97 77 97 c 2
 90 97 l 1
 90 468 l 1
 77 468 l 2
 51 468 40 470 33 477 c 1
 20 487 12 501 12 516 c 0
 12 533 22 549 35 558 c 0
 45 565 51 565 77 565 c 2
 222 565 l 2
 248 565 257 563 265 556 c 0
 277 546 286 532 286 516 c 0
 286 500 277 484 263 474 c 1
 255 470 244 468 222 468 c 2
 188 468 l 1
 188 324 l 1
 361 472 l 1
 340 480 330 492 330 515 c 0
 330 542 346 560 374 563 c 0
 386 565 387 565 394 565 c 2
 491 565 l 2
 518 565 525 563 536 556 c 0
 549 546 555 532 555 516 c 0
 555 484 535 468 495 468 c 1
 325 319 l 1
 384 290 443 208 488 97 c 1
 519 97 l 2
 546 97 554 95 563 88 c 0
 574 78 583 64 583 48 c 0
 583 32 574 16 560 7 c 0
 554 2 539 0 519 0 c 2
 412 0 l 1
 367 139 306 232 246 250 c 1
 188 202 l 1
EndSplineSet
KernsSLIF: 121 -61 0 0 362 -28 0 0 117 -28 0 0 351 -15 0 0 352 -15 0 0 111 -15 0 0 45 -55 0 0 101 -7 0 0 328 7 0 0 241 40 0 0 322 7 0 0 97 7 0 0 84 -15 0 0 83 -10 0 0 286 -30 0 0 287 -30 0 0 234 -5 0 0 79 -30 0 0 71 -24 0 0 67 -29 0 0
EndChar
StartChar: L
Encoding: 76 76 45
Width: 578
Flags: W
HStem: 0 97<97 152 248 554> 468 97<97 152 97 321>
VStem: 152 96<97 468>
Fore
248 468 m 1
 248 97 l 1
 456 97 l 1
 456 186 l 2
 456 211 458 221 466 231 c 1
 474 244 489 250 505 250 c 0
 521 250 536 242 546 228 c 0
 552 219 554 210 554 186 c 2
 554 0 l 1
 97 0 l 2
 74 0 60 2 51 9 c 0
 40 19 32 33 32 48 c 0
 32 65 40 81 55 90 c 1
 64 97 71 97 97 97 c 2
 152 97 l 1
 152 468 l 1
 97 468 l 2
 71 468 61 470 51 477 c 1
 40 487 32 501 32 516 c 0
 32 533 40 549 55 558 c 1
 64 565 71 565 97 565 c 2
 303 565 l 2
 329 565 337 563 347 556 c 0
 360 546 367 532 367 516 c 0
 367 500 358 484 345 474 c 1
 336 470 326 468 303 468 c 2
 248 468 l 1
EndSplineSet
KernsSLIF: 121 -41 0 0 362 -14 0 0 117 -11 0 0 39 -125 0 0 186 -90 0 0 45 10 0 0 89 -64 0 0 87 -28 0 0 86 -70 0 0 298 -36 0 0 85 -36 0 0 84 -64 0 0 83 -29 0 0 290 -9 0 0 288 -9 0 0 286 -9 0 0 289 -9 0 0 287 -9 0 0 79 -9 0 0 71 -11 0 0 264 -14 0 0 67 -11 0 0 262 20 0 0 256 20 0 0 257 20 0 0 225 20 0 0 65 20 0 0
EndChar
StartChar: M
Encoding: 77 77 46
Width: 578
Flags: W
HStem: 0 97<28 47 138 190 414 448 539 559.435>
VStem: 40 98<96 378> 448 96<96 468>
DStem: 138 378 160 565 252 133 294 277 425 565 448 378 294 277 340 133
Fore
138 378 m 1
 138 97 l 1
 171 97 l 2
 198 97 205 95 216 88 c 1
 228 78 236 64 236 48 c 0
 236 32 226 16 211 7 c 1
 205 2 191 0 171 0 c 2
 47 0 l 2
 23 0 11 2 2 9 c 0
 -11 19 -19 33 -19 48 c 0
 -19 81 2 97 40 97 c 1
 40 468 l 1
 8 470 -9 488 -9 518 c 0
 -9 533 -1 549 15 558 c 1
 19 562 39 566 50 566 c 0
 51 566 53 566 54 565 c 2
 160 565 l 1
 294 277 l 1
 425 565 l 1
 532 565 l 2
 557 565 566 563 574 556 c 0
 587 546 595 532 595 516 c 0
 595 488 577 470 544 468 c 1
 544 97 l 1
 582 97 604 81 604 48 c 0
 604 32 595 16 581 7 c 0
 574 2 558 0 539 0 c 2
 414 0 l 2
 391 0 378 2 370 9 c 0
 357 19 349 34 349 48 c 0
 349 65 358 81 373 90 c 1
 381 97 388 97 414 97 c 2
 448 97 l 1
 448 378 l 1
 340 133 l 1
 252 133 l 1
 138 378 l 1
EndSplineSet
EndChar
StartChar: N
Encoding: 78 78 47
Width: 578
Flags: W
HStem: 0 97<55 77 169 217> 468 97<56 71 361.216 418 508 530.334>
VStem: 71 98<96 381> 418 97<185 468>
DStem: 169 381 169 565 418 0 418 185
Fore
169 381 m 1
 169 97 l 1
 202 97 l 2
 228 97 236 95 246 88 c 0
 259 78 265 64 265 48 c 0
 265 32 257 16 242 7 c 1
 236 2 221 0 202 0 c 2
 77 0 l 2
 53 0 40 2 32 9 c 0
 19 19 12 33 12 48 c 0
 12 81 33 97 71 97 c 1
 71 468 l 1
 56 468 l 2
 32 468 22 470 12 477 c 0
 0 487 -8 501 -8 516 c 0
 -8 533 1 549 16 558 c 1
 24 565 31 565 56 565 c 2
 169 565 l 1
 418 185 l 1
 418 468 l 1
 384 468 l 2
 360 468 349 470 340 477 c 0
 329 487 319 501 319 516 c 0
 319 533 329 549 343 558 c 0
 352 565 358 565 384 565 c 2
 508 565 l 2
 536 565 543 563 554 556 c 1
 566 546 574 532 574 516 c 0
 574 485 554 468 515 468 c 1
 515 0 l 1
 418 0 l 1
 169 381 l 1
EndSplineSet
KernsSLIF: 362 -10 0 0 117 -10 0 0 46 -116 0 0 249 -2 0 0 351 -10 0 0 352 -10 0 0 111 -10 0 0 335 -2 0 0 101 -2 0 0 44 -94 0 0 328 -14 0 0 241 21 0 0 322 -14 0 0 323 -14 0 0 97 -14 0 0 286 -6 0 0 287 -6 0 0 79 -6 0 0 71 -7 0 0 264 -7 0 0 67 -9 0 0 262 -2 0 0 256 -2 0 0 257 -2 0 0 225 -2 0 0 65 -2 0 0
EndChar
StartChar: O
Encoding: 79 79 48
Width: 578
Flags: W
HStem: -15 99<291 309> 482 96<291 309>
VStem: 20 97<283 290> 464 97<272 290>
Fore
291 578 m 0
 356 578 418 552 470 503 c 0
 532 446 561 371 561 277 c 0
 561 119 437 -15 291 -15 c 0
 141 -15 20 119 20 283 c 0
 20 446 141 578 291 578 c 0
291 482 m 0
 195 482 117 391 117 283 c 0
 117 172 195 84 291 84 c 0
 384 84 464 172 464 280 c 0
 464 391 387 482 291 482 c 0
EndSplineSet
KernsSLIF: 89 -51 0 0 88 -30 0 0 87 -2 0 0 86 -28 0 0 84 -19 0 0 262 -19 0 0 256 -19 0 0 257 -19 0 0 225 -19 0 0 65 -19 0 0
EndChar
StartChar: P
Encoding: 80 80 49
Width: 578
Flags: W
HStem: 0 97<77 90 188 305> 194 97<188 317> 468 97<77 90 77 317>
VStem: 90 98<96 194 97 468> 411 101<367 385>
Fore
188 194 m 1
 188 97 l 1
 283 97 l 2
 310 97 318 95 329 88 c 1
 340 78 348 64 348 48 c 0
 348 32 339 16 325 7 c 0
 318 2 303 0 283 0 c 2
 77 0 l 2
 54 0 40 2 33 9 c 1
 20 19 12 34 12 48 c 0
 12 65 22 81 35 90 c 0
 45 97 53 97 77 97 c 2
 90 97 l 1
 90 468 l 1
 77 468 l 2
 51 468 40 470 33 477 c 1
 20 487 12 502 12 516 c 0
 12 533 22 549 35 558 c 0
 45 565 51 565 77 565 c 2
 302 565 l 2
 425 565 512 489 512 381 c 0
 512 337 495 291 464 257 c 0
 420 210 373 194 283 194 c 2
 188 194 l 1
188 468 m 1
 188 291 l 1
 302 291 l 2
 369 291 411 325 411 379 c 0
 411 434 369 468 302 468 c 2
 188 468 l 1
EndSplineSet
KernsSLIF: 46 -221 0 0 249 -51 0 0 250 -15 0 0 351 -51 0 0 352 -51 0 0 111 -51 0 0 45 -41 0 0 335 -47 0 0 101 -47 0 0 44 -200 0 0 328 -60 0 0 241 -33 0 0 322 -60 0 0 323 -60 0 0 97 -60 0 0 74 -91 0 0 262 -76 0 0 256 -76 0 0 257 -76 0 0 225 -73 0 0 65 -76 0 0
EndChar
StartChar: Q
Encoding: 81 81 50
Width: 578
Flags: W
HStem: -140 97<413 437> -113 89<306 311> -7 89<275 308> 482 96<291 308>
VStem: 20 97<275 293> 464 97<259 293>
Fore
263 -6 m 1x7c
 259 -29 l 1
 282 -24 294 -24 308 -24 c 0x7c
 332 -24 358 -28 389 -37 c 0
 412 -43 418 -43 429 -43 c 0
 443 -43 453 -40 470 -29 c 0
 492 -15 499 -12 508 -12 c 0
 538 -12 558 -34 558 -61 c 0
 558 -81 549 -95 522 -110 c 1
 487 -132 460 -140 430 -140 c 0xbc
 406 -140 402 -140 356 -121 c 0
 345 -117 322 -113 309 -113 c 0
 290 -113 228 -123 187 -133 c 0
 175 -136 166 -139 160 -139 c 0
 136 -139 113 -115 113 -88 c 0
 113 -74 117 -66 133 -51 c 2
 193 7 l 1
 120 48 90 74 64 120 c 0
 35 169 20 224 20 283 c 0
 20 446 141 578 291 578 c 0
 439 578 561 446 561 285 c 0
 561 177 508 81 415 26 c 0
 379 4 334 -7 280 -7 c 0
 277 -7 270 -7 263 -6 c 1x7c
291 482 m 0
 195 482 117 391 117 282 c 0
 117 172 195 82 291 82 c 0
 384 82 464 172 464 279 c 0
 464 391 387 482 291 482 c 0
EndSplineSet
EndChar
StartChar: R
Encoding: 82 82 51
Width: 578
Flags: W
HStem: 0 97<77 90 188 237 522 557> 468 97<77 90 77 301>
VStem: 90 98<96 215 97 468> 403 102<390 401>
Fore
188 215 m 1
 188 97 l 1
 222 97 l 2
 248 97 257 95 267 88 c 1
 277 78 286 64 286 48 c 0
 286 32 277 16 263 7 c 0
 257 2 241 0 222 0 c 2
 77 0 l 2
 54 0 40 2 33 9 c 1
 20 19 12 34 12 48 c 0
 12 65 22 81 35 90 c 0
 45 97 53 97 77 97 c 2
 90 97 l 1
 90 468 l 1
 77 468 l 2
 51 468 40 470 33 477 c 1
 20 487 12 501 12 516 c 0
 12 533 22 549 35 558 c 0
 45 565 51 565 77 565 c 2
 293 565 l 2
 418 565 505 494 505 392 c 0
 505 332 472 285 401 246 c 1
 446 208 482 162 523 97 c 1
 536 97 l 2
 560 97 570 95 581 88 c 0
 591 81 600 64 600 48 c 0
 600 32 591 16 577 7 c 0
 570 2 555 0 536 0 c 2
 460 0 l 1
 411 94 322 202 281 215 c 1
 188 215 l 1
188 312 m 1
 260 312 l 2
 343 312 403 347 403 395 c 0
 403 437 358 468 296 468 c 2
 188 468 l 1
 188 312 l 1
EndSplineSet
KernsSLIF: 121 -21 0 0 362 -10 0 0 363 -10 0 0 117 -9 0 0 250 36 0 0 351 -2 0 0 352 -2 0 0 111 -2 0 0 45 -30 0 0 335 2 0 0 101 2 0 0 328 19 0 0 241 50 0 0 322 19 0 0 323 19 0 0 97 19 0 0 89 -34 0 0 87 -10 0 0 86 -29 0 0 298 -20 0 0 85 -20 0 0 84 -34 0 0 286 -19 0 0 287 -19 0 0 234 6 0 0 79 -19 0 0 71 -11 0 0 264 -20 0 0 67 -19 0 0
EndChar
StartChar: S
Encoding: 83 83 52
Width: 578
Flags: W
HStem: -15 99<281 315> 1 192<106 111> 482 96<290 301>
VStem: 81 99<400 419> 420 101<146 162>
Fore
501 515 m 2xb8
 501 429 l 2
 501 402 499 394 492 384 c 0
 482 371 468 364 453 364 c 0
 440 364 427 370 418 378 c 1
 412 386 412 386 404 417 c 0
 396 456 349 482 290 482 c 0
 228 482 180 450 180 408 c 0
 180 388 195 365 216 356 c 1
 236 345 240 343 313 329 c 0
 397 314 434 299 464 276 c 0
 503 244 521 205 521 155 c 0
 521 54 433 -15 299 -15 c 0xb8
 247 -15 195 -1 148 24 c 1
 132 5 125 1 109 1 c 0
 76 1 60 22 60 65 c 2
 60 129 l 2
 60 153 62 164 70 172 c 1
 78 186 93 193 108 193 c 0x78
 122 193 136 188 143 178 c 1
 150 172 150 172 158 146 c 0
 169 112 228 84 293 84 c 0
 364 84 420 115 420 156 c 0
 420 177 407 197 386 208 c 0
 365 219 349 224 283 234 c 0
 221 244 191 255 159 273 c 0
 109 299 81 352 81 407 c 0
 81 505 170 578 290 578 c 0
 339 578 381 567 415 546 c 1
 425 570 434 578 453 578 c 0
 470 578 487 570 494 556 c 1
 500 549 501 539 501 515 c 2xb8
EndSplineSet
KernsSLIF: 116 -20 0 0 89 -40 0 0 87 -15 0 0 86 -11 0 0 84 -51 0 0 262 -11 0 0 256 -11 0 0 257 -11 0 0 225 -11 0 0 65 -11 0 0
EndChar
StartChar: T
Encoding: 84 84 53
Width: 578
Flags: W
HStem: 0 97<178 241 339 409> 468 97<40 241 40 443>
VStem: 40 98<378 468> 241 98<96 468> 443 98<378 468>
Fore
339 468 m 1
 339 97 l 1
 402 97 l 2
 428 97 436 95 446 88 c 0
 458 78 466 64 466 48 c 0
 466 32 457 16 443 7 c 0
 436 2 420 0 402 0 c 2
 178 0 l 2
 156 0 143 2 136 9 c 1
 122 19 115 34 115 48 c 0
 115 65 123 81 138 90 c 1
 146 97 153 97 178 97 c 2
 241 97 l 1
 241 468 l 1
 138 468 l 1
 138 378 l 2
 138 352 136 345 129 334 c 1
 119 322 105 314 89 314 c 0
 73 314 56 322 47 337 c 0
 43 346 40 356 40 378 c 2
 40 565 l 1
 541 565 l 1
 541 378 l 2
 541 350 539 345 532 334 c 1
 522 322 508 314 492 314 c 0
 477 314 460 324 450 337 c 1
 446 346 443 356 443 378 c 2
 443 468 l 1
 339 468 l 1
EndSplineSet
KernsSLIF: 119 11 0 0 118 11 0 0 117 5 0 0 59 -125 0 0 115 -49 0 0 114 -34 0 0 46 -184 0 0 249 -40 0 0 111 -40 0 0 106 -60 0 0 105 -51 0 0 45 -113 0 0 172 -91 0 0 171 -91 0 0 103 -29 0 0 101 -30 0 0 44 -162 0 0 58 -139 0 0 99 -45 0 0 241 -15 0 0 97 -42 0 0 89 -11 0 0 87 5 0 0 86 11 0 0 83 -51 0 0 290 -19 0 0 233 -19 0 0 288 -19 0 0 286 -19 0 0 289 -19 0 0 287 -19 0 0 234 7 0 0 79 -19 0 0 74 -82 0 0 71 -24 0 0 67 -24 0 0 261 -34 0 0 262 -34 0 0 258 -34 0 0 256 -34 0 0 259 -34 0 0 257 -34 0 0 225 -34 0 0 65 -34 0 0
EndChar
StartChar: U
Encoding: 85 85 54
Width: 578
Flags: W
HStem: -15 99<291 298> 468 97<74 218 381 415 508 527.388>
VStem: 70 96<189 468> 415 97<189 468>
Fore
512 468 m 1
 512 198 l 2
 512 129 487 76 431 34 c 0
 389 2 345 -15 291 -15 c 0
 239 -15 192 2 150 34 c 0
 97 76 70 129 70 198 c 2
 70 468 l 1
 31 469 9 485 9 516 c 0
 9 533 19 549 33 558 c 1
 40 565 50 565 74 565 c 2
 200 565 l 2
 226 565 234 565 244 556 c 0
 257 546 264 532 264 516 c 0
 264 500 255 484 240 474 c 0
 232 470 222 468 200 468 c 2
 166 468 l 1
 166 191 l 2
 166 131 222 84 291 84 c 0
 360 84 415 131 415 191 c 2
 415 468 l 1
 381 468 l 2
 356 468 347 470 339 477 c 0
 326 487 318 501 318 516 c 0
 318 533 326 549 341 558 c 1
 349 565 356 565 381 565 c 2
 508 565 l 2
 534 565 542 563 552 556 c 0
 565 546 572 532 572 516 c 0
 572 485 551 468 512 468 c 1
EndSplineSet
KernsSLIF: 114 -42 0 0 46 -141 0 0 110 -10 0 0 109 20 0 0 44 -118 0 0 261 -24 0 0 262 -24 0 0 256 -24 0 0 259 -24 0 0 257 -24 0 0 225 -21 0 0 65 -24 0 0
EndChar
StartChar: V
Encoding: 86 86 55
Width: 578
Flags: W
HStem: 0 21G<241 337> 468 97<27 46 43 189 411 557>
DStem: 46 468 154 468 241 0 294 140 433 468 536 468 294 140 337 0
Fore
294 140 m 1
 433 468 l 1
 411 468 l 2
 384 468 376 470 365 477 c 1
 353 487 346 501 346 516 c 0
 346 533 356 549 369 558 c 0
 378 565 384 565 411 565 c 2
 538 565 l 2
 563 565 573 563 581 556 c 0
 594 546 601 532 601 516 c 0
 601 497 588 477 572 472 c 0
 563 469 556 468 536 468 c 1
 337 0 l 1
 241 0 l 1
 46 468 l 1
 26 468 19 469 9 472 c 0
 -7 477 -20 497 -20 516 c 0
 -20 533 -12 549 2 558 c 0
 12 565 19 565 43 565 c 2
 172 565 l 2
 198 565 208 563 218 556 c 1
 228 546 236 532 236 516 c 0
 236 500 228 484 213 474 c 0
 205 470 195 468 172 468 c 2
 154 468 l 1
 294 140 l 1
EndSplineSet
KernsSLIF: 121 -20 0 0 117 -19 0 0 59 -149 0 0 114 -55 0 0 46 -205 0 0 249 -60 0 0 111 -64 0 0 105 -73 0 0 45 -49 0 0 172 -94 0 0 171 -94 0 0 103 -58 0 0 101 -59 0 0 44 -181 0 0 58 -165 0 0 241 -33 0 0 97 -65 0 0 84 11 0 0 83 -33 0 0 290 -28 0 0 233 -28 0 0 288 -28 0 0 286 -28 0 0 289 -28 0 0 287 -28 0 0 79 -28 0 0 71 -29 0 0 67 -29 0 0 261 -5 0 0 262 -5 0 0 258 -5 0 0 256 -5 0 0 259 -5 0 0 257 -5 0 0 225 -15 0 0 65 -5 0 0
EndChar
StartChar: W
Encoding: 87 87 56
Width: 578
Flags: W
HStem: 0 21G<95 202 381 487> 468 97<54 204 400 451>
DStem: 35 468 136 468 95 0 170 205 243 423 291 268 170 205 202 0 291 268 345 423 381 0 418 205 451 468 546 468 418 205 487 0
Fore
291 268 m 1
 202 0 l 1
 95 0 l 1
 35 468 l 1
 6 472 -9 487 -9 515 c 0
 -9 533 -1 549 15 558 c 1
 22 565 29 565 54 565 c 2
 181 565 l 2
 208 565 216 563 226 556 c 0
 239 546 246 532 246 516 c 0
 246 500 237 484 224 474 c 1
 214 470 205 468 181 468 c 2
 136 468 l 1
 170 205 l 1
 243 423 l 1
 345 423 l 1
 418 205 l 1
 451 468 l 1
 400 468 l 2
 376 468 365 470 356 477 c 0
 345 487 336 501 336 516 c 0
 336 533 345 549 360 558 c 1
 368 565 375 565 400 565 c 2
 527 565 l 2
 554 565 562 563 572 556 c 1
 583 546 591 532 591 516 c 0
 591 490 574 473 546 468 c 1
 487 0 l 1
 381 0 l 1
 291 268 l 1
EndSplineSet
KernsSLIF: 121 -2 0 0 117 1 0 0 59 -104 0 0 114 -30 0 0 46 -126 0 0 249 -5 0 0 111 -10 0 0 105 -47 0 0 45 1 0 0 172 -40 0 0 171 -40 0 0 103 -2 0 0 101 -2 0 0 44 -104 0 0 58 -125 0 0 241 20 0 0 97 -14 0 0 84 5 0 0 83 -20 0 0 290 -2 0 0 233 2 0 0 288 -2 0 0 286 -2 0 0 289 -2 0 0 287 -2 0 0 79 -2 0 0 71 -2 0 0 67 -5 0 0 261 -10 0 0 262 -10 0 0 258 -10 0 0 256 -10 0 0 259 -10 0 0 257 -10 0 0 225 -10 0 0 65 -10 0 0
EndChar
StartChar: X
Encoding: 88 88 57
Width: 578
Flags: W
HStem: 0 97<56 74 508 522>
VStem: 19 217<516 518> 345 215<516 518>
DStem: 74 468 198 469 228 290 291 363 228 290 291 213 67 97 193 97 291 213 353 288 389 97 515 97 381 469 505 468 291 363 353 288
Fore
353 288 m 1
 515 97 l 1
 551 97 572 78 572 48 c 0
 572 32 563 16 549 7 c 0
 541 2 528 0 508 0 c 2
 400 0 l 2
 357 0 336 16 336 48 c 0
 336 78 356 95 389 97 c 1
 291 213 l 1
 193 97 l 1
 226 95 244 78 244 48 c 0
 244 32 236 16 222 7 c 0
 214 2 202 0 181 0 c 2
 74 0 l 2
 50 0 39 2 31 8 c 0
 17 19 9 33 9 48 c 0
 9 78 31 97 67 97 c 1
 228 290 l 1
 74 468 l 1
 39 470 19 487 19 516 c 0
 19 542 35 560 64 563 c 0
 74 565 76 565 82 565 c 2
 170 565 l 2
 198 565 205 563 215 556 c 0
 228 546 236 532 236 516 c 0
 236 495 226 482 198 469 c 1
 291 363 l 1
 381 469 l 1
 353 482 345 495 345 516 c 0
 345 532 352 546 364 555 c 1
 371 562 388 565 409 565 c 2
 496 565 l 2
 522 565 530 563 539 556 c 0
 554 546 560 532 560 516 c 0
 560 487 539 469 505 468 c 1
 353 288 l 1
EndSplineSet
MinimumDistance: x28,33 x19,24 x6,2 x15,10 
KernsSLIF: 121 -51 0 0 117 -34 0 0 111 -21 0 0 45 -61 0 0 101 -15 0 0 81 -30 0 0 286 -30 0 0 79 -30 0 0 67 -34 0 0
EndChar
StartChar: Y
Encoding: 89 89 58
Width: 578
Flags: W
HStem: 0 97<178 242 339 421> 468 97<70.974 83 499 500>
VStem: 20 216<516 518> 242 97<96 237>
DStem: 82 468 198 469 242 237 291 337 381 469 499 468 291 337 339 237
Fore
339 237 m 1
 339 97 l 1
 402 97 l 2
 429 97 437 95 446 88 c 0
 460 78 467 64 467 48 c 0
 467 32 458 16 443 7 c 1
 437 2 422 0 402 0 c 2
 178 0 l 2
 156 0 143 2 136 9 c 1
 122 19 115 33 115 48 c 0
 115 65 123 81 138 90 c 1
 146 97 153 97 178 97 c 2
 242 97 l 1
 242 237 l 1
 82 468 l 1
 43 468 20 485 20 516 c 0
 20 542 37 560 65 563 c 0
 77 565 78 565 86 565 c 2
 171 565 l 2
 198 565 208 563 216 556 c 0
 228 546 236 532 236 516 c 0
 236 494 224 480 198 469 c 1
 291 337 l 1
 381 469 l 1
 356 479 343 494 343 516 c 0
 343 533 352 549 365 558 c 0
 375 565 384 565 408 565 c 2
 497 565 l 2
 523 565 532 563 541 556 c 0
 554 546 561 532 561 516 c 0
 561 487 534 464 500 468 c 2
 499 468 l 1
 339 237 l 1
EndSplineSet
MinimumDistance: x15,20 
KernsSLIF: 118 -41 0 0 117 -51 0 0 59 -166 0 0 46 -170 0 0 112 -37 0 0 249 -64 0 0 111 -80 0 0 105 -72 0 0 45 -100 0 0 172 -116 0 0 171 -116 0 0 103 -73 0 0 101 -73 0 0 44 -148 0 0 58 -188 0 0 241 -34 0 0 97 -65 0 0 84 -11 0 0 83 -60 0 0 290 -55 0 0 233 -51 0 0 288 -55 0 0 286 -55 0 0 289 -55 0 0 287 -55 0 0 79 -55 0 0 71 -55 0 0 67 -55 0 0 261 -30 0 0 262 -30 0 0 258 -30 0 0 256 -30 0 0 259 -30 0 0 257 -30 0 0 225 -34 0 0 65 -30 0 0
EndChar
StartChar: Z
Encoding: 90 90 59
Width: 578
Flags: W
HStem: 0 97<195 511> 468 97<93 363>
VStem: 93 98<400 468>
DStem: 363 468 488 470 71 97 195 97
Fore
195 97 m 1
 414 97 l 1
 414 167 l 2
 414 191 415 202 422 211 c 0
 433 224 446 231 462 231 c 0
 479 231 495 222 503 208 c 0
 508 198 511 192 511 167 c 2
 511 0 l 1
 71 0 l 1
 71 97 l 1
 363 468 l 1
 191 468 l 1
 191 400 l 2
 191 374 188 365 181 356 c 0
 171 345 156 336 141 336 c 0
 125 336 109 345 100 360 c 0
 95 368 93 376 93 400 c 2
 93 565 l 1
 488 565 l 1
 488 470 l 1
 195 97 l 1
EndSplineSet
KernsSLIF: 121 -64 0 0 118 -51 0 0
EndChar
StartChar: bracketleft
Encoding: 91 91 60
Width: 578
Flags: W
HStem: 511 97<242 403>
VStem: 242 97<-143 511>
Fore
339 511 m 1
 339 -47 l 1
 396 -47 l 2
 422 -47 430 -48 440 -55 c 0
 453 -65 460 -81 460 -95 c 0
 460 -112 451 -127 437 -136 c 0
 429 -141 418 -143 396 -143 c 2
 242 -143 l 1
 242 608 l 1
 395 608 l 2
 420 608 429 605 440 598 c 0
 453 589 460 574 460 558 c 0
 460 542 450 525 436 518 c 1
 428 512 417 511 395 511 c 2
 339 511 l 1
EndSplineSet
EndChar
StartChar: backslash
Encoding: 92 92 61
Width: 578
Flags: W
DStem: 92 591 178 629 402 -67 489 -26
Fore
178 629 m 1
 489 -26 l 1
 499 -43 501 -53 501 -64 c 0
 501 -87 477 -109 453 -109 c 0
 429 -109 418 -100 402 -67 c 2
 92 591 l 1
 82 611 81 616 81 627 c 0
 81 651 102 673 129 673 c 0
 152 673 164 663 178 629 c 1
EndSplineSet
EndChar
StartChar: bracketright
Encoding: 93 93 62
Width: 578
Flags: W
HStem: -143 96<186 242> 511 97<185 242>
VStem: 242 97<-48 608>
Fore
242 -47 m 1
 242 511 l 1
 185 511 l 2
 159 511 152 512 141 519 c 1
 129 529 121 543 121 558 c 0
 121 574 129 591 144 601 c 0
 152 605 164 608 185 608 c 2
 339 608 l 1
 339 -143 l 1
 186 -143 l 2
 160 -143 152 -141 141 -136 c 1
 129 -125 122 -110 122 -95 c 0
 122 -78 131 -62 146 -53 c 0
 153 -48 164 -47 186 -47 c 2
 242 -47 l 1
EndSplineSet
EndChar
StartChar: asciicircum
Encoding: 94 94 63
Width: 578
Flags: W
DStem: 290 479 290 632 404 345 480 406 290 632 290 479 102 406 177 345 290 479 290 632 404 345 480 406 290 632 290 479 102 406 177 345 290 479 290 632 404 345 480 406 290 632 290 479 102 406 177 345 290 479 290 632 404 345 480 406 290 632 290 479 102 406 177 345 290 479 290 632 404 345 480 406 290 632 290 479 102 406 177 345 290 479 290 632 404 345 480 406 290 632 290 479 102 406 177 345 290 479 290 632 404 345 480 406 290 632 290 479 102 406 177 345 290 479 290 632 404 345 480 406 290 632 290 479 102 406 177 345 290 479 290 632 404 345 480 406
Fore
290 479 m 1
 177 345 l 2
 155 319 148 315 129 315 c 0
 102 315 81 337 81 363 c 0
 81 378 84 386 102 406 c 1
 290 632 l 1
 480 406 l 2
 497 386 501 378 501 363 c 0
 501 337 479 315 453 315 c 0
 434 315 425 319 404 345 c 1
 290 479 l 1
EndSplineSet
EndChar
StartChar: underscore
Encoding: 95 95 64
Width: 578
Flags: W
HStem: -121 48<-12 593>
Fore
593 -73 m 1
 593 -121 l 1
 -12 -121 l 1
 -12 -73 l 1
 593 -73 l 1
EndSplineSet
EndChar
StartChar: quoteleft
Encoding: 96 8216 65
Width: 578
Flags: W
HStem: 563 20G<241 369>
Fore
369 583 m 1
 436 381 l 2
 437 378 439 369 439 364 c 0
 439 349 425 337 409 337 c 0
 396 337 388 343 378 361 c 1
 241 583 l 1
 369 583 l 1
EndSplineSet
KernsSLIF: 89 -91 1 0 87 -47 1 0 86 -58 1 0 84 -60 1 0 262 -108 1 0 256 -108 1 0 257 -108 1 0 225 -105 1 0 65 -108 1 0
EndChar
StartChar: a
Encoding: 97 97 66
Width: 578
Flags: W
HStem: -16 97<199.966 233> 191 88<263 297> 339 97<263 297>
VStem: 40 103<113 121> 378 96<130 295>
Fore
376 0 m 1
 376 22 l 1
 329 -2 273 -16 215 -16 c 0
 119 -16 40 43 40 115 c 0
 40 146 55 178 78 205 c 0
 122 254 189 279 275 279 c 0
 306 279 336 276 376 270 c 1
 376 291 l 2
 376 325 348 339 286 339 c 0
 254 339 218 334 172 322 c 0
 156 319 143 316 136 316 c 0
 107 316 87 339 87 365 c 0
 87 387 97 400 116 407 c 0
 162 423 234 436 283 436 c 0
 402 436 474 381 474 293 c 2
 474 97 l 1
 489 97 l 2
 515 97 524 95 534 88 c 0
 546 78 554 64 554 48 c 0
 554 32 544 16 530 7 c 0
 523 2 508 0 489 0 c 2
 376 0 l 1
378 131 m 1
 378 178 l 1
 339 186 302 191 270 191 c 0
 203 191 143 156 143 119 c 0
 143 98 175 81 218 81 c 0
 270 81 324 98 378 131 c 1
EndSplineSet
KernsSLIF: 121 -40 0 0 119 -15 0 0 118 -25 0 0 39 -98 0 0 106 -100 0 0
EndChar
StartChar: b
Encoding: 98 98 67
Width: 578
Flags: W
HStem: -15 99<295 329> 0 97<56 71> 340 97<295 329> 508 96<56 71>
VStem: 71 98<97 226 97 604> 456 98<195.134 226>
Fore
169 604 m 1x7c
 169 388 l 1
 210 420 257 437 314 437 c 0
 387 437 441 417 485 374 c 0
 530 332 554 275 554 211 c 0
 554 148 530 93 485 50 c 0
 441 7 387 -15 315 -15 c 0xbc
 257 -15 219 -1 169 34 c 1
 169 0 l 1
 56 0 l 2
 33 0 20 2 12 8 c 0
 0 19 -8 33 -8 48 c 0
 -8 65 1 81 16 90 c 1
 24 97 32 97 56 97 c 2
 71 97 l 1
 71 508 l 1
 56 508 l 2
 31 508 22 508 12 516 c 0
 0 525 -8 541 -8 556 c 0
 -8 573 1 589 16 598 c 0
 24 604 33 604 56 604 c 2
 169 604 l 1x7c
313 340 m 0
 265 340 234 329 208 301 c 1
 182 277 169 244 169 213 c 0
 169 136 228 84 313 84 c 0
 358 84 391 97 418 122 c 0
 443 146 456 178 456 211 c 0
 456 244 442 277 418 301 c 0
 391 329 360 340 313 340 c 0
EndSplineSet
KernsSLIF: 121 -11 0 0 119 5 0 0
EndChar
StartChar: c
Encoding: 99 99 68
Width: 578
Flags: W
HStem: -16 97<290 340> 339 97<299 324>
VStem: 51 98<202 209>
Fore
523 371 m 2
 523 298 l 2
 523 273 521 263 515 254 c 0
 505 241 490 234 474 234 c 0
 462 234 448 240 440 247 c 0
 433 253 430 259 425 280 c 0
 420 298 415 306 403 315 c 1
 378 330 343 339 299 339 c 0
 250 339 215 326 188 298 c 1
 162 273 149 237 149 202 c 0
 149 121 208 81 319 81 c 0
 358 81 398 86 420 94 c 0
 440 100 445 104 470 123 c 1
 479 132 487 136 499 136 c 0
 525 136 549 113 549 86 c 0
 549 61 525 35 485 16 c 0
 446 -4 384 -16 313 -16 c 0
 219 -16 159 5 112 51 c 0
 73 90 51 141 51 202 c 0
 51 339 154 436 299 436 c 0
 356 436 402 427 440 407 c 1
 446 427 456 436 477 436 c 0
 508 436 523 417 523 371 c 2
EndSplineSet
KernsSLIF: 107 7 0 0 104 14 0 0
EndChar
StartChar: d
Encoding: 100 100 69
Width: 578
Flags: W
HStem: -15 99<255 289> 340 97<273 289> 508 96<402 417>
VStem: 32 97<195.661 226> 418 97<195.115 226 388 604>
Fore
515 604 m 1
 515 97 l 1
 530 97 l 2
 556 97 565 95 574 88 c 0
 587 78 594 64 594 48 c 0
 594 32 585 16 570 7 c 0
 563 2 552 0 530 0 c 2
 418 0 l 1
 418 34 l 1
 365 -1 329 -15 271 -15 c 0
 198 -15 144 7 100 50 c 0
 55 93 32 148 32 211 c 0
 32 275 55 332 100 374 c 0
 144 417 198 437 273 437 c 0
 330 437 376 420 418 388 c 1
 418 508 l 1
 402 508 l 2
 378 508 367 511 357 518 c 0
 346 527 339 542 339 557 c 0
 339 573 347 589 361 598 c 0
 370 604 378 604 402 604 c 2
 515 604 l 1
273 340 m 0
 226 340 194 329 167 301 c 0
 143 277 129 244 129 211 c 0
 129 178 143 147 167 122 c 1
 194 97 226 84 273 84 c 0
 319 84 353 97 380 122 c 0
 404 146 418 178 418 210 c 0
 418 244 404 277 380 301 c 0
 352 329 321 340 273 340 c 0
EndSplineSet
EndChar
StartChar: e
Encoding: 101 101 70
Width: 578
Flags: W
HStem: -16 97<271 305> 167 85<140 533> 339 97<271 298>
Fore
533 167 m 1
 138 167 l 1
 160 108 211 81 296 81 c 0
 341 81 365 86 453 108 c 0
 466 112 477 113 487 113 c 0
 512 113 533 92 533 65 c 0
 533 46 522 32 499 22 c 0
 456 2 356 -16 288 -16 c 0
 138 -16 32 78 32 209 c 0
 32 337 140 436 282 436 c 0
 427 436 533 339 533 205 c 2
 533 167 l 1
140 252 m 1
 425 252 l 1
 411 306 353 339 283 339 c 0
 211 339 155 304 140 252 c 1
EndSplineSet
KernsSLIF: 121 -24 0 0 120 7 0 0 119 -2 0 0 118 -10 0 0 116 -20 0 0 39 -82 0 0
EndChar
StartChar: f
Encoding: 102 102 71
Width: 578
Flags: W
HStem: 0 97<136 193 290 442> 326 97<134 193 290 442> 507 97<360 394>
VStem: 193 97<96 326 422 465>
Fore
290 326 m 1
 290 97 l 1
 425 97 l 2
 450 97 460 95 469 88 c 0
 480 78 488 64 488 48 c 0
 488 32 480 16 466 7 c 0
 458 2 443 0 425 0 c 2
 136 0 l 2
 115 0 101 2 92 9 c 0
 81 19 73 34 73 48 c 0
 73 65 81 81 97 90 c 1
 105 97 112 97 136 97 c 2
 193 97 l 1
 193 326 l 1
 147 326 l 2
 123 326 113 329 104 336 c 0
 90 345 84 360 84 375 c 0
 84 391 92 408 107 417 c 0
 115 422 122 423 148 423 c 2
 193 423 l 1
 193 460 l 2
 193 549 264 604 380 604 c 0
 420 604 482 598 512 588 c 1
 539 581 554 565 554 542 c 0
 554 515 533 492 508 492 c 0
 502 492 492 494 480 496 c 0
 448 502 401 507 371 507 c 0
 316 507 290 491 290 460 c 2
 290 423 l 1
 436 423 l 2
 462 423 470 420 480 415 c 1
 492 404 500 391 500 375 c 0
 500 358 491 343 477 332 c 1
 469 329 457 326 436 326 c 2
 290 326 l 1
EndSplineSet
KernsSLIF: 116 -7 0 0 115 -51 0 0 39 -91 0 0 249 -36 0 0 250 -19 0 0 351 -51 0 0 352 -59 0 0 111 -59 0 0 108 -30 0 0 106 -73 0 0 105 -45 0 0 102 -51 0 0 335 -51 0 0 101 -51 0 0 328 -40 0 0 241 -9 0 0 322 -40 0 0 323 -40 0 0 97 -40 0 0
EndChar
StartChar: g
Encoding: 103 103 72
Width: 578
Flags: W
HStem: -198 96<176.108 321> -15 99<255 273> 326 97<397 529> 340 97<255 273>
VStem: 32 97<211 219> 397 97<-19 34 201 326>
Fore
397 388 m 1xdc
 397 423 l 1
 508 423 l 2
 536 423 544 420 554 415 c 1
 566 404 574 391 574 375 c 0
 574 358 565 342 550 332 c 1
 542 329 532 326 508 326 c 2
 494 326 l 1xec
 494 -19 l 2
 494 -122 415 -198 309 -198 c 2
 202 -198 l 2
 177 -198 166 -197 156 -189 c 0
 144 -180 136 -166 136 -150 c 0
 136 -133 146 -117 160 -108 c 0
 169 -102 175 -102 202 -102 c 2
 306 -102 l 2
 361 -102 397 -70 397 -19 c 2
 397 34 l 1
 353 1 312 -15 260 -15 c 0
 131 -15 32 84 32 211 c 0
 32 340 131 437 260 437 c 0
 313 437 360 420 397 388 c 1xdc
263 340 m 0xdc
 189 340 129 283 129 211 c 0
 129 140 189 84 263 84 c 0
 336 84 397 140 397 210 c 0
 397 283 339 340 263 340 c 0xdc
EndSplineSet
KernsSLIF: 351 -2 0 0 352 -2 0 0 108 -42 0 0 335 1 0 0 101 1 0 0 328 -5 0 0 241 28 0 0 322 -5 0 0 97 -5 0 0
EndChar
StartChar: h
Encoding: 104 104 73
Width: 578
Flags: W
HStem: 0 97<86 92 189 205 391 396 491 509> 339 97<310 333> 508 96<77 92>
VStem: 92 97<96 274 97 604> 396 96<96 277>
Fore
189 604 m 1
 189 378 l 1
 228 417 271 436 322 436 c 0
 425 436 492 371 492 275 c 2
 492 97 l 1
 499 97 l 2
 525 97 534 95 543 88 c 0
 555 78 563 64 563 48 c 0
 563 32 554 16 539 7 c 0
 532 2 519 0 499 0 c 2
 391 0 l 2
 367 0 356 2 346 8 c 1
 332 19 326 33 326 48 c 0
 326 65 334 81 349 90 c 0
 357 95 365 97 391 97 c 2
 396 97 l 1
 396 263 l 2
 396 295 392 307 376 321 c 0
 360 334 341 339 312 339 c 0
 265 339 244 329 189 274 c 1
 189 97 l 1
 195 97 l 2
 222 97 229 95 240 88 c 1
 252 78 260 64 260 48 c 0
 260 32 250 16 236 7 c 0
 228 2 215 0 195 0 c 2
 86 0 l 2
 64 0 51 2 43 8 c 0
 31 19 22 34 22 48 c 0
 22 65 31 81 46 90 c 0
 54 95 62 97 86 97 c 2
 92 97 l 1
 92 508 l 1
 77 508 l 2
 51 508 40 508 32 516 c 1
 20 525 12 542 12 556 c 0
 12 573 22 589 35 598 c 0
 45 604 53 604 77 604 c 2
 189 604 l 1
EndSplineSet
KernsSLIF: 121 -28 0 0 39 -86 0 0
EndChar
StartChar: i
Encoding: 105 105 74
Width: 578
Flags: W
HStem: 0 97<123 242 338 477> 326 97<167 242> 503 101<260 321>
VStem: 242 97<96 423 522 593>
Fore
339 585 m 2
 339 522 l 2
 339 508 332 503 319 503 c 2
 260 503 l 2
 247 503 242 511 242 522 c 2
 242 585 l 2
 242 598 250 604 260 604 c 2
 319 604 l 2
 332 604 339 600 339 585 c 2
339 423 m 1
 339 97 l 1
 457 97 l 2
 484 97 491 95 501 88 c 0
 513 78 521 64 521 48 c 0
 521 32 512 16 499 7 c 0
 491 2 477 0 457 0 c 2
 123 0 l 2
 102 0 88 2 81 9 c 1
 68 19 60 33 60 48 c 0
 60 65 70 81 84 90 c 1
 92 97 99 97 123 97 c 2
 242 97 l 1
 242 326 l 1
 167 326 l 2
 143 326 131 329 122 336 c 0
 109 345 102 360 102 375 c 0
 102 391 110 408 125 417 c 0
 133 422 141 423 167 423 c 2
 339 423 l 1
EndSplineSet
KernsSLIF: 106 -179 0 0 84 -72 0 0
EndChar
StartChar: j
Encoding: 106 106 75
Width: 578
Flags: W
HStem: -198 96<177 291> 326 97<180 376> 503 101<369 434>
VStem: 349 97<522 587> 376 97<-19 326>
Fore
446 585 m 2xf0
 446 522 l 2
 446 508 441 503 427 503 c 2
 369 503 l 2
 356 503 349 511 349 522 c 2
 349 585 l 2
 349 598 357 604 369 604 c 2
 427 604 l 2
 441 604 446 600 446 585 c 2xf0
376 326 m 1xe8
 180 326 l 2
 156 326 146 329 136 336 c 0
 123 345 116 361 116 375 c 0
 116 391 125 408 140 417 c 0
 148 422 155 423 180 423 c 2
 473 423 l 1
 473 -19 l 2
 473 -121 394 -198 288 -198 c 2
 177 -198 l 2
 153 -198 143 -197 133 -189 c 0
 121 -180 113 -164 113 -150 c 0
 113 -133 123 -117 136 -108 c 0
 146 -102 153 -102 177 -102 c 2
 285 -102 l 2
 340 -102 376 -70 376 -19 c 2
 376 326 l 1xe8
EndSplineSet
EndChar
StartChar: k
Encoding: 107 107 76
Width: 578
Flags: W
HStem: 0 97<97 112 455 509> 326 97<334 458> 508 96<97 112>
VStem: 112 96<96 159 97 604>
DStem: 226 172 301 234 326 84 456 97 285 339 415 326 208 277 301 234
Fore
208 159 m 1
 208 0 l 1
 97 0 l 2
 53 0 32 16 32 48 c 0
 32 65 40 81 55 90 c 1
 64 97 71 97 97 97 c 2
 112 97 l 1
 112 508 l 1
 97 508 l 2
 71 508 61 508 51 516 c 0
 40 525 32 541 32 556 c 0
 32 573 40 589 55 598 c 0
 64 604 73 604 97 604 c 2
 208 604 l 1
 208 277 l 1
 285 339 l 1
 273 353 270 361 270 375 c 0
 270 391 277 407 293 417 c 0
 299 420 312 423 334 423 c 2
 443 423 l 2
 467 423 477 420 487 415 c 1
 500 404 507 391 507 375 c 0
 507 358 499 343 484 332 c 1
 477 329 466 326 443 326 c 2
 415 326 l 1
 301 234 l 1
 456 97 l 1
 488 97 l 2
 515 97 523 95 533 88 c 0
 546 78 554 64 554 48 c 0
 554 32 544 16 530 7 c 0
 522 2 508 0 488 0 c 2
 374 0 l 2
 332 0 310 16 310 48 c 0
 310 62 314 71 326 84 c 1
 226 172 l 1
 208 159 l 1
EndSplineSet
KernsSLIF: 362 -2 0 0 117 -2 0 0 115 -10 0 0 46 -94 0 0 351 -20 0 0 352 -20 0 0 111 -20 0 0 45 -61 0 0 103 -19 0 0 335 -14 0 0 101 -14 0 0 44 -78 0 0 328 1 0 0 241 30 0 0 322 1 0 0 323 1 0 0 97 1 0 0
EndChar
StartChar: l
Encoding: 108 108 77
Width: 578
Flags: W
HStem: 0 97<123 242 338 477> 508 96<140.134 242>
VStem: 242 97<96 604>
Fore
339 604 m 1
 339 97 l 1
 457 97 l 2
 484 97 491 95 501 88 c 0
 513 78 521 64 521 48 c 0
 521 32 512 16 499 7 c 0
 491 2 477 0 457 0 c 2
 123 0 l 2
 102 0 88 2 81 9 c 1
 68 19 60 34 60 48 c 0
 60 65 70 81 84 90 c 1
 92 97 99 97 123 97 c 2
 242 97 l 1
 242 508 l 1
 167 508 l 2
 143 508 131 508 122 518 c 1
 108 525 102 541 102 556 c 0
 102 574 110 589 125 598 c 0
 133 604 143 604 167 604 c 2
 339 604 l 1
EndSplineSet
KernsSLIF: 121 -95 0 0 118 -95 0 0
EndChar
StartChar: m
Encoding: 109 109 78
Width: 578
Flags: W
HStem: 0 97<24 47 132 151.378 335 350 539 549> 339 97<204 221 412 420>
VStem: 40 96<96 295> 244 97<0 295> 244 154<0 51> 450 96<0 311> 450 154<0 51>
Fore
136 423 m 1xe8
 136 400 l 1
 170 427 191 436 219 436 c 0
 257 436 290 420 318 388 c 1
 348 420 379 436 418 436 c 0
 491 436 546 381 546 309 c 2
 546 97 l 1xec
 582 97 604 81 604 48 c 0xe2
 604 16 582 0 539 0 c 2
 450 0 l 1
 450 301 l 2
 450 329 440 339 415 339 c 0
 389 339 374 330 341 295 c 1
 341 97 l 1xf4
 378 97 398 78 398 48 c 0xe8
 398 32 391 16 376 7 c 0
 368 2 356 0 335 0 c 2
 244 0 l 1xf0
 244 301 l 2
 244 329 234 339 210 339 c 0
 185 339 166 329 136 295 c 1
 136 97 l 1
 174 97 195 81 195 48 c 0
 195 32 187 16 172 7 c 0
 164 2 152 0 132 0 c 2
 47 0 l 2
 23 0 11 2 2 9 c 0
 -11 19 -19 34 -19 48 c 0
 -19 81 2 97 40 97 c 1
 40 326 l 1
 2 329 -19 345 -19 375 c 0
 -19 400 -2 418 26 420 c 1
 37 423 39 423 47 423 c 2
 136 423 l 1xe8
EndSplineSet
KernsSLIF: 121 10 0 0 119 28 0 0 118 21 0 0 112 40 0 0
EndChar
StartChar: n
Encoding: 110 110 79
Width: 578
Flags: W
HStem: 0 97<86 92 189 215 389 403 494 509.407> 339 97<308 327>
VStem: 92 97<96 273> 397 97<96 275>
Fore
189 423 m 1
 189 378 l 1
 236 420 268 436 322 436 c 0
 365 436 404 423 437 400 c 0
 477 371 494 330 494 273 c 2
 494 97 l 1
 532 97 554 81 554 48 c 0
 554 32 544 16 530 7 c 0
 522 2 508 0 489 0 c 2
 403 0 l 2
 360 0 339 16 339 48 c 0
 339 81 360 97 397 97 c 1
 397 270 l 2
 397 316 370 339 310 339 c 0
 265 339 234 322 189 273 c 1
 189 97 l 1
 195 97 l 2
 221 97 228 95 239 88 c 1
 250 78 259 64 259 48 c 0
 259 32 250 16 236 7 c 0
 228 2 215 0 195 0 c 2
 86 0 l 2
 64 0 51 2 40 9 c 1
 31 19 22 34 22 48 c 0
 22 65 31 81 46 90 c 0
 54 95 62 97 86 97 c 2
 92 97 l 1
 92 326 l 1
 54 329 33 345 33 375 c 0
 33 401 50 418 78 420 c 1
 88 423 90 423 98 423 c 2
 189 423 l 1
EndSplineSet
KernsSLIF: 121 -28 0 0 119 -6 0 0 118 -15 0 0 39 -85 0 0 112 5 0 0 84 -50 0 0
EndChar
StartChar: o
Encoding: 111 111 80
Width: 578
Flags: W
HStem: -16 97<291 297> 339 97<279 313>
VStem: 40 98<194.764 225> 443 98<194.561 225>
Fore
294 436 m 0
 430 436 541 335 541 210 c 0
 541 84 430 -16 291 -16 c 0
 152 -16 40 84 40 210 c 0
 40 339 150 436 294 436 c 0
293 339 m 0
 205 339 138 283 138 210 c 0
 138 138 205 81 291 81 c 0
 378 81 443 138 443 210 c 0
 443 282 378 339 293 339 c 0
EndSplineSet
KernsSLIF: 121 -20 0 0 120 -11 0 0 119 -2 0 0 118 -7 0 0 116 -15 0 0 39 -77 0 0 84 -40 0 0
EndChar
StartChar: p
Encoding: 112 112 81
Width: 578
Flags: W
HStem: -198 96<56 71 169 249> 9 98<295 329> 326 97<56 71> 339 97<291 329>
VStem: 71 98<-103 64 -102 235> 456 98<216 235>
Fore
169 64 m 1xdc
 169 -102 l 1
 225 -102 l 2
 250 -102 260 -104 270 -110 c 1
 282 -120 290 -136 290 -150 c 0
 290 -167 280 -182 265 -192 c 0
 257 -197 246 -198 225 -198 c 2
 56 -198 l 2
 32 -198 22 -197 12 -189 c 0
 0 -180 -8 -166 -8 -150 c 0
 -8 -133 1 -117 16 -108 c 0
 24 -102 33 -102 56 -102 c 2
 71 -102 l 1
 71 326 l 1
 56 326 l 2
 31 326 22 329 12 335 c 1
 0 345 -8 360 -8 375 c 0
 -8 391 1 408 16 417 c 1
 24 420 33 423 56 423 c 2
 169 423 l 1xec
 169 380 l 1
 216 420 257 436 316 436 c 0
 453 436 554 342 554 218 c 0
 554 98 453 9 319 9 c 0
 260 9 219 24 169 64 c 1xdc
313 339 m 0xdc
 273 339 240 330 215 312 c 0
 187 291 169 255 169 224 c 0
 169 155 228 107 313 107 c 0
 396 107 456 155 456 224 c 0
 456 255 437 291 411 312 c 1
 384 330 353 339 313 339 c 0xdc
EndSplineSet
KernsSLIF: 121 -7 0 0 116 -2 0 0
EndChar
StartChar: q
Encoding: 113 113 82
Width: 578
Flags: W
HStem: -198 96<361 417 515 545> 9 98<255 289> 326 97<418 545> 339 97<255 289>
VStem: 32 97<216 235> 418 97<-103 326> 418 176<375 382>
Fore
418 -102 m 1xec
 418 64 l 1
 367 24 324 9 267 9 c 0
 132 9 32 98 32 218 c 0
 32 343 133 436 268 436 c 0xdc
 329 436 370 420 418 380 c 1
 418 423 l 1
 530 423 l 2
 556 423 565 420 574 415 c 1
 587 404 594 391 594 375 c 0xea
 594 358 585 342 570 332 c 1
 563 329 552 326 530 326 c 2
 515 326 l 1
 515 -102 l 1xec
 530 -102 l 2
 556 -102 565 -104 574 -110 c 0
 587 -120 594 -136 594 -150 c 0xea
 594 -167 585 -182 570 -192 c 0
 563 -197 551 -198 530 -198 c 2
 361 -198 l 2
 337 -198 326 -197 316 -189 c 0
 304 -178 298 -166 298 -150 c 0
 298 -133 306 -117 321 -108 c 0
 329 -104 339 -102 361 -102 c 2
 418 -102 l 1xec
273 339 m 0
 232 339 202 329 175 312 c 1
 147 290 129 255 129 224 c 0
 129 191 147 156 175 136 c 1
 200 116 232 107 273 107 c 0
 314 107 347 116 371 136 c 1
 398 156 418 191 418 222 c 0
 418 291 358 339 273 339 c 0
EndSplineSet
KernsSLIF: 117 51 0 0 99 2 0 0
EndChar
StartChar: r
Encoding: 114 114 83
Width: 578
Flags: W
HStem: 0 97<116 172 270 420> 326 97<139 172> 339 96<418 436>
VStem: 172 98<96 240>
Fore
270 423 m 1xd0
 270 361 l 1
 347 418 384 435 431 435 c 0
 466 435 496 423 525 398 c 0
 546 381 554 370 554 353 c 0
 554 326 532 303 505 303 c 0
 491 303 482 308 467 321 c 0
 453 332 443 339 429 339 c 0xb0
 398 339 361 315 270 240 c 1
 270 97 l 1
 404 97 l 2
 431 97 439 95 450 88 c 1
 461 78 469 64 469 48 c 0
 469 32 460 16 446 7 c 0
 439 2 425 0 404 0 c 2
 116 0 l 2
 94 0 81 2 71 9 c 1
 60 19 51 34 51 48 c 0
 51 65 61 81 76 90 c 1
 84 97 90 97 116 97 c 2
 172 97 l 1
 172 326 l 1
 139 326 l 2
 115 326 104 329 95 336 c 0
 82 345 74 360 74 375 c 0
 74 391 84 407 98 415 c 1
 104 420 122 423 139 423 c 2
 270 423 l 1xd0
EndSplineSet
KernsSLIF: 122 -25 0 0 121 20 0 0 120 9 0 0 119 30 0 0 118 30 0 0 117 24 0 0 116 24 0 0 59 -104 0 0 115 -25 0 0 114 -14 0 0 39 -51 0 0 113 -5 0 0 46 -153 0 0 112 37 0 0 249 -15 0 0 353 -15 0 0 250 21 0 0 351 -15 0 0 354 -15 0 0 352 -15 0 0 111 -15 0 0 110 11 0 0 109 45 0 0 108 -59 0 0 107 -37 0 0 106 -41 0 0 105 -30 0 0 45 -51 0 0 104 -24 0 0 103 -6 0 0 102 -20 0 0 336 -9 0 0 337 -9 0 0 335 -9 0 0 101 -9 0 0 100 -10 0 0 44 -135 0 0 58 -118 0 0 332 -19 0 0 99 -21 0 0 328 -20 0 0 324 -20 0 0 241 5 0 0 322 -20 0 0 325 -20 0 0 323 -20 0 0 97 -20 0 0
EndChar
StartChar: s
Encoding: 115 115 84
Width: 578
Flags: W
HStem: -16 97<278 312> 1 161<109.816 123> 339 97<278 312>
VStem: 89 106<300 308> 404 107<117 129>
Fore
396 302 m 2xb8
 391 312 l 1
 364 330 332 339 291 339 c 0
 242 339 195 322 195 306 c 0
 195 296 205 288 221 282 c 0
 234 277 240 276 302 267 c 0
 375 257 414 247 443 231 c 0
 485 208 511 166 511 121 c 0
 511 40 419 -16 294 -16 c 0xb8
 240 -16 191 -6 152 12 c 1
 140 4 133 1 120 1 c 0
 102 1 87 8 78 24 c 0
 73 33 71 40 71 65 c 2
 71 97 l 2
 71 123 73 132 81 141 c 1
 90 155 104 162 120 162 c 0x78
 146 162 161 148 170 119 c 1
 198 94 239 81 291 81 c 0
 353 81 404 101 404 123 c 0
 404 136 391 149 371 156 c 1
 356 164 334 169 282 172 c 1
 146 188 89 226 89 303 c 0
 89 381 172 436 290 436 c 0
 336 436 376 428 414 411 c 1
 420 429 430 436 445 436 c 0
 477 436 490 417 490 371 c 2
 490 336 l 2
 490 312 488 301 482 291 c 1
 472 280 456 273 442 273 c 0
 420 273 408 281 396 302 c 2xb8
EndSplineSet
KernsSLIF: 116 -14 0 0 39 -73 0 0
EndChar
StartChar: t
Encoding: 116 116 85
Width: 578
Flags: W
HStem: -16 97<267.132 301> 326 97<77 111 208 397>
VStem: 110 98<114 326 422 529>
Fore
208 326 m 1
 208 136 l 2
 208 116 209 107 215 101 c 0
 226 88 254 81 291 81 c 0
 342 81 388 92 433 115 c 0
 450 123 456 125 466 125 c 0
 492 125 512 102 512 76 c 0
 512 51 501 40 464 23 c 0
 417 1 340 -16 290 -16 c 0
 178 -16 110 35 110 119 c 2
 110 326 l 1
 77 326 l 2
 51 326 40 329 32 336 c 0
 20 345 12 361 12 375 c 0
 12 391 22 408 35 417 c 1
 45 422 51 423 77 423 c 2
 110 423 l 1
 110 508 l 2
 110 534 113 543 120 554 c 1
 129 565 143 573 159 573 c 0
 175 573 192 565 202 549 c 0
 208 541 208 534 208 508 c 2
 208 423 l 1
 381 423 l 2
 409 423 417 420 427 415 c 1
 439 404 446 391 446 375 c 0
 446 358 437 342 423 332 c 1
 415 329 404 326 381 326 c 2
 208 326 l 1
EndSplineSet
KernsSLIF: 59 -129 0 0 39 -127 0 0 351 -37 0 0 352 -37 0 0 111 -37 0 0 104 -6 0 0 335 -29 0 0 101 -29 0 0 58 -145 0 0 328 -20 0 0 241 10 0 0 322 -20 0 0 323 -20 0 0 97 -20 0 0 83 -43 0 0
EndChar
StartChar: u
Encoding: 117 117 86
Width: 578
Flags: W
HStem: -12 96<262 285> 0 97<489 509.435> 326 97<363 397>
VStem: 92 97<147 329> 397 97<149 423> 397 157<0 48>
Fore
494 423 m 1xb8
 494 97 l 1x78
 532 97 554 81 554 48 c 0
 554 32 544 16 530 7 c 0
 522 2 508 0 489 0 c 2
 397 0 l 1
 397 47 l 1x74
 349 1 318 -12 264 -12 c 0
 221 -12 180 0 149 23 c 0
 110 51 92 94 92 152 c 2
 92 329 l 1
 77 329 l 1
 66 326 l 1
 37 325 12 347 12 375 c 0
 12 391 22 408 35 417 c 1
 45 422 51 423 77 423 c 2
 189 423 l 1
 189 154 l 2
 189 107 216 84 274 84 c 0
 322 84 347 97 397 150 c 1
 397 326 l 1
 363 326 l 2
 339 326 329 329 319 336 c 0
 307 345 299 361 299 375 c 0
 299 391 308 408 322 417 c 0
 332 422 340 423 363 423 c 2
 494 423 l 1xb8
EndSplineSet
KernsSLIF: 39 -69 0 0
EndChar
StartChar: v
Encoding: 118 118 87
Width: 578
Flags: W
HStem: 0 21G<240 340> 326 97<64 78 64 209 387 396 387 529>
DStem: 78 326 187 326 240 0 293 119 396 326 502 326 293 119 340 0
Fore
293 119 m 1
 396 326 l 1
 387 326 l 2
 363 326 352 329 343 335 c 0
 330 345 322 360 322 375 c 0
 322 391 332 408 346 417 c 1
 356 420 363 423 387 423 c 2
 518 423 l 2
 542 423 552 420 562 415 c 1
 574 404 581 391 581 375 c 0
 581 358 573 342 558 332 c 1
 550 329 539 326 518 326 c 2
 502 326 l 1
 340 0 l 1
 240 0 l 1
 78 326 l 1
 64 326 l 2
 40 326 29 329 20 335 c 0
 8 345 0 360 0 375 c 0
 0 391 8 408 23 417 c 1
 32 420 40 423 64 423 c 2
 192 423 l 2
 218 423 226 420 236 415 c 1
 248 404 257 391 257 375 c 0
 257 358 247 342 232 332 c 1
 225 329 214 326 192 326 c 2
 187 326 l 1
 293 119 l 1
EndSplineSet
KernsSLIF: 59 -86 0 0 115 -14 0 0 46 -196 0 0 249 -6 0 0 353 -6 0 0 351 -6 0 0 352 -6 0 0 111 -6 0 0 108 -95 0 0 45 -28 0 0 103 1 0 0 44 -170 0 0 58 -100 0 0 99 -14 0 0 327 -2 0 0 328 -2 0 0 324 -2 0 0 241 21 0 0 322 -2 0 0 325 -2 0 0 323 -2 0 0 97 -2 0 0
EndChar
StartChar: w
Encoding: 119 119 88
Width: 578
Flags: W
HStem: 0 21G<136 226 361 450> 329 94<153 173.991 427 433 518 534>
VStem: 0 218<375 385> 363 218<375 377>
DStem: 51 329 155 329 136 0 193 178 434 329 532 329 395 178 450 0
Fore
291 175 m 1
 226 0 l 1
 136 0 l 1
 51 329 l 1
 19 329 0 347 0 375 c 0
 0 401 16 418 43 420 c 1
 55 423 56 423 64 423 c 2
 153 423 l 2
 178 423 188 420 198 415 c 1
 209 404 218 391 218 375 c 0
 218 358 208 343 195 334 c 0
 187 329 178 329 155 329 c 1
 193 178 l 1
 250 332 l 1
 336 332 l 1
 395 178 l 1
 434 329 l 1
 427 329 l 2
 402 329 392 329 384 336 c 0
 371 345 363 361 363 375 c 0
 363 389 371 404 384 414 c 0
 391 420 407 423 427 423 c 2
 518 423 l 2
 542 423 552 420 561 415 c 1
 574 404 581 391 581 375 c 0
 581 347 563 329 532 329 c 1
 450 0 l 1
 361 0 l 1
 291 175 l 1
EndSplineSet
KernsSLIF: 59 -86 0 0 115 -14 0 0 46 -135 0 0 249 2 0 0 353 -2 0 0 351 -2 0 0 352 -2 0 0 111 -2 0 0 108 -60 0 0 45 2 0 0 103 2 0 0 336 2 0 0 337 2 0 0 335 2 0 0 101 2 0 0 44 -112 0 0 58 -100 0 0 99 -7 0 0 327 -2 0 0 328 -2 0 0 324 -2 0 0 241 28 0 0 322 -2 0 0 325 -2 0 0 323 -2 0 0 97 -2 0 0
EndChar
StartChar: x
Encoding: 120 120 89
Width: 578
Flags: W
HStem: 0 21G<84 192 388 497>
Fore
361 220 m 1
 508 97 l 1
 542 95 561 78 561 48 c 0
 561 32 551 16 538 7 c 0
 530 2 518 0 497 0 c 2
 388 0 l 2
 364 0 353 2 343 9 c 0
 330 19 324 33 324 50 c 0
 324 71 339 90 363 97 c 1
 290 156 l 1
 219 97 l 1
 246 86 257 73 257 50 c 0
 257 16 234 0 192 0 c 2
 84 0 l 2
 40 0 20 16 20 48 c 0
 20 78 40 95 73 97 c 1
 213 221 l 1
 89 326 l 1
 57 329 39 347 39 375 c 0
 39 401 55 418 82 420 c 1
 94 423 95 423 102 423 c 2
 192 423 l 2
 218 423 226 420 236 414 c 1
 248 404 257 391 257 376 c 0
 257 358 247 342 231 332 c 1
 290 283 l 1
 349 332 l 1
 330 345 324 357 324 374 c 0
 324 401 340 418 367 420 c 1
 379 423 380 423 388 423 c 2
 477 423 l 2
 501 423 511 420 519 415 c 0
 533 404 541 391 541 375 c 0
 541 347 522 329 489 326 c 1
 361 220 l 1
EndSplineSet
KernsSLIF: 113 -10 0 0 111 -11 0 0 335 -6 0 0 101 -6 0 0 99 -19 0 0 97 6 0 0
EndChar
StartChar: y
Encoding: 121 121 90
Width: 578
Flags: W
HStem: -198 96<84 182 288 309> 326 97<402 408>
VStem: 20 216<364.401 378>
DStem: 68 326 178 326 234 2 290 110 234 2 511 326 181 -102 288 -102 404 326 511 326 290 110 288 -102
Fore
234 2 m 1
 68 326 l 1
 38 330 20 348 20 375 c 0
 20 401 37 418 65 420 c 1
 76 423 78 423 84 423 c 2
 171 423 l 2
 197 423 208 420 216 415 c 1
 228 404 236 391 236 375 c 0
 236 345 215 329 178 326 c 1
 290 110 l 1
 404 326 l 1
 365 326 343 345 343 375 c 0
 343 401 360 418 388 420 c 1
 398 423 400 423 408 423 c 2
 497 423 l 2
 522 423 532 420 541 415 c 1
 554 404 561 391 561 375 c 0
 561 347 542 329 511 326 c 1
 288 -102 l 1
 293 -102 l 2
 318 -102 329 -104 337 -110 c 0
 349 -120 356 -136 356 -150 c 0
 356 -167 348 -182 332 -192 c 0
 326 -197 314 -198 293 -198 c 2
 84 -198 l 2
 60 -198 50 -197 40 -189 c 0
 28 -180 20 -166 20 -150 c 0
 20 -133 29 -117 43 -108 c 0
 51 -104 61 -102 84 -102 c 2
 181 -102 l 1
 234 2 l 1
EndSplineSet
MinimumDistance: x11,16 x2,7 
KernsSLIF: 59 -99 0 0 115 -25 0 0 46 -193 0 0 249 -19 0 0 353 -19 0 0 351 -19 0 0 352 -19 0 0 111 -19 0 0 108 -98 0 0 45 -24 0 0 103 -10 0 0 336 -14 0 0 337 -14 0 0 335 -14 0 0 101 -14 0 0 44 -166 0 0 58 -113 0 0 99 -25 0 0 327 -15 0 0 328 -15 0 0 324 -15 0 0 241 10 0 0 322 -15 0 0 325 -15 0 0 323 -15 0 0 97 -15 0 0
EndChar
StartChar: z
Encoding: 122 122 91
Width: 578
Flags: W
HStem: 0 97<236 503> 0 149<449 503> 326 97<94 335>
VStem: 94 97<318 326>
DStem: 335 326 490 345 82 81 236 97
Fore
236 97 m 1xb0
 406 97 l 1xb0
 408 131 425 149 453 149 c 0x70
 470 149 487 140 496 126 c 0
 502 117 503 110 503 86 c 2
 503 0 l 1xb0
 82 0 l 1x70
 82 81 l 1
 335 326 l 1
 191 326 l 1
 191 318 l 2
 191 291 189 283 182 274 c 0
 172 260 158 254 143 254 c 0
 126 254 109 263 101 277 c 0
 97 286 94 295 94 318 c 2
 94 423 l 1
 490 423 l 1
 490 345 l 1
 236 97 l 1xb0
EndSplineSet
EndChar
StartChar: braceleft
Encoding: 123 123 92
Width: 578
Flags: W
HStem: 505 99<363 371>
VStem: 240 97<-24 157 302.811 479>
Fore
337 470 m 2
 337 318 l 2
 337 276 332 260 309 232 c 1
 332 205 337 188 337 138 c 2
 337 -15 l 2
 337 -40 345 -48 371 -50 c 0
 400 -51 419 -73 419 -100 c 0
 419 -129 398 -148 365 -148 c 0
 298 -148 240 -90 240 -22 c 2
 240 146 l 2
 240 172 234 180 209 183 c 0
 178 187 162 203 162 232 c 0
 162 260 178 277 209 281 c 0
 234 283 240 291 240 318 c 2
 240 477 l 2
 240 546 298 604 365 604 c 0
 398 604 419 584 419 555 c 0
 419 528 400 508 371 505 c 1
 345 505 337 496 337 470 c 2
EndSplineSet
EndChar
StartChar: bar
Encoding: 124 124 93
Width: 578
Flags: W
HStem: 584 20G<283 299>
VStem: 242 97<-84 557>
Fore
339 539 m 2
 339 -84 l 2
 339 -108 337 -119 330 -128 c 0
 321 -140 306 -148 291 -148 c 0
 274 -148 259 -140 249 -125 c 0
 244 -117 242 -107 242 -84 c 2
 242 539 l 2
 242 565 244 574 250 583 c 0
 260 595 275 604 291 604 c 0
 307 604 324 594 332 580 c 0
 337 570 339 562 339 539 c 2
EndSplineSet
EndChar
StartChar: braceright
Encoding: 125 125 94
Width: 578
Flags: W
HStem: -148 98<209 218> 584 20G<199 249>
VStem: 244 97<-24 140 299 479>
Fore
244 -15 m 2
 244 138 l 2
 244 178 250 195 273 224 c 1
 249 250 244 267 244 318 c 2
 244 470 l 2
 244 496 236 503 209 505 c 0
 181 508 162 528 162 555 c 0
 162 584 183 604 215 604 c 0
 283 604 341 546 341 477 c 2
 341 309 l 2
 341 282 347 275 371 273 c 1
 403 268 419 252 419 224 c 0
 419 195 403 177 371 174 c 0
 347 171 341 164 341 138 c 2
 341 -22 l 2
 341 -90 283 -148 216 -148 c 0
 183 -148 162 -129 162 -100 c 0
 162 -73 181 -51 209 -50 c 0
 236 -50 244 -40 244 -15 c 2
EndSplineSet
EndChar
StartChar: asciitilde
Encoding: 126 126 95
Width: 578
Flags: W
Fore
473 353 m 0
 499 353 521 330 521 304 c 0
 521 285 513 271 482 234 c 0
 446 191 417 172 379 172 c 0
 341 172 304 194 246 246 c 0
 226 264 213 273 205 273 c 0
 195 273 186 264 160 232 c 0
 136 202 127 195 109 195 c 0
 84 195 60 218 60 244 c 0
 60 263 70 281 98 312 c 0
 136 356 167 373 208 373 c 0
 247 373 273 358 339 298 c 0
 356 283 368 275 378 275 c 0
 388 275 400 288 425 319 c 1
 443 346 453 353 473 353 c 0
EndSplineSet
EndChar
StartChar: exclamdown
Encoding: 161 161 96
Width: 578
Flags: W
HStem: 285 127<283 310>
Fore
215 -110 m 1
 243 177 l 2
 246 208 264 225 291 225 c 0
 318 225 336 208 339 177 c 2
 367 -110 l 1
 368 -123 369 -136 369 -143 c 0
 369 -187 336 -220 291 -220 c 0
 246 -220 213 -187 213 -143 c 0
 213 -136 214 -122 215 -110 c 1
283 412 m 2
 299 412 l 2
 335 412 363 384 363 349 c 0
 363 313 335 285 299 285 c 2
 283 285 l 2
 247 285 218 313 218 349 c 0
 218 384 247 412 283 412 c 2
EndSplineSet
EndChar
StartChar: cent
Encoding: 162 162 97
Width: 578
Flags: W
HStem: -43 234<288 301> 322 169<428 437> 414 226<291 310>
VStem: 81 96<292 310> 243 97<22 97 501 598>
Fore
340 97 m 1xb8
 340 22 l 2
 340 -5 339 -12 332 -22 c 0
 322 -35 307 -43 291 -43 c 0
 275 -43 260 -34 250 -19 c 0
 244 -12 243 -1 243 22 c 2
 243 100 l 1
 143 123 81 202 81 302 c 0
 81 396 147 477 243 501 c 1
 243 574 l 2
 243 601 244 611 253 620 c 1
 263 634 276 640 291 640 c 0xb8
 308 640 325 632 332 617 c 1
 339 608 340 601 340 574 c 2
 340 511 l 1
 370 505 391 499 411 487 c 1
 419 490 425 491 430 491 c 0
 448 491 463 482 473 468 c 0
 479 460 480 453 480 427 c 2
 480 387 l 2
 480 361 477 353 470 343 c 0
 461 330 446 322 431 322 c 0xd8
 419 322 404 329 397 335 c 1
 391 343 391 343 381 371 c 1
 376 401 353 414 310 414 c 0
 234 414 177 365 177 299 c 0
 177 240 231 191 299 191 c 0
 336 191 369 202 402 226 c 0
 414 234 423 237 435 237 c 0
 460 237 484 214 484 188 c 0
 484 147 425 110 340 97 c 1xb8
EndSplineSet
EndChar
StartChar: sterling
Encoding: 163 163 98
Width: 578
Flags: W
HStem: 0 97<240 436> 236 96<97 139 239 321> 482 98<276.014 304>
VStem: 122 97<403.71 432> 164 96<207 225>
Fore
304 236 m 2xf0
 260 236 l 1
 260 209 l 2
 260 167 257 138 240 97 c 1
 436 97 l 1
 440 126 456 141 484 141 c 0
 513 141 533 120 533 87 c 0
 533 31 496 0 428 0 c 2
 117 0 l 2
 95 0 82 2 74 9 c 0
 61 19 53 34 53 50 c 0
 53 76 68 90 102 97 c 0
 126 102 136 109 146 128 c 0
 158 152 164 182 164 218 c 0xe8
 164 220 164 228 162 236 c 1
 97 236 l 2
 71 236 61 237 51 244 c 1
 40 254 32 268 32 283 c 0
 32 299 40 316 55 326 c 0
 64 332 71 332 97 332 c 2
 139 332 l 1
 127 367 122 391 122 418 c 0
 122 512 192 580 290 580 c 0
 365 580 443 529 443 480 c 0
 443 453 420 430 395 430 c 0
 378 430 371 433 349 457 c 0
 334 474 315 482 290 482 c 0
 249 482 219 457 219 423 c 0
 219 403 219 401 239 332 c 1
 304 332 l 2
 330 332 339 330 349 324 c 1
 361 314 369 299 369 283 c 0
 369 267 361 252 346 242 c 0
 337 237 329 236 304 236 c 2xf0
EndSplineSet
EndChar
StartChar: fraction
Encoding: 164 8260 99
Width: 578
Flags: W
DStem: 474 468 525 386 56 198 108 115
Fore
525 386 m 2
 108 115 l 2
 90 104 78 99 68 99 c 0
 43 99 20 123 20 149 c 0
 20 170 28 178 56 198 c 1
 474 468 l 1
 494 482 502 484 515 484 c 0
 539 484 562 461 562 435 c 0
 562 415 554 404 525 386 c 2
EndSplineSet
EndChar
StartChar: yen
Encoding: 165 165 100
Width: 578
Flags: W
HStem: 0 97<179 241 339 389> 131 54<138.381 241 339 437> 218 55<138.359 218 363 437> 466 96<81 85>
VStem: 345 216<503.722 516>
DStem: 84 466 202 467 218 273 291 337 384 466 499 466 291 337 363 273
Fore
291 337 m 1
 384 466 l 1
 358 473 345 490 345 513 c 0
 345 530 353 546 367 555 c 0
 376 561 384 562 409 562 c 2
 497 562 l 2
 524 562 532 560 541 554 c 0
 554 543 561 529 561 513 c 0
 561 497 552 482 538 472 c 0
 533 469 505 463 499 466 c 1
 499 466 l 1
 363 273 l 1
 433 273 l 2
 453 273 463 263 463 244 c 0
 463 228 453 218 433 218 c 2
 339 218 l 1
 339 185 l 1
 433 185 l 2
 453 185 463 175 463 158 c 0
 463 140 453 131 433 131 c 2
 339 131 l 1
 339 97 l 1
 384 97 l 2
 411 97 418 95 428 88 c 0
 442 78 450 64 450 48 c 0
 450 16 427 0 384 0 c 2
 197 0 l 2
 174 0 161 2 153 9 c 0
 140 19 133 34 133 48 c 0
 133 65 141 81 156 90 c 1
 164 97 172 97 198 97 c 2
 242 97 l 1
 242 131 l 1
 148 131 l 2
 129 131 119 140 119 158 c 0
 119 175 129 185 148 185 c 2
 242 185 l 1
 242 218 l 1
 148 218 l 2
 129 218 119 228 119 244 c 0
 119 263 128 273 148 273 c 2
 218 273 l 1
 84 466 l 1
 81 466 l 2
 47 462 20 484 20 513 c 0
 20 530 29 546 43 555 c 0
 51 561 59 562 84 562 c 2
 172 562 l 2
 202 562 208 560 219 552 c 0
 232 542 239 529 239 513 c 0
 239 490 224 470 202 467 c 1
 291 337 l 1
EndSplineSet
EndChar
StartChar: florin
Encoding: 166 402 101
Width: 578
Flags: W
HStem: -119 97<166 184> 294 97<191 246 343 418> 521 97<406 424>
VStem: 246 97<64 294 390 448>
Fore
343 391 m 1
 398 391 l 2
 427 391 433 391 443 381 c 1
 456 373 463 358 463 343 c 0
 463 326 453 310 440 301 c 0
 433 296 420 294 398 294 c 2
 343 294 l 1
 343 64 l 2
 343 -40 270 -119 172 -119 c 0
 99 -119 55 -97 55 -57 c 0
 55 -31 78 -8 102 -8 c 0
 107 -8 110 -9 123 -15 c 1
 140 -19 155 -22 170 -22 c 0
 215 -22 246 12 246 64 c 2
 246 294 l 1
 191 294 l 2
 166 294 155 296 146 303 c 0
 133 313 126 329 126 343 c 0
 126 360 136 376 149 384 c 0
 158 391 164 391 191 391 c 2
 246 391 l 1
 246 445 l 2
 246 541 322 618 415 618 c 0
 487 618 532 596 532 558 c 0
 532 530 511 508 484 508 c 0
 477 508 473 508 461 512 c 0
 446 518 431 521 414 521 c 0
 375 521 343 485 343 442 c 2
 343 391 l 1
EndSplineSet
EndChar
StartChar: section
Encoding: 167 167 102
Width: 578
Flags: W
HStem: -164 83<163 316> -164 176<114 302> 388 177<285 468> 477 88<264 419>
VStem: 35 93<274 285> 78 86<-164 -26> 128 82<418 429> 369 84<-37 -25> 418 85<442 477> 453 93<115 125>
Fore
418 477 m 1x1a80
 277 477 l 2
 240 477 210 453 210 427 c 0
 210 402 244 371 314 332 c 2
 403 282 l 2
 516 219 546 185 546 125 c 0x1240
 546 66 511 24 448 9 c 1
 451 -7 453 -16 453 -27 c 0
 453 -61 440 -90 415 -119 c 0
 387 -152 353 -164 302 -164 c 2x91
 78 -164 l 1
 78 -40 l 2
 78 -6 92 12 121 12 c 0x45
 136 12 150 4 158 -8 c 0
 162 -16 164 -22 164 -40 c 2
 164 -81 l 1
 304 -81 l 2
 339 -81 369 -55 369 -28 c 0
 369 -2 336 28 267 67 c 2
 164 126 l 2x85
 70 181 35 219 35 274 c 0
 35 332 70 371 133 389 c 1
 129 401 128 407 128 418 c 0
 128 453 143 491 169 518 c 1
 198 551 234 565 285 565 c 2xaa
 503 565 l 1x1a80
 503 442 l 2
 503 419 502 414 495 406 c 0
 487 395 474 388 460 388 c 0x2a80
 446 388 431 396 423 408 c 0
 419 415 418 423 418 442 c 2
 418 477 l 1x1a80
360 208 m 1
 264 263 l 2
 231 281 221 288 186 316 c 1
 148 316 128 304 128 283 c 0x0840
 128 257 154 232 211 198 c 1
 312 143 l 1
 363 110 378 100 394 86 c 1
 400 86 l 1
 411 86 l 2
 435 86 453 99 453 117 c 0
 453 140 419 172 360 208 c 1
EndSplineSet
EndChar
StartChar: currency
Encoding: 168 164 103
Width: 578
Flags: W
HStem: 94 97<291 296> 376 97<291 296>
VStem: 102 98<283 287> 381 98<283 287>
Fore
127 376 m 1
 95 407 l 2
 81 420 71 441 71 453 c 0
 71 480 93 503 120 503 c 0
 136 503 143 499 166 477 c 2
 197 448 l 1
 232 467 257 473 291 473 c 0
 326 473 349 466 384 446 c 1
 415 477 l 2
 436 497 443 501 460 501 c 0
 487 501 508 479 508 451 c 0
 508 435 505 428 484 407 c 2
 453 376 l 1
 473 340 479 316 479 283 c 0
 479 249 473 226 453 191 c 1
 485 156 l 1
 505 136 511 128 511 113 c 0
 511 86 487 62 460 62 c 0
 443 62 437 66 415 87 c 2
 381 119 l 1
 348 100 325 94 291 94 c 0
 257 94 234 100 198 119 c 1
 166 88 l 2
 143 66 136 62 120 62 c 0
 93 62 71 84 71 112 c 0
 71 128 74 136 97 156 c 1
 127 191 l 1
 108 226 102 249 102 283 c 0
 102 318 108 341 127 376 c 1
291 376 m 0
 240 376 200 335 200 283 c 0
 200 234 241 191 291 191 c 0
 340 191 381 234 381 283 c 0
 381 335 342 376 291 376 c 0
EndSplineSet
EndChar
StartChar: quotesingle
Encoding: 169 39 104
Width: 578
Flags: W
HStem: 563 20G<228 353>
Fore
228 583 m 1
 353 583 l 1
 322 337 l 1
 319 312 312 302 291 302 c 0
 273 302 264 312 260 336 c 1
 228 583 l 1
EndSplineSet
EndChar
StartChar: quotedblleft
Encoding: 170 8220 105
Width: 578
Flags: W
HStem: 563 20G<95 224 290 417>
Fore
417 583 m 1
 484 381 l 1
 484 378 487 369 487 364 c 0
 487 349 472 337 456 337 c 0
 443 337 436 343 425 361 c 2
 290 583 l 1
 417 583 l 1
224 583 m 1
 290 381 l 2
 291 378 293 369 293 364 c 0
 293 349 277 337 263 337 c 0
 250 337 242 343 232 361 c 1
 95 583 l 1
 224 583 l 1
EndSplineSet
KernsSLIF: 89 -60 1 0 87 -15 1 0 86 -28 1 0 84 -29 1 0 262 -77 1 0 256 -77 1 0 257 -77 1 0 225 -73 1 0 65 -77 1 0
EndChar
StartChar: guillemotleft
Encoding: 171 171 106
Width: 578
Flags: W
Fore
170 211 m 1
 316 74 l 2
 326 65 332 57 332 48 c 0
 332 33 316 19 299 19 c 0
 291 19 286 22 273 32 c 2
 32 211 l 1
 273 389 l 1
 286 400 291 402 299 402 c 0
 316 402 332 388 332 373 c 0
 332 364 329 356 316 347 c 1
 170 211 l 1
391 211 m 1
 538 74 l 1
 549 65 554 57 554 48 c 0
 554 33 539 19 521 19 c 0
 512 19 508 22 494 32 c 2
 254 211 l 1
 494 389 l 2
 508 400 512 402 522 402 c 0
 539 402 554 388 554 373 c 0
 554 364 549 356 538 347 c 1
 391 211 l 1
EndSplineSet
EndChar
StartChar: guilsinglleft
Encoding: 172 8249 107
Width: 578
Flags: W
Fore
170 211 m 1
 316 74 l 2
 326 65 332 57 332 48 c 0
 332 33 316 19 299 19 c 0
 291 19 286 22 273 32 c 2
 32 211 l 1
 273 389 l 1
 286 400 291 402 299 402 c 0
 316 402 332 388 332 373 c 0
 332 364 329 356 316 347 c 1
 170 211 l 1
EndSplineSet
EndChar
StartChar: guilsinglright
Encoding: 173 8250 108
Width: 578
Flags: W
Fore
417 210 m 1
 270 347 l 2
 260 356 255 364 255 373 c 0
 255 388 270 402 287 402 c 0
 295 402 299 400 314 389 c 2
 554 210 l 1
 314 32 l 1
 299 22 295 19 286 19 c 0
 270 19 255 33 255 48 c 0
 255 57 259 65 270 74 c 1
 417 210 l 1
EndSplineSet
KernsSLIF: 89 -114 1 0 87 -36 1 0 86 -90 1 0 84 -90 1 0 262 -45 1 0 256 -45 1 0 257 -45 1 0 225 -42 1 0 65 -45 1 0
EndChar
StartChar: fi
Encoding: 174 64257 109
Width: 578
Flags: W
HStem: 0 97<51 92 189 242 367 404 500 546> 326 97<34.6821 92 189 404> 503 101<420 482>
VStem: 92 97<96 326 422 465> 404 97<96 423 522 587>
Fore
499 585 m 2
 499 522 l 2
 499 508 492 503 480 503 c 2
 420 503 l 2
 407 503 402 511 402 522 c 2
 402 585 l 2
 402 598 411 604 420 604 c 2
 480 604 l 2
 492 604 499 600 499 585 c 2
501 423 m 1
 501 97 l 1
 536 97 l 2
 562 97 570 95 581 88 c 1
 593 78 600 64 600 48 c 0
 600 32 591 16 577 7 c 0
 570 2 555 0 536 0 c 2
 367 0 l 2
 345 0 332 2 322 9 c 0
 310 19 302 33 302 48 c 0
 302 65 312 81 326 90 c 1
 334 97 341 97 367 97 c 2
 404 97 l 1
 404 326 l 1
 189 326 l 1
 189 97 l 1
 221 97 l 2
 247 97 255 95 264 88 c 0
 277 78 285 64 285 48 c 0
 285 32 276 16 260 7 c 1
 255 2 240 0 221 0 c 2
 51 0 l 2
 28 0 16 2 7 9 c 0
 -6 19 -15 33 -15 48 c 0
 -15 65 -5 81 9 90 c 0
 19 97 24 97 51 97 c 2
 92 97 l 1
 92 326 l 1
 55 326 l 2
 31 326 20 329 11 336 c 0
 -2 345 -9 360 -9 375 c 0
 -9 391 -1 408 15 417 c 0
 22 422 29 423 55 423 c 2
 92 423 l 1
 92 461 l 2
 92 541 150 604 224 604 c 0
 259 604 299 593 319 581 c 0
 332 572 341 557 341 542 c 0
 341 515 319 492 294 492 c 0
 285 492 281 492 264 499 c 0
 249 505 236 508 226 508 c 0
 208 508 189 487 189 461 c 2
 189 423 l 1
 501 423 l 1
EndSplineSet
Ligature: 0 0 'liga' f i
EndChar
StartChar: fl
Encoding: 175 64258 110
Width: 578
Flags: W
HStem: 0 97<47 89 186 227 363 400 496 545> 326 97<53 89 186 227> 507 97<216 227 361 400>
VStem: 89 97<96 326 422 465> 400 97<96 604>
Fore
186 326 m 1
 186 97 l 1
 218 97 l 2
 243 97 253 95 260 88 c 1
 274 78 282 64 282 48 c 0
 282 32 273 16 259 7 c 0
 252 2 237 0 218 0 c 2
 47 0 l 2
 24 0 12 2 2 9 c 1
 -8 19 -16 33 -16 48 c 0
 -16 65 -8 81 7 90 c 1
 16 97 22 97 47 97 c 2
 89 97 l 1
 89 326 l 1
 53 326 l 2
 28 326 19 329 8 336 c 0
 -4 345 -12 360 -12 375 c 0
 -12 391 -2 408 12 417 c 0
 20 422 27 423 53 423 c 2
 89 423 l 1
 89 460 l 2
 89 539 147 604 218 604 c 0
 259 604 295 594 324 577 c 1
 334 598 347 604 371 604 c 2
 497 604 l 1
 497 97 l 1
 533 97 l 2
 560 97 567 95 577 88 c 0
 590 78 598 64 598 48 c 0
 598 32 589 16 574 7 c 0
 567 2 554 0 533 0 c 2
 363 0 l 2
 340 0 329 2 319 9 c 0
 306 19 298 33 298 48 c 0
 298 65 307 81 322 90 c 1
 330 97 337 97 363 97 c 2
 400 97 l 1
 400 507 l 1
 367 507 l 2
 353 507 345 508 332 518 c 1
 322 501 310 492 294 492 c 0
 286 492 277 494 265 499 c 1
 242 505 236 507 225 507 c 0
 202 507 186 489 186 460 c 2
 186 423 l 1
 218 423 l 2
 244 423 252 420 260 415 c 0
 274 404 282 391 282 375 c 0
 282 358 273 343 259 332 c 1
 250 329 240 326 218 326 c 2
 186 326 l 1
EndSplineSet
Ligature: 0 0 'liga' f l
EndChar
StartChar: endash
Encoding: 177 8211 111
Width: 578
Flags: W
HStem: 222 97<105 489>
Fore
477 222 m 2
 105 222 l 2
 81 222 70 224 61 231 c 0
 48 240 40 255 40 270 c 0
 40 287 50 302 64 312 c 0
 73 318 81 319 105 319 c 2
 477 319 l 2
 502 319 512 316 521 310 c 0
 534 299 541 286 541 270 c 0
 541 254 532 237 518 228 c 1
 508 224 499 222 477 222 c 2
EndSplineSet
EndChar
StartChar: dagger
Encoding: 178 8224 112
Width: 578
Flags: W
HStem: 326 97<155 242 338 443> 584 20G<283 299>
VStem: 242 97<-24 326 422 552>
Fore
339 326 m 1
 339 -24 l 2
 339 -51 337 -59 330 -70 c 1
 321 -81 306 -89 291 -89 c 0
 274 -89 259 -81 249 -66 c 0
 244 -57 242 -47 242 -24 c 2
 242 326 l 1
 155 326 l 2
 129 326 120 329 110 335 c 1
 99 345 90 360 90 375 c 0
 90 391 100 408 115 417 c 0
 123 422 131 423 155 423 c 2
 242 423 l 1
 242 539 l 2
 242 565 244 574 252 582 c 1
 260 595 275 604 291 604 c 0
 307 604 324 594 332 580 c 0
 339 570 339 565 339 539 c 2
 339 423 l 1
 425 423 l 2
 453 423 460 420 470 415 c 1
 482 404 490 391 490 375 c 0
 490 358 482 343 467 332 c 1
 458 329 450 326 425 326 c 2
 339 326 l 1
EndSplineSet
EndChar
StartChar: daggerdbl
Encoding: 179 8225 113
Width: 578
Flags: W
HStem: 90 97<155 242 339 443> 326 97<155 242 339 443> 584 20G<283 299>
VStem: 242 97<-24 90 186 326 422 552>
Fore
339 326 m 1
 339 187 l 1
 425 187 l 2
 450 187 460 185 470 178 c 0
 482 169 490 154 490 139 c 0
 490 122 482 105 467 97 c 1
 458 90 450 90 425 90 c 2
 339 90 l 1
 339 -24 l 2
 339 -51 337 -59 330 -70 c 1
 321 -81 306 -89 291 -89 c 0
 274 -89 259 -81 249 -66 c 0
 244 -57 242 -47 242 -24 c 2
 242 90 l 1
 155 90 l 2
 129 90 121 92 110 99 c 1
 99 108 90 123 90 139 c 0
 90 155 100 171 115 180 c 0
 122 185 133 187 155 187 c 2
 242 187 l 1
 242 326 l 1
 155 326 l 2
 129 326 120 329 110 335 c 1
 99 345 90 360 90 375 c 0
 90 391 100 408 115 417 c 0
 123 422 131 423 155 423 c 2
 242 423 l 1
 242 539 l 2
 242 565 244 574 252 582 c 1
 260 595 275 604 291 604 c 0
 307 604 324 594 332 580 c 0
 339 570 339 565 339 539 c 2
 339 423 l 1
 425 423 l 2
 453 423 460 420 470 415 c 1
 482 404 490 391 490 375 c 0
 490 358 482 343 467 332 c 1
 458 329 450 326 425 326 c 2
 339 326 l 1
EndSplineSet
EndChar
StartChar: periodcentered
Encoding: 180 183 114
Width: 578
Flags: W
Fore
299 208 m 2
 282 208 l 2
 247 208 218 236 218 271 c 0
 218 306 247 335 282 335 c 2
 299 335 l 2
 335 335 363 307 363 271 c 0
 363 236 335 208 299 208 c 2
EndSplineSet
EndChar
StartChar: paragraph
Encoding: 182 182 115
Width: 578
Flags: W
HStem: -169 76<185 260 453 496> 489 76<295 380 295 496>
VStem: 47 109<349 396> 260 77<-94 489> 380 73<-94 489>
Fore
453 489 m 1
 453 -93 l 1
 488 -93 l 2
 524 -93 541 -105 541 -131 c 0
 541 -156 523 -169 488 -169 c 2
 398 -169 l 2
 378 -169 368 -160 360 -136 c 1
 349 -162 341 -169 318 -169 c 2
 185 -169 l 2
 152 -169 133 -156 133 -131 c 0
 133 -119 141 -105 152 -99 c 0
 160 -94 164 -93 185 -93 c 2
 260 -93 l 1
 260 178 l 1
 136 192 47 264 47 349 c 2
 47 394 l 2
 47 488 158 565 295 565 c 2
 487 565 l 2
 521 565 539 552 539 527 c 0
 539 502 522 489 487 489 c 2
 453 489 l 1
260 257 m 1
 260 484 l 1
 197 470 156 436 156 392 c 2
 156 349 l 2
 156 306 197 271 260 257 c 1
380 489 m 1
 337 489 l 1
 337 -93 l 1
 349 -99 356 -105 360 -120 c 1
 363 -105 369 -99 380 -93 c 1
 380 489 l 1
EndSplineSet
EndChar
StartChar: bullet
Encoding: 183 8226 116
Width: 578
Flags: W
HStem: 419 20G<250 330.5>
Fore
290 439 m 0
 371 439 435 375 435 293 c 0
 435 214 369 149 290 149 c 0
 210 149 146 214 146 294 c 0
 146 374 210 439 290 439 c 0
EndSplineSet
EndChar
StartChar: quotesinglbase
Encoding: 184 8218 117
Width: 578
Flags: W
Fore
211 129 m 1
 340 129 l 1
 203 -129 l 1
 195 -146 185 -153 172 -153 c 0
 156 -153 143 -140 143 -126 c 0
 143 -120 143 -119 146 -107 c 1
 211 129 l 1
EndSplineSet
EndChar
StartChar: quotedblbase
Encoding: 185 8222 118
Width: 578
Flags: W
Fore
154 129 m 1
 282 129 l 1
 146 -93 l 2
 136 -110 127 -116 115 -116 c 0
 99 -116 84 -104 84 -89 c 0
 84 -84 86 -77 87 -71 c 1
 154 129 l 1
348 129 m 1
 477 129 l 1
 339 -93 l 2
 329 -110 321 -116 308 -116 c 0
 293 -116 277 -104 277 -89 c 0
 277 -84 279 -77 281 -71 c 2
 348 129 l 1
EndSplineSet
KernsSLIF: 89 -98 1 0 87 -51 1 0 86 -130 1 0 84 -112 1 0 225 -9 1 0 65 -7 1 0
EndChar
StartChar: quotedblright
Encoding: 186 8221 119
Width: 578
Flags: W
HStem: 563 20G<154 282 348 477>
Fore
154 583 m 1
 282 583 l 1
 146 361 l 1
 136 343 127 337 115 337 c 0
 99 337 84 349 84 364 c 0
 84 369 86 378 87 381 c 2
 154 583 l 1
348 583 m 1
 477 583 l 1
 339 361 l 1
 329 343 321 337 308 337 c 0
 293 337 277 349 277 364 c 0
 277 369 279 378 281 381 c 1
 348 583 l 1
EndSplineSet
KernsSLIF: 89 -64 1 0 87 -30 1 0 86 -37 1 0 84 -49 1 0 262 -95 1 0 256 -95 1 0 257 -95 1 0 225 -94 1 0 65 -95 1 0
EndChar
StartChar: guillemotright
Encoding: 187 187 120
Width: 578
Flags: W
Fore
417 210 m 1
 270 347 l 2
 260 356 255 364 255 373 c 0
 255 388 270 402 287 402 c 0
 295 402 299 400 314 389 c 2
 554 210 l 1
 314 32 l 1
 299 22 295 19 286 19 c 0
 270 19 255 33 255 48 c 0
 255 57 259 65 270 74 c 1
 417 210 l 1
194 210 m 1
 47 347 l 2
 37 356 32 364 32 373 c 0
 32 388 47 402 64 402 c 0
 73 402 78 400 90 389 c 1
 330 210 l 1
 90 32 l 1
 78 22 73 19 64 19 c 0
 47 19 32 33 32 48 c 0
 32 57 35 65 47 74 c 1
 194 210 l 1
EndSplineSet
KernsSLIF: 89 -114 1 0 87 -36 1 0 86 -90 1 0 84 -90 1 0 262 -45 1 0 256 -45 1 0 257 -45 1 0 225 -42 1 0 65 -45 1 0
EndChar
StartChar: ellipsis
Encoding: 188 8230 121
Width: 578
Flags: W
HStem: -15 21G<88 105 282 299 477 492>
VStem: 24 146<38.7979 53> 218 145<38.7491 53> 412 145<38.7979 53>
Fore
105 -15 m 2
 88 -15 l 2
 53 -15 24 15 24 50 c 0
 24 84 53 113 88 113 c 2
 105 113 l 2
 141 113 170 86 170 50 c 0
 170 15 141 -15 105 -15 c 2
299 -15 m 2
 282 -15 l 2
 247 -15 218 15 218 50 c 0
 218 84 247 113 282 113 c 2
 299 113 l 2
 335 113 363 86 363 50 c 0
 363 15 335 -15 299 -15 c 2
492 -15 m 2
 477 -15 l 2
 441 -15 412 15 412 50 c 0
 412 84 441 113 477 113 c 2
 492 113 l 2
 529 113 557 86 557 50 c 0
 557 15 529 -15 492 -15 c 2
EndSplineSet
Ligature: 0 1 'liga' period period period
EndChar
StartChar: perthousand
Encoding: 189 8240 122
Width: 578
Flags: W
HStem: 0 56<197.35 211 469 471> 169 56<197.52 211 469 471> 374 56<113 115> 542 56<113 115>
VStem: 0 56<487 497> 95 57<113 115> 169 56<485 497> 264 55<101.733 115> 356 56<113 115> 525 56<101.52 115>
DStem: 436 422 453 365 82 309 101 250
Fore
453 365 m 2
 101 250 l 2
 89 247 87 247 82 247 c 0
 68 247 54 263 54 279 c 0
 54 294 62 302 82 309 c 2
 436 422 l 1
 448 427 450 427 453 427 c 0
 469 427 482 412 482 395 c 0
 482 380 474 371 453 365 c 2
113 598 m 0
 175 598 225 549 225 485 c 0
 225 425 172 374 113 374 c 0
 50 374 0 425 0 487 c 0
 0 549 50 598 113 598 c 0
113 542 m 0
 81 542 56 518 56 487 c 0
 56 456 81 430 113 430 c 0
 143 430 169 456 169 485 c 0
 169 518 143 542 113 542 c 0
208 225 m 0
 270 225 319 174 319 112 c 0
 319 50 268 0 208 0 c 0
 146 0 95 50 95 113 c 0
 95 174 146 225 208 225 c 0
208 169 m 0
 177 169 152 143 152 113 c 0
 152 81 177 56 208 56 c 0
 237 56 264 81 264 112 c 0
 264 143 239 169 208 169 c 0
469 225 m 0
 532 225 581 174 581 112 c 0
 581 50 530 0 469 0 c 0
 407 0 356 50 356 113 c 0
 356 174 407 225 469 225 c 0
469 169 m 0
 437 169 412 143 412 113 c 0
 412 81 437 56 469 56 c 0
 499 56 525 81 525 112 c 0
 525 143 500 169 469 169 c 0
EndSplineSet
EndChar
StartChar: questiondown
Encoding: 191 191 123
Width: 578
Flags: W
HStem: -220 97<272 298> 246 128<280 306>
VStem: 81 96<-48 -35> 216 145<310 312>
Fore
480 -86 m 2
 480 -162 l 1
 387 -208 345 -220 283 -220 c 0
 162 -220 81 -146 81 -37 c 0
 81 40 122 87 240 139 c 1
 243 172 260 191 288 191 c 0
 304 191 321 182 329 169 c 0
 334 159 336 149 336 127 c 2
 336 73 l 1
 211 24 177 0 177 -40 c 0
 177 -90 220 -123 282 -123 c 0
 319 -123 352 -115 384 -100 c 1
 384 -86 l 2
 384 -60 386 -51 392 -43 c 0
 402 -31 418 -22 433 -22 c 0
 450 -22 466 -32 474 -46 c 0
 479 -53 480 -64 480 -86 c 2
280 374 m 2
 296 374 l 2
 332 374 361 345 361 310 c 0
 361 275 332 246 296 246 c 2
 280 246 l 2
 244 246 216 274 216 310 c 0
 216 346 244 374 280 374 c 2
EndSplineSet
EndChar
StartChar: grave
Encoding: 193 96 124
Width: 578
Flags: W
DStem: 143 604 188 659 273 496 316 551
Fore
188 659 m 1
 316 551 l 1
 332 539 339 528 339 515 c 0
 339 497 322 480 303 480 c 0
 294 480 287 484 273 496 c 2
 143 604 l 2
 127 617 121 627 121 639 c 0
 121 659 136 675 156 675 c 0
 169 675 172 671 188 659 c 1
EndSplineSet
EndChar
StartChar: acute
Encoding: 194 180 125
Width: 578
Flags: W
DStem: 394 659 437 604 264 551 309 496
Fore
437 604 m 2
 309 496 l 2
 294 484 288 480 277 480 c 0
 259 480 242 497 242 515 c 0
 242 528 249 539 264 551 c 2
 394 659 l 2
 409 671 414 675 425 675 c 0
 445 675 460 659 460 639 c 0
 460 627 453 617 437 604 c 2
EndSplineSet
Ligature: 0 1 'liga' space acutecomb
EndChar
StartChar: circumflex
Encoding: 195 710 126
Width: 578
Flags: W
HStem: 482 67<428 437>
DStem: 291 588 291 675 400 494 437 549 291 675 291 588 144 549 182 494 291 588 291 675 400 494 437 549 291 675 291 588 144 549 182 494 291 588 291 675 400 494 437 549 291 675 291 588 144 549 182 494 291 588 291 675 400 494 437 549 291 675 291 588 144 549 182 494 291 588 291 675 400 494 437 549 291 675 291 588 144 549 182 494 291 588 291 675 400 494 437 549
Fore
291 588 m 1
 182 494 l 2
 171 485 164 482 155 482 c 0
 136 482 121 499 121 515 c 0
 121 529 123 532 144 549 c 2
 291 675 l 1
 437 549 l 1
 441 549 445 544 446 542 c 1
 457 534 461 525 461 515 c 0
 461 499 446 482 428 482 c 0
 419 482 411 485 400 494 c 2
 291 588 l 1
EndSplineSet
EndChar
StartChar: tilde
Encoding: 196 732 127
Width: 578
Flags: W
HStem: 616 20G<204.5 229 433 447.5>
Fore
439 636 m 0
 456 636 470 622 470 608 c 0
 470 594 462 580 442 554 c 0
 415 519 392 507 364 507 c 0
 343 507 312 519 268 549 c 0
 242 566 234 569 220 569 c 0
 202 569 195 562 167 524 c 0
 159 513 152 508 141 508 c 0
 125 508 112 523 112 539 c 0
 112 552 121 572 138 591 c 0
 162 620 191 636 218 636 c 0
 240 636 257 629 306 598 c 1
 339 580 350 574 361 574 c 0
 376 574 380 577 401 606 c 0
 415 626 427 636 439 636 c 0
EndSplineSet
Ligature: 0 1 'liga' space tildecomb
EndChar
StartChar: macron
Encoding: 197 175 128
Width: 578
Flags: W
HStem: 529 77<172 411>
Fore
172 606 m 2
 409 606 l 2
 431 606 443 604 450 596 c 0
 456 589 460 574 460 567 c 0
 460 543 441 529 409 529 c 2
 172 529 l 2
 148 529 140 532 132 541 c 0
 126 549 121 560 121 567 c 0
 121 591 140 606 172 606 c 2
EndSplineSet
Ligature: 0 1 'liga' space uni0304
EndChar
StartChar: breve
Encoding: 198 728 129
Width: 578
Flags: W
HStem: 487 67<291 298>
Fore
154 666 m 0
 172 666 180 657 187 627 c 0
 197 582 237 554 291 554 c 0
 345 554 384 582 394 627 c 0
 401 657 408 666 427 666 c 0
 446 666 460 651 460 629 c 0
 460 555 380 487 291 487 c 0
 202 487 121 555 121 629 c 0
 121 651 136 666 154 666 c 0
EndSplineSet
Ligature: 0 1 'liga' space uni0306
EndChar
StartChar: dotaccent
Encoding: 199 729 130
Width: 578
Flags: W
HStem: 614 20G<275 307.5>
Fore
291 634 m 0
 324 634 349 608 349 574 c 0
 349 543 322 518 291 518 c 0
 259 518 232 543 232 574 c 0
 232 608 259 634 291 634 c 0
EndSplineSet
Ligature: 0 1 'liga' space uni0307
EndChar
StartChar: dieresis
Encoding: 200 168 131
Width: 578
Flags: W
HStem: 614 20G<174.5 207.5 375.5 408>
VStem: 132 116<574 583> 332 118<574 583>
Fore
191 634 m 0
 224 634 248 608 248 574 c 0
 248 543 222 518 191 518 c 0
 158 518 132 543 132 574 c 0
 132 608 158 634 191 634 c 0
391 634 m 0
 425 634 450 608 450 574 c 0
 450 543 423 518 391 518 c 0
 360 518 332 543 332 574 c 0
 332 608 360 634 391 634 c 0
EndSplineSet
Ligature: 0 1 'liga' space uni0308
EndChar
StartChar: ring
Encoding: 202 730 132
Width: 578
Flags: W
HStem: 470 53<291 300> 653 51<291 300>
VStem: 171 53<588 599> 358 53<587 599>
Fore
291 704 m 0
 356 704 411 651 411 587 c 0
 411 524 356 470 291 470 c 0
 226 470 171 524 171 588 c 0
 171 651 226 704 291 704 c 0
291 653 m 0
 254 653 224 623 224 588 c 0
 224 554 254 523 291 523 c 0
 326 523 358 554 358 587 c 0
 358 623 329 653 291 653 c 0
EndSplineSet
Ligature: 0 1 'liga' space uni030A
EndChar
StartChar: cedilla
Encoding: 203 184 133
Width: 578
Flags: W
HStem: -222 68<291 303> -20 20G<254 322>
VStem: 254 68<-99 0> 326 68<-137 -124>
Fore
254 0 m 1
 322 0 l 1
 322 -40 l 1
 371 -50 394 -78 394 -128 c 0
 394 -183 350 -222 291 -222 c 0
 264 -222 225 -211 202 -198 c 0
 183 -188 174 -177 174 -161 c 0
 174 -143 191 -127 208 -127 c 0
 216 -127 219 -128 236 -138 c 0
 254 -147 275 -154 291 -154 c 0
 314 -154 326 -146 326 -129 c 0
 326 -109 308 -97 275 -97 c 0
 270 -97 267 -97 254 -99 c 1
 254 0 l 1
EndSplineSet
Ligature: 0 1 'liga' space uni0327
EndChar
StartChar: hungarumlaut
Encoding: 205 733 134
Width: 578
Flags: W
DStem: 240 657 282 604 141 551 183 496 398 657 441 604 299 551 342 496
Fore
282 604 m 1
 183 496 l 2
 174 487 164 480 155 480 c 0
 138 480 121 499 121 516 c 0
 121 527 122 529 141 551 c 1
 240 657 l 1
 250 670 257 673 268 673 c 0
 286 673 301 656 301 637 c 0
 301 627 296 618 282 604 c 1
441 604 m 1
 342 496 l 1
 332 487 322 480 314 480 c 0
 296 480 280 499 280 516 c 0
 280 527 281 529 299 551 c 1
 398 657 l 1
 409 670 417 673 427 673 c 0
 445 673 460 656 460 637 c 0
 460 627 456 618 441 604 c 1
EndSplineSet
Ligature: 0 1 'liga' space uni030B
EndChar
StartChar: ogonek
Encoding: 206 731 135
Width: 578
Flags: W
HStem: -202 74<331 342> -20 20G<319 414>
VStem: 242 74<-115 -102>
Fore
319 0 m 1
 414 0 l 1
 343 -47 316 -78 316 -108 c 0
 316 -121 326 -128 340 -128 c 0
 352 -128 361 -123 389 -110 c 0
 398 -105 404 -105 411 -105 c 0
 433 -105 450 -121 450 -141 c 0
 450 -159 437 -172 415 -183 c 0
 388 -195 360 -202 332 -202 c 0
 277 -202 242 -169 242 -115 c 0
 242 -68 264 -35 319 0 c 1
EndSplineSet
Ligature: 0 1 'liga' space uni0328
EndChar
StartChar: caron
Encoding: 207 711 136
Width: 578
Flags: W
DStem: 144 605 182 660 291 482 291 567 400 660 437 605 291 567 291 482
Fore
291 567 m 1
 400 660 l 2
 412 671 418 675 428 675 c 0
 446 675 461 657 461 639 c 0
 461 629 457 621 446 612 c 2
 437 605 l 1
 291 482 l 1
 144 605 l 2
 123 623 121 627 121 639 c 0
 121 657 136 675 155 675 c 0
 164 675 170 671 182 660 c 2
 291 567 l 1
EndSplineSet
EndChar
StartChar: emdash
Encoding: 208 8212 137
Width: 578
Flags: W
HStem: 222 97<35 565>
Fore
546 222 m 2
 35 222 l 2
 12 222 1 224 -8 231 c 0
 -20 240 -28 257 -28 270 c 0
 -28 287 -19 303 -5 312 c 0
 4 318 12 319 35 319 c 2
 546 319 l 2
 570 319 581 316 589 310 c 0
 604 299 609 286 609 270 c 0
 609 254 601 237 587 228 c 1
 578 224 567 222 546 222 c 2
EndSplineSet
EndChar
StartChar: AE
Encoding: 225 198 138
Width: 578
Flags: W
HStem: 0 97<45 51 248 259 356 595> 0 183<540 595> 181 203<422 430> 341 224<149 528> 468 97<149 162 149 477>
VStem: -19 211<46 53> 259 97<97 236 250 468> 477 97<404 468>
DStem: 162 468 259 456 51 97 197 250
Fore
51 97 m 1x87
 162 468 l 1
 149 468 l 2x8f
 125 468 115 470 105 477 c 0
 93 487 86 502 86 516 c 0
 86 533 94 549 108 558 c 0
 117 565 123 565 149 565 c 2x17
 574 565 l 1x0f
 574 404 l 2
 574 379 573 371 566 361 c 0
 556 349 542 341 525 341 c 0x17
 508 341 494 349 484 364 c 0
 480 371 477 381 477 404 c 2
 477 468 l 1
 356 468 l 1
 356 332 l 1
 374 332 l 1
 376 365 394 384 422 384 c 0
 439 384 456 376 464 361 c 1
 470 353 470 346 470 321 c 2
 470 244 l 2
 470 219 469 211 462 202 c 0
 453 189 437 181 422 181 c 0
 394 181 375 202 374 236 c 1
 356 236 l 1
 356 97 l 1
 499 97 l 1xaf
 499 119 l 2
 499 143 500 153 507 162 c 0
 516 175 532 183 546 183 c 0x47
 563 183 580 174 588 160 c 0
 594 152 595 143 595 119 c 2
 595 0 l 1
 257 0 l 2
 224 0 202 19 202 50 c 0
 202 77 224 97 250 97 c 2
 259 97 l 1
 259 153 l 1
 169 153 l 1
 152 97 l 1x87
 177 93 192 77 192 51 c 0
 192 19 171 0 136 0 c 2x47
 45 0 l 2
 2 0 -19 16 -19 48 c 0
 -19 65 -11 81 4 90 c 1
 12 97 22 97 45 97 c 2
 51 97 l 1x87
259 250 m 1
 259 456 l 1
 197 250 l 1
 259 250 l 1
EndSplineSet
EndChar
StartChar: ordfeminine
Encoding: 227 170 139
Width: 578
Flags: W
HStem: 177 73<147.539 427> 264 77<237 260> 404 68<274 292> 501 76<274 292>
VStem: 115 87<357 365> 343 75<370 476>
Fore
343 275 m 1
 343 286 l 1
 304 270 276 264 239 264 c 0
 170 264 115 306 115 357 c 0
 115 378 125 402 141 420 c 0
 172 456 218 472 283 472 c 0
 302 472 315 470 343 467 c 1
 343 474 l 2
 343 492 326 501 287 501 c 0
 264 501 241 499 210 490 c 0
 200 487 189 485 183 485 c 0
 162 485 146 503 146 524 c 0
 146 539 155 551 170 557 c 0
 202 569 249 577 283 577 c 0
 369 577 418 539 418 474 c 2
 418 350 l 1
 425 350 l 2
 458 350 474 339 474 313 c 0
 474 290 457 275 425 275 c 2
 343 275 l 1
343 371 m 1
 343 397 l 1
 312 403 298 404 279 404 c 0
 239 404 202 384 202 363 c 0
 202 349 220 341 244 341 c 0
 275 341 318 353 343 371 c 1
418 177 m 2
 170 177 l 2
 128 177 120 183 120 220 c 0
 120 244 131 250 170 250 c 2
 418 250 l 2
 453 250 468 240 468 214 c 0
 468 189 451 177 418 177 c 2
EndSplineSet
EndChar
StartChar: Lslash
Encoding: 232 321 140
Width: 578
Flags: W
HStem: 0 97<97 152 248 554> 468 97<97 152 97 317>
VStem: 152 96<97 236 308 468> 456 98<97 204>
Fore
248 468 m 1
 248 348 l 1
 332 398 l 2
 352 409 361 412 373 412 c 0
 397 412 418 389 418 364 c 0
 418 342 411 332 381 315 c 2
 248 236 l 1
 248 97 l 1
 456 97 l 1
 456 185 l 2
 456 211 458 221 466 229 c 1
 474 243 489 250 505 250 c 0
 522 250 536 241 546 226 c 0
 551 218 554 209 554 185 c 2
 554 0 l 1
 97 0 l 2
 53 0 32 16 32 48 c 0
 32 65 40 81 55 90 c 1
 64 97 71 97 97 97 c 2
 152 97 l 1
 152 197 l 1
 99 166 l 2
 84 156 70 152 57 152 c 0
 34 152 12 174 12 202 c 0
 12 222 19 232 50 250 c 2
 152 308 l 1
 152 468 l 1
 97 468 l 2
 71 468 61 470 51 477 c 1
 40 487 32 501 32 516 c 0
 32 533 40 549 55 558 c 1
 64 565 71 565 97 565 c 2
 303 565 l 2
 329 565 337 563 347 556 c 0
 360 546 367 532 367 516 c 0
 367 500 358 484 345 474 c 1
 335 470 326 468 303 468 c 2
 248 468 l 1
EndSplineSet
EndChar
StartChar: Oslash
Encoding: 233 216 141
Width: 578
Flags: W
HStem: -15 99<291 297> 482 96<279 297>
VStem: 19 97<283 301> 464 97<267 301>
DStem: 375 456 437 388 147 169 214 104
Fore
154 27 m 1
 102 -39 l 2
 82 -64 74 -68 56 -68 c 0
 31 -68 8 -47 8 -22 c 0
 8 -9 12 -2 29 19 c 2
 84 89 l 1
 40 146 19 208 19 283 c 0
 19 446 140 578 291 578 c 0
 341 578 388 563 435 532 c 1
 480 588 l 2
 499 612 507 618 525 618 c 0
 550 618 572 598 572 572 c 0
 572 558 567 551 552 532 c 2
 502 468 l 1
 542 415 561 353 561 282 c 0
 561 119 440 -15 291 -15 c 0
 243 -15 195 1 154 27 c 1
437 388 m 1
 214 104 l 1
 239 90 264 84 291 84 c 0
 384 84 464 172 464 281 c 0
 464 318 453 357 437 388 c 1
147 169 m 1
 375 456 l 1
 347 473 319 482 290 482 c 0
 195 482 116 391 116 283 c 0
 116 240 126 205 147 169 c 1
EndSplineSet
KernsSLIF: 65 -11 0 0
EndChar
StartChar: OE
Encoding: 234 338 142
Width: 578
Flags: W
HStem: 0 97<236 257 356 593> 0 182<540 593> 181 203<420 430> 341 224<250 528> 468 97<236 257 250 477>
VStem: -19 97<271 289> 257 99<97 236 97 468> 257 212<97 332> 477 97<404 468>
Fore
356 236 m 1x2e80
 356 97 l 1
 497 97 l 1xae80
 497 119 l 2
 497 144 499 153 505 162 c 0
 515 174 530 182 546 182 c 0x4680
 562 182 578 172 587 159 c 1
 591 150 593 143 593 119 c 2
 593 0 l 1
 250 0 l 2
 94 0 -19 119 -19 283 c 0
 -19 446 93 565 250 565 c 2x9680
 574 565 l 1x0e80
 574 404 l 2
 574 379 573 370 566 361 c 0
 556 349 542 341 525 341 c 0x1680
 508 341 494 349 484 364 c 0
 480 371 477 381 477 404 c 2
 477 468 l 1
 356 468 l 1
 356 332 l 1x0e80
 373 332 l 1
 375 365 391 384 420 384 c 0
 437 384 453 376 462 361 c 0
 468 353 469 346 469 321 c 2
 469 244 l 2x2d80
 469 219 467 211 460 202 c 0
 450 189 436 181 420 181 c 0
 392 181 374 202 373 236 c 1
 356 236 l 1x2e80
257 97 m 1
 257 468 l 1
 208 467 178 460 150 437 c 1
 107 406 78 343 78 282 c 0
 78 218 112 150 161 120 c 0
 188 104 213 97 257 97 c 1
EndSplineSet
EndChar
StartChar: ordmasculine
Encoding: 235 186 143
Width: 578
Flags: W
HStem: 177 73<153.79 424> 264 76<291 296> 501 76<291 296>
VStem: 127 76<417 419> 380 76<413 419>
Fore
291 577 m 0
 384 577 456 505 456 415 c 0
 456 332 381 264 291 264 c 0
 202 264 127 332 127 417 c 0
 127 503 202 577 291 577 c 0
291 501 m 0
 244 501 203 462 203 417 c 0
 203 376 244 340 291 340 c 0
 339 340 380 376 380 417 c 0
 380 462 339 501 291 501 c 0
415 177 m 2
 169 177 l 2
 136 177 119 189 119 214 c 0
 119 226 125 239 136 244 c 1
 143 250 148 250 169 250 c 2
 415 250 l 2
 450 250 466 240 466 214 c 0
 466 189 450 177 415 177 c 2
EndSplineSet
EndChar
StartChar: ae
Encoding: 241 230 144
Width: 578
Flags: W
HStem: -16 97<147 165 416 437> 167 83<350 591> 191 86<179 204> 339 97<202 204 408.62 429>
VStem: -12 98<126 145>
Fore
591 167 m 1xd8
 349 167 l 1xd8
 365 105 388 81 427 81 c 0
 450 81 467 86 492 98 c 1
 521 109 536 115 549 115 c 0
 574 115 593 93 593 64 c 0
 593 46 584 31 569 22 c 0
 535 0 474 -16 428 -16 c 0
 389 -16 367 -8 332 16 c 1
 322 5 312 -1 295 -1 c 0
 281 -1 270 5 260 16 c 1
 225 -7 195 -16 154 -16 c 0
 53 -16 -12 47 -12 140 c 0
 -12 183 2 209 43 234 c 1
 82 260 143 277 189 277 c 0xb8
 203 277 222 275 247 273 c 1
 247 291 l 2
 247 319 228 339 202 339 c 0
 185 339 175 337 113 319 c 0
 105 316 97 315 90 315 c 0
 66 315 45 337 45 364 c 0
 45 388 57 404 84 412 c 1
 120 425 177 436 202 436 c 0
 244 436 279 419 313 381 c 1
 348 419 381 436 420 436 c 0
 467 436 512 412 546 369 c 1
 574 330 591 276 591 211 c 2
 591 167 l 1xd8
247 126 m 1
 247 183 l 1
 225 189 209 191 193 191 c 0xb8
 156 191 117 180 98 166 c 0
 90 159 86 149 86 138 c 0
 86 104 113 81 153 81 c 0
 183 81 208 93 247 126 c 1
350 250 m 1xd8
 487 250 l 1
 482 276 480 290 472 303 c 0
 461 325 440 339 418 339 c 0
 396 339 374 322 363 298 c 0
 357 285 356 273 350 250 c 1xd8
EndSplineSet
KernsSLIF: 121 21 0 0 119 40 0 0 118 34 0 0
EndChar
StartChar: dotlessi
Encoding: 245 305 145
Width: 578
Flags: W
HStem: 0 97<123 242 338 477> 326 97<167 242>
VStem: 242 97<96 423>
Fore
339 423 m 1
 339 97 l 1
 457 97 l 2
 484 97 491 95 501 88 c 0
 513 78 521 64 521 48 c 0
 521 32 512 16 499 7 c 0
 491 2 477 0 457 0 c 2
 123 0 l 2
 102 0 88 2 81 9 c 1
 68 19 60 33 60 48 c 0
 60 65 70 81 84 90 c 1
 92 97 99 97 123 97 c 2
 242 97 l 1
 242 326 l 1
 167 326 l 2
 143 326 131 329 122 336 c 0
 109 345 102 360 102 375 c 0
 102 391 110 408 125 417 c 0
 133 422 141 423 167 423 c 2
 339 423 l 1
EndSplineSet
EndChar
StartChar: lslash
Encoding: 248 322 146
Width: 578
Flags: W
HStem: 0 97<123 242 339 477> 508 96<141.752 242>
VStem: 242 97<96 274 348 604>
Fore
339 604 m 1
 339 387 l 1
 373 406 l 2
 394 418 400 420 412 420 c 0
 437 420 460 398 460 371 c 0
 460 349 450 337 420 322 c 1
 339 274 l 1
 339 97 l 1
 457 97 l 2
 484 97 491 95 501 88 c 0
 515 78 521 64 521 48 c 0
 521 32 512 16 499 7 c 0
 491 2 477 0 457 0 c 2
 123 0 l 2
 102 0 88 2 81 9 c 1
 68 19 60 33 60 48 c 0
 60 65 70 81 84 90 c 1
 92 97 99 97 123 97 c 2
 242 97 l 1
 242 236 l 1
 209 216 l 1
 193 208 180 202 170 202 c 0
 146 202 123 226 123 252 c 0
 123 273 132 285 162 302 c 2
 242 348 l 1
 242 508 l 1
 170 508 l 2
 144 508 133 508 125 518 c 1
 113 525 105 542 105 556 c 0
 105 573 113 589 128 598 c 0
 136 604 146 604 170 604 c 2
 339 604 l 1
EndSplineSet
EndChar
StartChar: oslash
Encoding: 249 248 147
Width: 578
Flags: W
HStem: -16 97<277 295> 339 97<277 295>
VStem: 40 98<210 221> 443 98<210 221>
DStem: 346 332 422 277 162 140 240 88
Fore
532 389 m 1
 490 348 l 1
 523 306 541 259 541 210 c 0
 541 84 430 -16 291 -16 c 0
 247 -16 208 -6 167 15 c 1
 113 -43 l 1
 92 -64 84 -68 70 -68 c 0
 43 -68 22 -47 22 -22 c 0
 22 -7 27 2 47 22 c 2
 93 70 l 1
 60 110 40 162 40 210 c 0
 40 336 152 436 290 436 c 0
 332 436 386 423 418 406 c 1
 466 453 l 1
 485 474 492 479 508 479 c 0
 535 479 555 458 555 433 c 0
 555 417 551 409 532 389 c 1
422 277 m 1
 240 88 l 1
 257 84 270 81 290 81 c 0
 378 81 443 138 443 210 c 0
 443 234 436 257 422 277 c 1
162 140 m 1
 346 332 l 1
 326 336 309 339 291 339 c 0
 205 339 138 283 138 210 c 0
 138 186 146 162 162 140 c 1
EndSplineSet
EndChar
StartChar: oe
Encoding: 250 339 148
Width: 578
Flags: W
HStem: -16 97<162 169 418 438> 166 83<352 593> 339 97<162 169 410.756 430>
VStem: -11 97<191 225>
Fore
593 166 m 1
 349 166 l 1
 361 109 388 81 430 81 c 0
 457 81 470 86 523 108 c 0
 532 112 539 113 546 113 c 0
 573 113 594 90 594 64 c 0
 594 40 584 27 558 15 c 0
 525 -2 463 -16 425 -16 c 0
 369 -16 329 8 294 56 c 1
 260 9 214 -16 166 -16 c 0
 68 -16 -11 84 -11 205 c 0
 -11 334 67 436 164 436 c 0
 215 436 257 411 294 358 c 1
 329 411 371 436 422 436 c 0
 466 436 505 415 539 378 c 0
 574 339 593 279 593 209 c 2
 593 166 l 1
167 339 m 0
 123 339 86 280 86 209 c 0
 86 140 123 81 167 81 c 0
 211 81 248 139 248 208 c 0
 248 281 211 339 167 339 c 0
352 249 m 1
 488 249 l 1
 484 274 479 288 473 299 c 0
 461 324 441 339 420 339 c 0
 398 339 378 322 365 296 c 1
 361 285 357 273 352 249 c 1
EndSplineSet
EndChar
StartChar: germandbls
Encoding: 251 223 149
Width: 578
Flags: W
HStem: -16 97<362 378> 0 97<77 92> 507 97<260 273>
VStem: 92 97<96 448> 335 98<440 449> 415 97<143 162>
Fore
92 97 m 1x78
 92 463 l 2
 92 546 162 604 260 604 c 0
 357 604 433 534 433 442 c 0x78
 433 406 425 384 398 353 c 1
 473 310 512 241 512 160 c 0
 512 55 453 -16 363 -16 c 0
 295 -16 247 31 247 94 c 0
 247 129 265 152 295 152 c 0
 308 152 322 146 329 138 c 0
 335 131 336 129 341 109 c 0
 345 90 356 81 370 81 c 0
 397 81 415 113 415 159 c 0xb4
 415 194 401 226 376 250 c 0
 349 276 319 288 270 294 c 0
 234 298 216 313 216 342 c 0
 216 369 234 387 267 389 c 0
 293 392 299 394 312 402 c 0
 326 412 335 428 335 445 c 0
 335 480 304 507 260 507 c 0
 214 507 189 487 189 446 c 2
 189 97 l 1
 216 92 231 76 231 50 c 0
 231 16 210 0 167 0 c 2
 77 0 l 2
 53 0 40 2 32 8 c 0
 20 19 12 34 12 48 c 0
 12 65 22 81 35 90 c 0
 45 97 51 97 77 97 c 2
 92 97 l 1x78
EndSplineSet
EndChar
StartChar: Adieresis
Encoding: 256 196 150
Width: 578
Flags: W
HStem: 0 97<27 45 150 189 380.844 425 536 557> 153 97<211 403> 468 97<133 195> 657 117<161.697 175 375 381>
VStem: 115 117<712 721> 316 117<712 721>
DStem: 195 468 288 436 45 97 211 250 288 436 343 565 363 250 536 97
Fore
403 153 m 1
 172 153 l 1
 150 97 l 1
 172 97 l 2
 198 97 208 95 216 88 c 0
 228 78 236 64 236 48 c 0
 236 32 228 16 213 7 c 0
 205 2 193 0 172 0 c 2
 43 0 l 2
 1 0 -20 16 -20 48 c 0
 -20 65 -12 81 2 90 c 0
 12 97 20 97 45 97 c 1
 195 468 l 1
 133 468 l 2
 108 468 99 470 89 477 c 0
 77 487 70 501 70 516 c 0
 70 533 78 549 92 558 c 0
 101 565 107 565 133 565 c 2
 343 565 l 1
 536 97 l 1
 563 97 572 95 581 87 c 1
 594 78 601 64 601 48 c 0
 601 32 593 16 578 7 c 0
 570 2 558 0 538 0 c 2
 403 0 l 2
 380 0 368 2 360 9 c 0
 347 19 339 33 339 48 c 0
 339 65 348 81 363 90 c 1
 371 97 378 97 403 97 c 2
 425 97 l 1
 403 153 l 1
363 250 m 1
 288 436 l 1
 211 250 l 1
 363 250 l 1
172 774 m 0
 208 774 232 747 232 714 c 0
 232 683 205 657 172 657 c 0
 141 657 115 683 115 715 c 0
 115 747 141 774 172 774 c 0
375 774 m 0
 408 774 433 747 433 714 c 0
 433 683 407 657 375 657 c 0
 343 657 316 683 316 715 c 0
 316 747 343 774 375 774 c 0
EndSplineSet
KernsSLIF: 121 -49 0 0 119 -15 0 0 118 -49 0 0 117 -15 0 0 116 -24 0 0 39 -140 0 0 186 -104 0 0 113 -5 0 0 46 -77 0 0 111 -2 0 0 45 -24 0 0 172 -50 0 0 171 -50 0 0 100 5 0 0 44 -59 0 0 99 -5 0 0 98 55 0 0 97 19 0 0 89 -33 0 0 87 -15 0 0 86 -73 0 0 85 -28 0 0 84 -33 0 0 81 -20 0 0 79 -19 0 0 71 -11 0 0 67 -19 0 0
Ligature: 0 0 'liga' A uni0308
EndChar
StartChar: Aacute
Encoding: 257 193 151
Width: 578
Flags: W
HStem: 0 97<27 45 150 189 403 425 536 557> 153 97<211 403> 468 97<133 195>
DStem: 195 468 288 436 45 97 211 250 288 436 343 565 363 250 536 97 353 798 397 743 224 690 268 636
Fore
403 153 m 1
 172 153 l 1
 150 97 l 1
 172 97 l 2
 198 97 208 95 216 88 c 0
 228 78 236 64 236 48 c 0
 236 32 228 16 213 7 c 0
 205 2 193 0 172 0 c 2
 43 0 l 2
 1 0 -20 16 -20 48 c 0
 -20 65 -12 81 2 90 c 0
 12 97 20 97 45 97 c 1
 195 468 l 1
 133 468 l 2
 108 468 99 470 89 477 c 0
 77 487 70 501 70 516 c 0
 70 533 78 549 92 558 c 0
 101 565 107 565 133 565 c 2
 343 565 l 1
 536 97 l 1
 563 97 572 95 581 87 c 1
 594 78 601 64 601 48 c 0
 601 32 593 16 578 7 c 0
 570 2 558 0 538 0 c 2
 403 0 l 2
 380 0 368 2 360 9 c 0
 347 19 339 33 339 48 c 0
 339 65 348 81 363 90 c 1
 371 97 378 97 403 97 c 2
 425 97 l 1
 403 153 l 1
363 250 m 1
 288 436 l 1
 211 250 l 1
 363 250 l 1
397 743 m 2
 268 636 l 1
 257 624 246 620 237 620 c 0
 218 620 202 636 202 655 c 0
 202 666 208 678 224 690 c 1
 353 798 l 2
 365 809 374 813 384 813 c 0
 404 813 419 797 419 778 c 0
 419 766 414 756 397 743 c 2
EndSplineSet
KernsSLIF: 121 -49 0 0 119 -15 0 0 118 -49 0 0 117 -15 0 0 116 -24 0 0 39 -140 0 0 113 -5 0 0 46 -77 0 0 111 -2 0 0 45 -24 0 0 172 -50 0 0 171 -50 0 0 101 2 0 0 100 5 0 0 44 -59 0 0 99 -5 0 0 98 55 0 0 97 19 0 0 89 -33 0 0 87 -15 0 0 86 -73 0 0 85 -28 0 0 84 -33 0 0 81 -20 0 0 79 -19 0 0 71 -11 0 0 67 -19 0 0
Ligature: 0 0 'liga' A acutecomb
EndChar
StartChar: Agrave
Encoding: 258 192 152
Width: 578
Flags: W
HStem: 0 97<27 45 150 189 380.844 425 536 557> 153 97<211 403> 468 97<133 195>
DStem: 159 743 203 798 288 636 332 690 195 468 288 436 45 97 211 250 288 436 343 565 363 250 536 97
Fore
403 153 m 1
 172 153 l 1
 150 97 l 1
 172 97 l 2
 198 97 208 95 216 88 c 0
 228 78 236 64 236 48 c 0
 236 32 228 16 213 7 c 0
 205 2 193 0 172 0 c 2
 43 0 l 2
 1 0 -20 16 -20 48 c 0
 -20 65 -12 81 2 90 c 0
 12 97 20 97 45 97 c 1
 195 468 l 1
 133 468 l 2
 108 468 99 470 89 477 c 0
 77 487 70 501 70 516 c 0
 70 533 78 549 92 558 c 0
 101 565 107 565 133 565 c 2
 343 565 l 1
 536 97 l 1
 563 97 572 95 581 87 c 1
 594 78 601 64 601 48 c 0
 601 32 593 16 578 7 c 0
 570 2 558 0 538 0 c 2
 403 0 l 2
 380 0 368 2 360 9 c 0
 347 19 339 33 339 48 c 0
 339 65 348 81 363 90 c 1
 371 97 378 97 403 97 c 2
 425 97 l 1
 403 153 l 1
363 250 m 1
 288 436 l 1
 211 250 l 1
 363 250 l 1
203 798 m 2
 332 690 l 2
 348 677 356 666 356 655 c 0
 356 636 339 620 319 620 c 0
 310 620 299 624 288 636 c 1
 159 743 l 1
 143 758 136 766 136 778 c 0
 136 797 152 813 172 813 c 0
 182 813 191 809 203 798 c 2
EndSplineSet
KernsSLIF: 46 -77 0 0 44 -59 0 0 89 -33 0 0 87 -15 0 0 86 -73 0 0 85 -28 0 0 84 -33 0 0 81 -20 0 0 79 -19 0 0 71 -11 0 0 67 -19 0 0
Ligature: 0 0 'liga' A gravecomb
EndChar
StartChar: Acircumflex
Encoding: 259 194 153
Width: 578
Flags: W
HStem: 0 97<27 45 150 189 403 425 536 557> 153 97<211 403> 468 97<133 195>
DStem: 195 468 288 436 45 97 211 250 275 727 275 813 384 632 420 689 275 813 275 727 128 689 166 632 275 727 275 813 384 632 420 689 275 813 275 727 128 689 166 632 275 727 275 813 384 632 420 689 275 813 275 727 128 689 166 632 275 727 275 813 384 632 420 689 275 813 275 727 128 689 166 632 275 727 275 813 384 632 420 689 275 813 275 727 128 689 166 632 288 436 343 565 363 250 536 97
Fore
403 153 m 1
 172 153 l 1
 150 97 l 1
 172 97 l 2
 198 97 208 95 216 88 c 0
 228 78 236 64 236 48 c 0
 236 32 228 16 213 7 c 0
 205 2 193 0 172 0 c 2
 43 0 l 2
 1 0 -20 16 -20 48 c 0
 -20 65 -12 81 2 90 c 0
 12 97 20 97 45 97 c 1
 195 468 l 1
 133 468 l 2
 108 468 99 470 89 477 c 0
 77 487 70 501 70 516 c 0
 70 533 78 549 92 558 c 0
 101 565 107 565 133 565 c 2
 343 565 l 1
 536 97 l 1
 563 97 572 95 581 87 c 1
 594 78 601 64 601 48 c 0
 601 32 593 16 578 7 c 0
 570 2 558 0 538 0 c 2
 403 0 l 2
 380 0 368 2 360 9 c 0
 347 19 339 33 339 48 c 0
 339 65 348 81 363 90 c 1
 371 97 378 97 403 97 c 2
 425 97 l 1
 403 153 l 1
363 250 m 1
 288 436 l 1
 211 250 l 1
 363 250 l 1
275 727 m 1
 166 632 l 1
 154 623 147 620 139 620 c 0
 120 620 105 636 105 654 c 0
 105 667 107 670 128 689 c 1
 275 813 l 1
 420 689 l 1
 430 681 l 2
 441 673 445 666 445 654 c 0
 445 636 429 620 412 620 c 0
 402 620 394 624 384 632 c 2
 275 727 l 1
EndSplineSet
KernsSLIF: 46 -77 0 0 44 -59 0 0 89 -33 0 0 87 -15 0 0 86 -73 0 0 85 -28 0 0 84 -33 0 0 81 -20 0 0 79 -19 0 0 71 -11 0 0 67 -19 0 0
Ligature: 0 0 'liga' A uni0302
EndChar
StartChar: Abreve
Encoding: 260 258 154
Width: 578
Flags: W
HStem: 0 97<27 45 150 189 403 425 536 557> 153 97<211 403> 468 97<133 195> 627 66<291 301> 627 178<154 291>
DStem: 195 468 288 436 45 97 211 250 288 436 343 565 363 250 536 97
Fore
403 153 m 1xe0
 172 153 l 1
 150 97 l 1
 172 97 l 2
 198 97 208 95 216 88 c 0
 228 78 236 64 236 48 c 0
 236 32 228 16 213 7 c 0
 205 2 193 0 172 0 c 2
 43 0 l 2
 1 0 -20 16 -20 48 c 0
 -20 65 -12 81 2 90 c 0
 12 97 20 97 45 97 c 1
 195 468 l 1
 133 468 l 2
 108 468 99 470 89 477 c 0
 77 487 70 501 70 516 c 0
 70 533 78 549 92 558 c 0
 101 565 107 565 133 565 c 2
 343 565 l 1
 536 97 l 1
 563 97 572 95 581 87 c 1
 594 78 601 64 601 48 c 0
 601 32 593 16 578 7 c 0
 570 2 558 0 538 0 c 2
 403 0 l 2
 380 0 368 2 360 9 c 0
 347 19 339 33 339 48 c 0
 339 65 348 81 363 90 c 1
 371 97 378 97 403 97 c 2
 425 97 l 1
 403 153 l 1xe0
363 250 m 1
 288 436 l 1
 211 250 l 1
 363 250 l 1
154 805 m 0xe8
 172 805 180 797 187 766 c 0
 197 722 237 693 291 693 c 0xf0
 345 693 384 722 394 766 c 0
 401 797 408 805 427 805 c 0xe8
 446 805 460 790 460 767 c 0
 460 694 380 627 291 627 c 0xf0
 202 627 121 694 121 767 c 0
 121 790 136 805 154 805 c 0xe8
EndSplineSet
Ligature: 0 0 'liga' A uni0306
EndChar
StartChar: Atilde
Encoding: 261 195 155
Width: 578
Flags: W
HStem: 0 97<27 45 150 189 403 424 536 557> 153 97<211 403> 468 97<133 195> 646 66<337 350> 708 66<193 213>
DStem: 195 468 288 436 45 97 211 250 288 436 343 565 363 250 536 97
Fore
403 153 m 1xe0
 172 153 l 1
 150 97 l 1
 172 97 l 2
 198 97 208 95 216 88 c 0
 228 78 236 64 236 48 c 0
 236 32 228 16 213 7 c 0
 205 2 193 0 172 0 c 2
 43 0 l 2
 1 0 -20 16 -20 48 c 0
 -20 65 -12 81 2 90 c 0
 12 97 20 97 45 97 c 1
 195 468 l 1
 133 468 l 2
 108 468 99 470 89 477 c 0
 77 487 70 501 70 516 c 0
 70 533 78 549 92 558 c 0
 101 565 107 565 133 565 c 2
 343 565 l 1
 536 97 l 1
 563 97 572 95 581 87 c 1
 594 78 601 64 601 48 c 0
 601 32 593 16 578 7 c 0
 570 2 558 0 538 0 c 2
 403 0 l 2
 380 0 368 2 360 9 c 0
 347 19 339 33 339 48 c 0
 339 65 348 81 363 90 c 1
 371 97 378 97 403 97 c 2
 425 97 l 1
 403 153 l 1xe0
363 250 m 1
 288 436 l 1
 211 250 l 1
 363 250 l 1
422 774 m 0xe8
 439 774 453 760 453 747 c 0
 453 732 446 719 425 693 c 0
 398 660 376 646 348 646 c 0xf0
 326 646 294 660 252 687 c 0
 226 704 218 708 203 708 c 0
 186 708 178 701 150 663 c 0
 143 654 136 649 125 649 c 0
 108 649 95 662 95 678 c 0
 95 691 105 710 121 730 c 0
 146 759 172 774 202 774 c 0xe8
 224 774 241 767 290 738 c 0
 321 719 334 712 345 712 c 0xf0
 360 712 363 716 384 745 c 0
 398 764 411 774 422 774 c 0xe8
EndSplineSet
KernsSLIF: 46 -77 0 0 44 -59 0 0 89 -33 0 0 87 -15 0 0 86 -73 0 0 85 -28 0 0 84 -33 0 0 81 -20 0 0 79 -19 0 0 71 -11 0 0 67 -19 0 0
Ligature: 0 0 'liga' A tildecomb
EndChar
StartChar: Aring
Encoding: 262 197 156
Width: 578
Flags: W
HStem: 0 97<27 45 150 189 403 425 536 557> 153 97<211 403> 468 97<133 195> 611 52<274 285> 792 52<274 285>
VStem: 155 53<728 737> 342 52<719 737>
DStem: 195 468 288 436 45 97 211 250 288 436 343 565 363 250 536 97
Fore
403 153 m 1
 172 153 l 1
 150 97 l 1
 172 97 l 2
 198 97 208 95 216 88 c 0
 228 78 236 64 236 48 c 0
 236 32 228 16 213 7 c 0
 205 2 193 0 172 0 c 2
 43 0 l 2
 1 0 -20 16 -20 48 c 0
 -20 65 -12 81 2 90 c 0
 12 97 20 97 45 97 c 1
 195 468 l 1
 133 468 l 2
 108 468 99 470 89 477 c 0
 77 487 70 501 70 516 c 0
 70 533 78 549 92 558 c 0
 101 565 107 565 133 565 c 2
 343 565 l 1
 536 97 l 1
 563 97 572 95 581 87 c 1
 594 78 601 64 601 48 c 0
 601 32 593 16 578 7 c 0
 570 2 558 0 538 0 c 2
 403 0 l 2
 380 0 368 2 360 9 c 0
 347 19 339 33 339 48 c 0
 339 65 348 81 363 90 c 1
 371 97 378 97 403 97 c 2
 425 97 l 1
 403 153 l 1
363 250 m 1
 288 436 l 1
 211 250 l 1
 363 250 l 1
274 844 m 0
 340 844 394 790 394 725 c 0
 394 663 339 611 274 611 c 0
 209 611 155 663 155 728 c 0
 155 790 209 844 274 844 c 0
274 792 m 0
 237 792 208 761 208 728 c 0
 208 693 237 663 274 663 c 0
 310 663 342 693 342 727 c 0
 342 761 312 792 274 792 c 0
EndSplineSet
KernsSLIF: 121 -49 0 0 119 -15 0 0 118 -49 0 0 117 -15 0 0 116 -24 0 0 39 -140 0 0 186 -104 0 0 113 -5 0 0 46 -77 0 0 111 -2 0 0 45 -24 0 0 172 -50 0 0 171 -50 0 0 101 2 0 0 100 5 0 0 44 -59 0 0 99 -5 0 0 98 55 0 0 97 19 0 0 89 -33 0 0 87 -15 0 0 86 -73 0 0 85 -28 0 0 84 -33 0 0 81 -20 0 0 79 -19 0 0 71 -11 0 0 67 -19 0 0
Ligature: 0 0 'liga' A uni030A
EndChar
StartChar: Aogonek
Encoding: 263 260 157
Width: 578
Flags: W
HStem: -202 74<482 492> 0 97<27 45 150 189 403 425> 153 97<211 403> 468 97<133 195>
VStem: 392 75<-115 -102>
DStem: 195 468 288 436 45 97 211 250 288 436 343 565 363 250 536 97
Fore
343 565 m 1
 536 97 l 1
 563 97 572 95 581 88 c 0
 594 78 601 64 601 48 c 0
 601 26 591 15 558 -5 c 0
 505 -35 467 -78 467 -108 c 0
 467 -121 477 -128 490 -128 c 0
 502 -128 512 -123 539 -110 c 0
 549 -105 554 -105 561 -105 c 0
 582 -105 598 -121 598 -141 c 0
 598 -159 588 -172 565 -183 c 0
 539 -195 508 -202 484 -202 c 0
 427 -202 392 -169 392 -115 c 0
 392 -67 412 -37 469 0 c 1
 403 0 l 2
 380 0 368 2 360 9 c 0
 347 19 339 33 339 48 c 0
 339 65 348 81 363 90 c 1
 371 97 378 97 403 97 c 2
 425 97 l 1
 403 153 l 1
 172 153 l 1
 150 97 l 1
 172 97 l 2
 198 97 208 95 216 88 c 0
 228 78 236 64 236 48 c 0
 236 32 228 16 213 7 c 0
 205 2 193 0 172 0 c 2
 43 0 l 2
 1 0 -20 16 -20 48 c 0
 -20 65 -12 81 2 90 c 0
 12 97 20 97 45 97 c 1
 195 468 l 1
 133 468 l 2
 108 468 99 470 89 477 c 0
 77 487 70 501 70 516 c 0
 70 533 78 549 92 558 c 0
 101 565 107 565 133 565 c 2
 343 565 l 1
363 250 m 1
 288 436 l 1
 211 250 l 1
 363 250 l 1
EndSplineSet
Ligature: 0 0 'liga' A uni0328
EndChar
StartChar: Ccedilla
Encoding: 264 199 158
Width: 578
Flags: W
HStem: -222 68<283 305> -97 181<283 319> 356 209<484 486> 482 96<281 319>
VStem: 32 97<225 323> 259 67<-99 -15> 332 66<-137 -124>
Fore
326 -15 m 1xde
 326 -40 l 1
 376 -50 398 -78 398 -128 c 0
 398 -182 356 -222 298 -222 c 0
 264 -222 224 -210 197 -193 c 0
 186 -185 178 -172 178 -161 c 0
 178 -143 195 -127 213 -127 c 0
 221 -127 224 -128 241 -138 c 0
 259 -148 280 -154 296 -154 c 0
 319 -154 332 -146 332 -129 c 0
 332 -109 313 -97 283 -97 c 0
 279 -97 275 -97 259 -99 c 1
 259 -8 l 1
 202 2 169 16 133 40 c 1
 70 89 32 162 32 241 c 2
 32 306 l 2
 32 460 146 578 295 578 c 0xde
 346 578 380 570 433 546 c 2
 443 542 l 1
 456 558 467 565 484 565 c 0
 501 565 516 556 525 542 c 0
 532 533 532 525 532 501 c 2
 532 419 l 2
 532 395 530 384 523 376 c 0
 513 363 499 356 484 356 c 0xee
 470 356 457 361 450 369 c 0
 442 378 440 384 435 407 c 0
 431 430 420 443 394 458 c 0
 367 473 332 482 299 482 c 0
 202 482 129 408 129 306 c 2
 129 243 l 2
 129 146 203 84 319 84 c 0
 363 84 402 90 427 105 c 0
 437 112 437 112 463 139 c 1
 474 149 485 154 499 154 c 0
 524 154 546 132 546 105 c 0
 546 81 518 47 477 22 c 1
 437 1 394 -9 326 -15 c 1xde
EndSplineSet
KernsSLIF: 65 2 0 0
Ligature: 0 0 'liga' C uni0327
EndChar
StartChar: Cacute
Encoding: 265 262 159
Width: 578
Flags: W
HStem: -15 99<294 337> 356 209<484 486> 482 96<287 318>
VStem: 32 97<224 322>
DStem: 394 798 437 743 264 690 309 636
Fore
433 546 m 2xb0
 443 542 l 1
 456 558 467 565 484 565 c 0
 501 565 516 556 525 542 c 0
 532 533 532 525 532 501 c 2
 532 419 l 2
 532 395 530 384 523 376 c 0
 513 363 499 356 484 356 c 0xd0
 470 356 457 361 450 369 c 0
 442 378 440 384 436 407 c 0
 431 430 420 443 394 458 c 0
 367 473 332 482 299 482 c 0
 202 482 129 407 129 306 c 2
 129 243 l 2
 129 146 203 84 319 84 c 0
 363 84 402 90 427 105 c 0
 437 112 437 112 463 139 c 1
 474 149 485 154 499 154 c 0
 524 154 546 132 546 105 c 0
 546 84 528 57 495 35 c 1
 453 4 387 -15 316 -15 c 0
 152 -15 32 94 32 241 c 2
 32 306 l 2
 32 460 146 578 295 578 c 0
 346 578 380 570 433 546 c 2xb0
437 743 m 2
 309 636 l 1
 296 624 287 620 277 620 c 0
 259 620 242 636 242 655 c 0
 242 666 249 678 264 690 c 2
 394 798 l 2
 407 809 415 813 425 813 c 0
 445 813 460 797 460 778 c 0
 460 766 453 756 437 743 c 2
EndSplineSet
Ligature: 0 0 'liga' C acutecomb
EndChar
StartChar: Ccaron
Encoding: 266 268 160
Width: 578
Flags: W
HStem: -15 99<294 337> 356 209<484 486> 482 96<287 318>
VStem: 32 97<224 322>
DStem: 144 744 182 800 291 620 291 706 400 800 437 744 291 706 291 620
Fore
433 546 m 2xb0
 443 542 l 1
 456 558 467 565 484 565 c 0
 501 565 516 556 525 542 c 0
 532 533 532 525 532 501 c 2
 532 419 l 2
 532 395 530 384 523 376 c 0
 513 363 499 356 484 356 c 0xd0
 470 356 457 361 450 369 c 0
 442 378 440 384 436 407 c 0
 431 430 420 443 394 458 c 0
 367 473 332 482 299 482 c 0
 202 482 129 407 129 306 c 2
 129 243 l 2
 129 146 203 84 319 84 c 0
 363 84 402 90 427 105 c 0
 437 112 437 112 463 139 c 1
 474 149 485 154 499 154 c 0
 524 154 546 132 546 105 c 0
 546 84 528 57 495 35 c 1
 453 4 387 -15 316 -15 c 0
 152 -15 32 94 32 241 c 2
 32 306 l 2
 32 460 146 578 295 578 c 0
 346 578 380 570 433 546 c 2xb0
291 706 m 1
 400 800 l 1
 412 809 418 813 428 813 c 0
 446 813 461 797 461 778 c 0
 461 767 457 760 446 751 c 2
 437 744 l 1
 291 620 l 1
 144 744 l 2
 123 761 121 766 121 778 c 0
 121 797 136 813 155 813 c 0
 164 813 170 809 182 800 c 1
 291 706 l 1
EndSplineSet
Ligature: 0 0 'liga' C uni030C
EndChar
StartChar: Dcaron
Encoding: 267 270 161
Width: 578
Flags: W
HStem: 0 97<59 78 169 301> 468 97<59 78 78 293>
VStem: 71 98<97 468> 436 97<239 305>
DStem: 144 744 182 800 291 620 291 706 400 800 437 744 291 706 291 620
Fore
71 97 m 1
 71 468 l 1
 34 468 12 485 12 516 c 0
 12 533 22 549 35 558 c 0
 45 565 51 565 78 565 c 2
 283 565 l 2
 425 565 533 448 533 295 c 2
 533 250 l 2
 533 178 508 119 466 73 c 0
 418 22 360 0 275 0 c 2
 78 0 l 2
 54 0 40 2 33 9 c 1
 20 19 12 34 12 48 c 0
 12 81 35 97 71 97 c 1
169 97 m 1
 276 97 l 2
 334 97 365 108 396 140 c 1
 423 170 436 203 436 253 c 2
 436 298 l 2
 436 343 420 386 392 418 c 0
 363 453 326 468 275 468 c 2
 169 468 l 1
 169 97 l 1
291 706 m 1
 400 800 l 1
 412 809 418 813 428 813 c 0
 446 813 461 797 461 778 c 0
 461 767 457 760 446 751 c 2
 437 744 l 1
 291 620 l 1
 144 744 l 2
 123 761 121 766 121 778 c 0
 121 797 136 813 155 813 c 0
 164 813 170 809 182 800 c 1
 291 706 l 1
EndSplineSet
Ligature: 0 0 'liga' D uni030C
EndChar
StartChar: Edieresis
Encoding: 268 203 162
Width: 578
Flags: W
HStem: 0 97<77 90 188 533> 0 211<475 533> 164 239<315 327> 356 209<77 465> 468 97<77 90 77 415> 657 117<181 190 370.733 384>
VStem: 90 98<97 236 97 468> 123 117<712 721> 270 95<228 236 332 358> 325 116<712 721> 415 97<419 468>
Fore
188 236 m 1x2ea0
 188 97 l 1
 436 97 l 1xaea0
 436 147 l 2
 436 174 437 182 445 192 c 1
 453 205 469 211 484 211 c 0x46a0
 501 211 516 203 525 189 c 0
 532 180 533 171 533 147 c 2
 533 0 l 1
 77 0 l 2
 54 0 40 2 33 9 c 1
 20 19 12 33 12 48 c 0
 12 65 22 81 35 90 c 0
 45 97 53 97 77 97 c 2
 90 97 l 1
 90 468 l 1
 77 468 l 2x8ea0
 51 468 40 470 33 477 c 1
 20 487 12 501 12 516 c 0
 12 533 22 549 35 558 c 0
 45 565 51 565 77 565 c 2x16a0
 512 565 l 1x0ea0
 512 419 l 2
 512 392 508 384 503 375 c 1
 492 363 479 356 463 356 c 0x16a0
 446 356 431 363 420 378 c 1
 417 387 415 396 415 419 c 2
 415 468 l 1
 188 468 l 1
 188 332 l 1
 270 332 l 1
 270 339 l 2
 270 364 273 373 279 381 c 0
 290 395 303 403 318 403 c 0
 345 403 361 386 365 358 c 1
 365 339 l 1
 365 228 l 2
 365 203 364 194 357 185 c 0
 348 172 332 164 319 164 c 0
 302 164 286 172 277 188 c 0
 273 197 270 205 270 228 c 2
 270 236 l 1
 188 236 l 1x2ea0
181 774 m 0
 214 774 240 747 240 714 c 0
 240 683 213 657 181 657 c 0
 149 657 123 683 123 715 c 0x05
 123 747 149 774 181 774 c 0
381 774 m 0
 415 774 441 747 441 714 c 0
 441 683 415 657 381 657 c 0
 350 657 325 683 325 715 c 0x0440
 325 747 350 774 381 774 c 0
EndSplineSet
Ligature: 0 0 'liga' E uni0308
EndChar
StartChar: Eacute
Encoding: 269 201 163
Width: 578
Flags: W
HStem: 0 97<77 90 188 533> 0 211<475 533> 164 239<315 321> 356 209<77 465> 468 97<77 90 77 415>
VStem: 90 98<97 236 97 468> 270 95<228 236 332 358> 415 97<419 468>
DStem: 360 798 404 743 231 690 275 636
Fore
188 236 m 1x2f
 188 97 l 1
 436 97 l 1xaf
 436 147 l 2
 436 174 437 182 445 192 c 1
 453 205 469 211 484 211 c 0x47
 501 211 516 203 525 189 c 0
 532 180 533 171 533 147 c 2
 533 0 l 1
 77 0 l 2
 54 0 40 2 33 9 c 1
 20 19 12 33 12 48 c 0
 12 65 22 81 35 90 c 0
 45 97 53 97 77 97 c 2
 90 97 l 1
 90 468 l 1
 77 468 l 2x8f
 51 468 40 470 33 477 c 1
 20 487 12 501 12 516 c 0
 12 533 22 549 35 558 c 0
 45 565 51 565 77 565 c 2x17
 512 565 l 1x0f
 512 419 l 2
 512 392 508 384 503 375 c 1
 492 363 479 356 463 356 c 0x17
 446 356 431 363 420 378 c 1
 417 387 415 396 415 419 c 2
 415 468 l 1
 188 468 l 1
 188 332 l 1
 270 332 l 1
 270 339 l 2
 270 364 273 373 279 381 c 0
 290 395 303 403 318 403 c 0
 345 403 361 386 365 358 c 1
 365 339 l 1
 365 228 l 2
 365 203 364 194 357 185 c 0
 348 172 332 164 319 164 c 0
 302 164 286 172 277 188 c 0
 273 197 270 205 270 228 c 2
 270 236 l 1
 188 236 l 1x2f
404 743 m 2
 275 636 l 1
 263 624 253 620 244 620 c 0
 225 620 208 636 208 655 c 0
 208 666 215 678 231 690 c 1
 360 798 l 2
 373 809 381 813 391 813 c 0
 411 813 427 797 427 778 c 0
 427 766 420 756 404 743 c 2
EndSplineSet
Ligature: 0 0 'liga' E acutecomb
EndChar
StartChar: Egrave
Encoding: 270 200 164
Width: 578
Flags: W
HStem: 0 97<77 90 188 533> 0 211<475 533> 164 239<315 321> 356 209<77 465> 468 97<77 90 77 415>
VStem: 90 98<97 236 97 468> 270 95<228 236 332 358> 415 97<419 468>
DStem: 160 743 205 798 290 636 332 690
Fore
188 236 m 1x2f
 188 97 l 1
 436 97 l 1xaf
 436 147 l 2
 436 174 437 182 445 192 c 1
 453 205 469 211 484 211 c 0x47
 501 211 516 203 525 189 c 0
 532 180 533 171 533 147 c 2
 533 0 l 1
 77 0 l 2
 54 0 40 2 33 9 c 1
 20 19 12 33 12 48 c 0
 12 65 22 81 35 90 c 0
 45 97 53 97 77 97 c 2
 90 97 l 1
 90 468 l 1
 77 468 l 2x8f
 51 468 40 470 33 477 c 1
 20 487 12 501 12 516 c 0
 12 533 22 549 35 558 c 0
 45 565 51 565 77 565 c 2x17
 512 565 l 1x0f
 512 419 l 2
 512 392 508 384 503 375 c 1
 492 363 479 356 463 356 c 0x17
 446 356 431 363 420 378 c 1
 417 387 415 396 415 419 c 2
 415 468 l 1
 188 468 l 1
 188 332 l 1
 270 332 l 1
 270 339 l 2
 270 364 273 373 279 381 c 0
 290 395 303 403 318 403 c 0
 345 403 361 386 365 358 c 1
 365 339 l 1
 365 228 l 2
 365 203 364 194 357 185 c 0
 348 172 332 164 319 164 c 0
 302 164 286 172 277 188 c 0
 273 197 270 205 270 228 c 2
 270 236 l 1
 188 236 l 1x2f
205 798 m 2
 332 690 l 1
 349 677 356 666 356 655 c 0
 356 636 339 620 319 620 c 0
 312 620 301 624 290 636 c 1
 160 743 l 2
 143 758 138 766 138 778 c 0
 138 797 153 813 172 813 c 0
 183 813 191 809 205 798 c 2
EndSplineSet
Ligature: 0 0 'liga' E gravecomb
EndChar
StartChar: Ecircumflex
Encoding: 271 202 165
Width: 578
Flags: W
HStem: 0 97<77 90 188 533> 0 211<475 533> 164 239<315 321> 356 209<77 465> 468 97<77 90 77 415>
VStem: 90 98<97 236 97 468> 270 95<228 236 332 358> 415 97<419 468>
DStem: 283 727 283 813 391 632 429 689 283 813 283 727 136 689 172 632 283 727 283 813 391 632 429 689 283 813 283 727 136 689 172 632 283 727 283 813 391 632 429 689 283 813 283 727 136 689 172 632 283 727 283 813 391 632 429 689 283 813 283 727 136 689 172 632 283 727 283 813 391 632 429 689 283 813 283 727 136 689 172 632
Fore
188 236 m 1x2f
 188 97 l 1
 436 97 l 1xaf
 436 147 l 2
 436 174 437 182 445 192 c 1
 453 205 469 211 484 211 c 0x47
 501 211 516 203 525 189 c 0
 532 180 533 171 533 147 c 2
 533 0 l 1
 77 0 l 2
 54 0 40 2 33 9 c 1
 20 19 12 33 12 48 c 0
 12 65 22 81 35 90 c 0
 45 97 53 97 77 97 c 2
 90 97 l 1
 90 468 l 1
 77 468 l 2x8f
 51 468 40 470 33 477 c 1
 20 487 12 501 12 516 c 0
 12 533 22 549 35 558 c 0
 45 565 51 565 77 565 c 2x17
 512 565 l 1x0f
 512 419 l 2
 512 392 508 384 503 375 c 1
 492 363 479 356 463 356 c 0x17
 446 356 431 363 420 378 c 1
 417 387 415 396 415 419 c 2
 415 468 l 1
 188 468 l 1
 188 332 l 1
 270 332 l 1
 270 339 l 2
 270 364 273 373 279 381 c 0
 290 395 303 403 318 403 c 0
 345 403 361 386 365 358 c 1
 365 339 l 1
 365 228 l 2
 365 203 364 194 357 185 c 0
 348 172 332 164 319 164 c 0
 302 164 286 172 277 188 c 0
 273 197 270 205 270 228 c 2
 270 236 l 1
 188 236 l 1x2f
283 727 m 1
 172 632 l 2
 162 623 155 620 146 620 c 0
 128 620 113 636 113 654 c 0
 113 667 115 670 136 689 c 1
 283 813 l 1
 429 689 l 1
 437 681 l 1
 450 673 453 666 453 654 c 0
 453 636 437 620 419 620 c 0
 411 620 402 624 391 632 c 1
 283 727 l 1
EndSplineSet
Ligature: 0 0 'liga' E uni0302
EndChar
StartChar: Ecaron
Encoding: 272 282 166
Width: 578
Flags: W
HStem: 0 97<77 90 188 533> 0 211<475 533> 164 239<315 321> 356 209<77 465> 468 97<77 90 77 415>
VStem: 90 98<97 236 97 468> 270 95<228 236 332 358> 415 97<419 468>
DStem: 144 744 182 800 291 620 291 706 400 800 437 744 291 706 291 620
Fore
188 236 m 1x2f
 188 97 l 1
 436 97 l 1xaf
 436 147 l 2
 436 174 437 182 445 192 c 1
 453 205 469 211 484 211 c 0x47
 501 211 516 203 525 189 c 0
 532 180 533 171 533 147 c 2
 533 0 l 1
 77 0 l 2
 54 0 40 2 33 9 c 1
 20 19 12 33 12 48 c 0
 12 65 22 81 35 90 c 0
 45 97 53 97 77 97 c 2
 90 97 l 1
 90 468 l 1
 77 468 l 2x8f
 51 468 40 470 33 477 c 1
 20 487 12 501 12 516 c 0
 12 533 22 549 35 558 c 0
 45 565 51 565 77 565 c 2x17
 512 565 l 1x0f
 512 419 l 2
 512 392 508 384 503 375 c 1
 492 363 479 356 463 356 c 0x17
 446 356 431 363 420 378 c 1
 417 387 415 396 415 419 c 2
 415 468 l 1
 188 468 l 1
 188 332 l 1
 270 332 l 1
 270 339 l 2
 270 364 273 373 279 381 c 0
 290 395 303 403 318 403 c 0
 345 403 361 386 365 358 c 1
 365 339 l 1
 365 228 l 2
 365 203 364 194 357 185 c 0
 348 172 332 164 319 164 c 0
 302 164 286 172 277 188 c 0
 273 197 270 205 270 228 c 2
 270 236 l 1
 188 236 l 1x2f
291 706 m 1
 400 800 l 1
 412 809 418 813 428 813 c 0
 446 813 461 797 461 778 c 0
 461 767 457 760 446 751 c 2
 437 744 l 1
 291 620 l 1
 144 744 l 2
 123 761 121 766 121 778 c 0
 121 797 136 813 155 813 c 0
 164 813 170 809 182 800 c 1
 291 706 l 1
EndSplineSet
Ligature: 0 0 'liga' E uni030C
EndChar
StartChar: Edotaccent
Encoding: 273 278 167
Width: 578
Flags: W
HStem: 0 97<77 90 188 533> 0 211<475 533> 164 239<315 321> 356 209<77 465> 468 97<77 90 77 415> 657 117<291 301>
VStem: 90 98<97 236 97 468> 232 117<712 721> 270 95<228 236 332 358> 415 97<419 468>
Fore
188 236 m 1x2ec0
 188 97 l 1
 436 97 l 1xaec0
 436 147 l 2
 436 174 437 182 445 192 c 1
 453 205 469 211 484 211 c 0x46c0
 501 211 516 203 525 189 c 0
 532 180 533 171 533 147 c 2
 533 0 l 1
 77 0 l 2
 54 0 40 2 33 9 c 1
 20 19 12 33 12 48 c 0
 12 65 22 81 35 90 c 0
 45 97 53 97 77 97 c 2
 90 97 l 1
 90 468 l 1
 77 468 l 2x8ec0
 51 468 40 470 33 477 c 1
 20 487 12 501 12 516 c 0
 12 533 22 549 35 558 c 0
 45 565 51 565 77 565 c 2x16c0
 512 565 l 1x0ec0
 512 419 l 2
 512 392 508 384 503 375 c 1
 492 363 479 356 463 356 c 0x16c0
 446 356 431 363 420 378 c 1
 417 387 415 396 415 419 c 2
 415 468 l 1
 188 468 l 1
 188 332 l 1
 270 332 l 1
 270 339 l 2
 270 364 273 373 279 381 c 0
 290 395 303 403 318 403 c 0
 345 403 361 386 365 358 c 1
 365 339 l 1
 365 228 l 2
 365 203 364 194 357 185 c 0
 348 172 332 164 319 164 c 0
 302 164 286 172 277 188 c 0
 273 197 270 205 270 228 c 2
 270 236 l 1
 188 236 l 1x2ec0
291 774 m 0
 324 774 349 747 349 714 c 0
 349 683 322 657 291 657 c 0
 259 657 232 683 232 715 c 0x0740
 232 747 259 774 291 774 c 0
EndSplineSet
Ligature: 0 0 'liga' E uni0307
EndChar
StartChar: Eogonek
Encoding: 274 280 168
Width: 578
Flags: W
HStem: -202 74<451 466> 0 97<77 90 188 437> 164 239<315 321> 356 209<77 465> 468 97<77 90 77 415>
VStem: 90 98<97 236 97 468> 270 95<228 236 332 358> 361 75<-115 -102> 415 97<419 468>
Fore
512 565 m 1xcc80
 512 419 l 2
 512 392 508 384 503 375 c 1
 492 363 479 356 463 356 c 0xd480
 446 356 431 363 420 378 c 1
 417 387 415 396 415 419 c 2
 415 468 l 1
 188 468 l 1
 188 332 l 1
 270 332 l 1
 270 339 l 2
 270 364 273 373 279 381 c 0
 290 395 303 403 318 403 c 0
 345 403 361 386 365 358 c 1
 365 339 l 1
 365 228 l 2
 365 203 364 194 357 185 c 0
 348 172 332 164 319 164 c 0
 302 164 286 172 277 188 c 0
 273 197 270 205 270 228 c 2
 270 236 l 1xee80
 188 236 l 1
 188 97 l 1
 436 97 l 1
 436 147 l 2
 436 174 437 182 445 192 c 1
 453 205 469 211 484 211 c 0
 501 211 516 203 525 189 c 0
 532 180 533 171 533 147 c 2
 533 0 l 1
 462 -47 436 -78 436 -108 c 0
 436 -121 445 -128 460 -128 c 0
 472 -128 482 -125 508 -110 c 0
 519 -105 524 -105 532 -105 c 0
 552 -105 569 -121 569 -141 c 0
 569 -159 558 -172 535 -183 c 0
 508 -195 480 -202 453 -202 c 0
 396 -202 361 -169 361 -115 c 0
 361 -67 381 -37 437 0 c 1
 77 0 l 2
 54 0 40 2 33 9 c 1
 20 19 12 33 12 48 c 0
 12 65 22 81 35 90 c 0
 45 97 53 97 77 97 c 2
 90 97 l 1
 90 468 l 1
 77 468 l 2xed
 51 468 40 470 33 477 c 1
 20 487 12 501 12 516 c 0
 12 533 22 549 35 558 c 0
 45 565 51 565 77 565 c 2xd5
 512 565 l 1xcc80
EndSplineSet
Ligature: 0 0 'liga' E uni0328
EndChar
StartChar: Gbreve
Encoding: 275 286 169
Width: 578
Flags: W
HStem: -15 99<293 341> 174 97<339 436> 482 96<287 323> 627 66<303 317>
VStem: 32 97<222 322>
Fore
533 174 m 1
 533 47 l 1
 446 1 396 -15 321 -15 c 0
 226 -15 143 15 97 64 c 1
 56 105 32 170 32 239 c 2
 32 307 l 2
 32 381 62 453 113 503 c 0
 164 554 228 578 307 578 c 0
 360 578 407 567 448 549 c 1
 460 570 469 578 487 578 c 0
 503 578 519 570 525 555 c 1
 532 546 533 538 533 515 c 2
 533 439 l 2
 533 412 532 404 524 395 c 1
 515 381 500 375 484 375 c 0
 472 375 458 381 450 389 c 1
 445 396 445 396 437 427 c 0
 427 460 379 482 308 482 c 0
 254 482 210 466 180 436 c 0
 148 404 129 356 129 307 c 2
 129 244 l 2
 129 189 143 152 172 126 c 0
 205 98 254 84 315 84 c 0
 361 84 398 90 436 107 c 1
 436 174 l 1
 339 174 l 2
 315 174 304 177 295 185 c 1
 283 193 275 208 275 224 c 0
 275 240 283 257 298 264 c 1
 307 270 315 271 339 271 c 2
 508 271 l 2
 535 271 543 270 554 263 c 0
 567 253 574 239 574 224 c 0
 574 198 560 182 533 174 c 1
167 805 m 0
 186 805 193 797 200 766 c 0
 209 722 250 693 303 693 c 0
 356 693 397 722 407 766 c 0
 414 797 420 805 440 805 c 0
 460 805 473 790 473 767 c 0
 473 694 392 627 303 627 c 0
 214 627 133 694 133 767 c 0
 133 790 147 805 167 805 c 0
EndSplineSet
Ligature: 0 0 'liga' G uni0306
EndChar
StartChar: Idieresis
Encoding: 276 207 170
Width: 578
Flags: W
HStem: 0 97<144 242 339 452> 468 97<144 242 144 452> 657 117<180.101 194 391 402>
VStem: 132 116<712 721> 242 97<96 468> 332 118<712 721>
Fore
339 468 m 1xe8
 339 97 l 1
 437 97 l 2
 463 97 470 95 480 88 c 0
 494 78 501 64 501 48 c 0
 501 16 480 0 437 0 c 2
 144 0 l 2
 121 0 109 2 101 9 c 0
 88 19 81 34 81 48 c 0
 81 65 89 81 104 90 c 1
 113 97 119 97 144 97 c 2
 242 97 l 1
 242 468 l 1
 144 468 l 2
 120 468 109 470 101 477 c 0
 88 487 81 501 81 516 c 0
 81 533 89 549 104 558 c 1
 113 565 119 565 144 565 c 2
 437 565 l 2
 463 565 470 563 480 556 c 0
 494 546 501 532 501 516 c 0
 501 500 492 484 477 474 c 0
 470 470 460 468 437 468 c 2
 339 468 l 1xe8
191 774 m 0
 224 774 248 747 248 714 c 0
 248 683 222 657 191 657 c 0
 158 657 132 683 132 715 c 0xf0
 132 747 158 774 191 774 c 0
391 774 m 0
 425 774 450 747 450 714 c 0
 450 683 423 657 391 657 c 0
 360 657 332 683 332 715 c 0xe4
 332 747 360 774 391 774 c 0
EndSplineSet
Ligature: 0 0 'liga' I uni0308
EndChar
StartChar: Iacute
Encoding: 277 205 171
Width: 578
Flags: W
HStem: 0 97<144 242 339 450> 468 97<144 242 144 460>
VStem: 242 97<96 468>
DStem: 394 798 437 743 264 690 309 636
Fore
339 468 m 1
 339 97 l 1
 437 97 l 2
 463 97 470 95 480 88 c 0
 494 78 501 64 501 48 c 0
 501 16 480 0 437 0 c 2
 144 0 l 2
 121 0 109 2 101 9 c 0
 88 19 81 34 81 48 c 0
 81 65 89 81 104 90 c 1
 113 97 119 97 144 97 c 2
 242 97 l 1
 242 468 l 1
 144 468 l 2
 120 468 109 470 101 477 c 0
 88 487 81 501 81 516 c 0
 81 533 89 549 104 558 c 1
 113 565 119 565 144 565 c 2
 437 565 l 2
 463 565 470 563 480 556 c 0
 494 546 501 532 501 516 c 0
 501 500 492 484 477 474 c 0
 470 470 460 468 437 468 c 2
 339 468 l 1
437 743 m 2
 309 636 l 1
 296 624 287 620 277 620 c 0
 259 620 242 636 242 655 c 0
 242 666 249 678 264 690 c 2
 394 798 l 2
 407 809 415 813 425 813 c 0
 445 813 460 797 460 778 c 0
 460 766 453 756 437 743 c 2
EndSplineSet
Ligature: 0 0 'liga' I acutecomb
EndChar
StartChar: Igrave
Encoding: 278 204 172
Width: 578
Flags: W
HStem: 0 97<144 242 339 450> 468 97<144 242 144 450>
VStem: 242 97<96 468>
DStem: 169 743 213 798 298 636 342 690
Fore
339 468 m 1
 339 97 l 1
 437 97 l 2
 463 97 470 95 480 88 c 0
 494 78 501 64 501 48 c 0
 501 16 480 0 437 0 c 2
 144 0 l 2
 121 0 109 2 101 9 c 0
 88 19 81 34 81 48 c 0
 81 65 89 81 104 90 c 1
 113 97 119 97 144 97 c 2
 242 97 l 1
 242 468 l 1
 144 468 l 2
 120 468 109 470 101 477 c 0
 88 487 81 501 81 516 c 0
 81 533 89 549 104 558 c 1
 113 565 119 565 144 565 c 2
 437 565 l 2
 463 565 470 563 480 556 c 0
 494 546 501 532 501 516 c 0
 501 500 492 484 477 474 c 0
 470 470 460 468 437 468 c 2
 339 468 l 1
213 798 m 2
 342 690 l 2
 357 677 364 666 364 655 c 0
 364 636 348 620 329 620 c 0
 319 620 310 624 298 636 c 1
 169 743 l 2
 152 758 146 766 146 778 c 0
 146 797 162 813 182 813 c 0
 192 813 200 809 213 798 c 2
EndSplineSet
Ligature: 0 0 'liga' I gravecomb
EndChar
StartChar: Icircumflex
Encoding: 279 206 173
Width: 578
Flags: W
HStem: 0 97<144 242 339 450> 468 97<144 242 144 460>
VStem: 242 97<96 468>
DStem: 291 727 291 813 398 632 437 689 291 813 291 727 143 689 181 632 291 727 291 813 398 632 437 689 291 813 291 727 143 689 181 632 291 727 291 813 398 632 437 689 291 813 291 727 143 689 181 632 291 727 291 813 398 632 437 689 291 813 291 727 143 689 181 632 291 727 291 813 398 632 437 689 291 813 291 727 143 689 181 632
Fore
339 468 m 1
 339 97 l 1
 437 97 l 2
 463 97 470 95 480 88 c 0
 494 78 501 64 501 48 c 0
 501 16 480 0 437 0 c 2
 144 0 l 2
 121 0 109 2 101 9 c 0
 88 19 81 34 81 48 c 0
 81 65 89 81 104 90 c 1
 113 97 119 97 144 97 c 2
 242 97 l 1
 242 468 l 1
 144 468 l 2
 120 468 109 470 101 477 c 0
 88 487 81 501 81 516 c 0
 81 533 89 549 104 558 c 1
 113 565 119 565 144 565 c 2
 437 565 l 2
 463 565 470 563 480 556 c 0
 494 546 501 532 501 516 c 0
 501 500 492 484 477 474 c 0
 470 470 460 468 437 468 c 2
 339 468 l 1
291 727 m 1
 181 632 l 2
 170 623 162 620 154 620 c 0
 136 620 120 636 120 654 c 0
 120 667 122 670 143 689 c 1
 291 813 l 1
 437 689 l 1
 446 681 l 2
 456 673 460 666 460 654 c 0
 460 636 445 620 427 620 c 0
 418 620 411 624 398 632 c 1
 291 727 l 1
EndSplineSet
Ligature: 0 0 'liga' I uni0302
EndChar
StartChar: Idotaccent
Encoding: 280 304 174
Width: 578
Flags: W
HStem: 0 97<144 242 339 450> 468 97<144 242 144 450> 657 117<291 293>
VStem: 242 97<96 468>
Fore
339 468 m 1
 339 97 l 1
 437 97 l 2
 463 97 470 95 480 88 c 0
 494 78 501 64 501 48 c 0
 501 16 480 0 437 0 c 2
 144 0 l 2
 121 0 109 2 101 9 c 0
 88 19 81 34 81 48 c 0
 81 65 89 81 104 90 c 1
 113 97 119 97 144 97 c 2
 242 97 l 1
 242 468 l 1
 144 468 l 2
 120 468 109 470 101 477 c 0
 88 487 81 501 81 516 c 0
 81 533 89 549 104 558 c 1
 113 565 119 565 144 565 c 2
 437 565 l 2
 463 565 470 563 480 556 c 0
 494 546 501 532 501 516 c 0
 501 500 492 484 477 474 c 0
 470 470 460 468 437 468 c 2
 339 468 l 1
291 774 m 0
 324 774 349 747 349 714 c 0
 349 683 322 657 291 657 c 0
 259 657 232 683 232 715 c 0
 232 747 259 774 291 774 c 0
EndSplineSet
Ligature: 0 0 'liga' I uni0307
EndChar
StartChar: Lacute
Encoding: 281 313 175
Width: 578
Flags: W
HStem: 0 97<97 152 248 554> 0 250<495 554> 468 97<97 152 97 321>
VStem: 152 96<97 468>
DStem: 316 798 361 743 187 690 232 636
Fore
248 468 m 1xb0
 248 97 l 1
 456 97 l 1xb0
 456 186 l 2
 456 211 458 221 466 231 c 1
 474 244 489 250 505 250 c 0x70
 521 250 536 242 546 228 c 0
 552 219 554 210 554 186 c 2
 554 0 l 1
 97 0 l 2
 74 0 60 2 51 9 c 0
 40 19 32 33 32 48 c 0
 32 65 40 81 55 90 c 1
 64 97 71 97 97 97 c 2
 152 97 l 1
 152 468 l 1
 97 468 l 2
 71 468 61 470 51 477 c 1
 40 487 32 501 32 516 c 0
 32 533 40 549 55 558 c 1
 64 565 71 565 97 565 c 2
 303 565 l 2
 329 565 337 563 347 556 c 0
 360 546 367 532 367 516 c 0
 367 500 358 484 345 474 c 1
 336 470 326 468 303 468 c 2
 248 468 l 1xb0
361 743 m 2
 232 636 l 1
 219 624 209 620 202 620 c 0
 181 620 164 636 164 655 c 0
 164 666 171 678 187 690 c 1
 316 798 l 2
 329 809 337 813 347 813 c 0
 367 813 381 797 381 778 c 0
 381 766 378 756 361 743 c 2
EndSplineSet
Ligature: 0 0 'liga' L acutecomb
EndChar
StartChar: Lcaron
Encoding: 282 317 176
Width: 578
Flags: W
HStem: 0 97<97 152 248 554> 468 97<97 152 97 321>
VStem: 152 96<97 468>
DStem: 480 554 539 515 401 433 460 392
Fore
248 468 m 1
 248 97 l 1
 456 97 l 1
 456 186 l 2
 456 211 458 221 466 231 c 1
 474 244 489 250 505 250 c 0
 521 250 536 242 546 228 c 0
 552 219 554 210 554 186 c 2
 554 0 l 1
 97 0 l 2
 74 0 60 2 51 9 c 0
 40 19 32 33 32 48 c 0
 32 65 40 81 55 90 c 1
 64 97 71 97 97 97 c 2
 152 97 l 1
 152 468 l 1
 97 468 l 2
 71 468 61 470 51 477 c 1
 40 487 32 501 32 516 c 0
 32 533 40 549 55 558 c 1
 64 565 71 565 97 565 c 2
 303 565 l 2
 329 565 337 563 347 556 c 0
 360 546 367 532 367 516 c 0
 367 500 358 484 345 474 c 1
 336 470 326 468 303 468 c 2
 248 468 l 1
539 515 m 1
 460 392 l 2
 448 373 439 367 425 367 c 0
 406 367 389 381 389 401 c 0
 389 411 394 420 401 433 c 1
 480 554 l 1
 492 574 502 580 518 580 c 0
 536 580 552 563 552 543 c 0
 552 536 549 525 539 515 c 1
EndSplineSet
Ligature: 0 0 'liga' L uni030C
EndChar
StartChar: Nacute
Encoding: 283 323 177
Width: 578
Flags: W
HStem: 0 97<55 77 169 217> 468 97<56 71 361.216 418 508 530.334>
VStem: 71 98<96 381> 418 97<185 468>
DStem: 169 381 169 565 418 0 418 185 394 798 437 743 264 690 309 636
Fore
169 381 m 1
 169 97 l 1
 202 97 l 2
 228 97 236 95 246 88 c 0
 259 78 265 64 265 48 c 0
 265 32 257 16 242 7 c 1
 236 2 221 0 202 0 c 2
 77 0 l 2
 53 0 40 2 32 9 c 0
 19 19 12 33 12 48 c 0
 12 81 33 97 71 97 c 1
 71 468 l 1
 56 468 l 2
 32 468 22 470 12 477 c 0
 0 487 -8 501 -8 516 c 0
 -8 533 1 549 16 558 c 1
 24 565 31 565 56 565 c 2
 169 565 l 1
 418 185 l 1
 418 468 l 1
 384 468 l 2
 360 468 349 470 340 477 c 0
 329 487 319 501 319 516 c 0
 319 533 329 549 343 558 c 0
 352 565 358 565 384 565 c 2
 508 565 l 2
 536 565 543 563 554 556 c 1
 566 546 574 532 574 516 c 0
 574 485 554 468 515 468 c 1
 515 0 l 1
 418 0 l 1
 169 381 l 1
437 743 m 2
 309 636 l 1
 296 624 287 620 277 620 c 0
 259 620 242 636 242 655 c 0
 242 666 249 678 264 690 c 2
 394 798 l 2
 407 809 415 813 425 813 c 0
 445 813 460 797 460 778 c 0
 460 766 453 756 437 743 c 2
EndSplineSet
Ligature: 0 0 'liga' N acutecomb
EndChar
StartChar: Ncaron
Encoding: 284 327 178
Width: 578
Flags: W
HStem: 0 97<55 77 169 217> 468 97<56 71 361.216 418 508 530.334>
VStem: 71 98<96 381> 418 97<185 468>
DStem: 144 744 182 800 291 620 291 706 169 381 169 565 418 0 418 185 400 800 437 744 291 706 291 620
Fore
169 381 m 1
 169 97 l 1
 202 97 l 2
 228 97 236 95 246 88 c 0
 259 78 265 64 265 48 c 0
 265 32 257 16 242 7 c 1
 236 2 221 0 202 0 c 2
 77 0 l 2
 53 0 40 2 32 9 c 0
 19 19 12 33 12 48 c 0
 12 81 33 97 71 97 c 1
 71 468 l 1
 56 468 l 2
 32 468 22 470 12 477 c 0
 0 487 -8 501 -8 516 c 0
 -8 533 1 549 16 558 c 1
 24 565 31 565 56 565 c 2
 169 565 l 1
 418 185 l 1
 418 468 l 1
 384 468 l 2
 360 468 349 470 340 477 c 0
 329 487 319 501 319 516 c 0
 319 533 329 549 343 558 c 0
 352 565 358 565 384 565 c 2
 508 565 l 2
 536 565 543 563 554 556 c 1
 566 546 574 532 574 516 c 0
 574 485 554 468 515 468 c 1
 515 0 l 1
 418 0 l 1
 169 381 l 1
291 706 m 1
 400 800 l 1
 412 809 418 813 428 813 c 0
 446 813 461 797 461 778 c 0
 461 767 457 760 446 751 c 2
 437 744 l 1
 291 620 l 1
 144 744 l 2
 123 761 121 766 121 778 c 0
 121 797 136 813 155 813 c 0
 164 813 170 809 182 800 c 1
 291 706 l 1
EndSplineSet
Ligature: 0 0 'liga' N uni030C
EndChar
StartChar: Ntilde
Encoding: 285 209 179
Width: 578
Flags: W
HStem: 0 97<55 77 169 222> 468 97<56 71 384 418 508 530.334> 646 66<359 365> 708 66<214 221>
VStem: 71 98<96 381> 418 97<185 468>
DStem: 169 381 169 565 418 0 418 185
Fore
169 381 m 1xcc
 169 97 l 1
 202 97 l 2
 228 97 236 95 246 88 c 0
 259 78 265 64 265 48 c 0
 265 32 257 16 242 7 c 1
 236 2 221 0 202 0 c 2
 77 0 l 2
 53 0 40 2 32 9 c 0
 19 19 12 33 12 48 c 0
 12 81 33 97 71 97 c 1
 71 468 l 1
 56 468 l 2
 32 468 22 470 12 477 c 0
 0 487 -8 501 -8 516 c 0
 -8 533 1 549 16 558 c 1
 24 565 31 565 56 565 c 2
 169 565 l 1
 418 185 l 1
 418 468 l 1
 384 468 l 2
 360 468 349 470 340 477 c 0
 329 487 319 501 319 516 c 0
 319 533 329 549 343 558 c 0
 352 565 358 565 384 565 c 2
 508 565 l 2
 536 565 543 563 554 556 c 1
 566 546 574 532 574 516 c 0
 574 485 554 468 515 468 c 1
 515 0 l 1
 418 0 l 1
 169 381 l 1xcc
437 774 m 0xdc
 456 772 469 761 469 747 c 0
 469 732 461 719 441 693 c 0
 415 660 391 646 363 646 c 0xec
 342 646 310 660 267 687 c 0
 241 704 232 708 219 708 c 0
 202 708 194 702 164 663 c 0
 158 654 150 649 140 649 c 0
 123 649 110 662 110 678 c 0
 110 691 119 709 136 728 c 1
 160 759 188 774 216 774 c 0xdc
 240 774 257 767 304 738 c 0
 335 720 349 712 361 712 c 0xec
 375 712 379 717 400 745 c 1
 412 764 425 774 437 774 c 0xdc
EndSplineSet
Ligature: 0 0 'liga' N tildecomb
EndChar
StartChar: Odieresis
Encoding: 286 214 180
Width: 578
Flags: W
HStem: -15 99<291 309> 482 96<291 309> 657 117<180.101 197 391 393>
VStem: 20 97<283 290> 132 116<704 722> 332 118<704 722> 464 97<272 290>
Fore
291 578 m 0
 356 578 418 552 470 503 c 0
 532 446 561 371 561 277 c 0
 561 119 437 -15 291 -15 c 0
 141 -15 20 119 20 283 c 0
 20 446 141 578 291 578 c 0
291 482 m 0
 195 482 117 391 117 283 c 0
 117 172 195 84 291 84 c 0
 384 84 464 172 464 280 c 0
 464 391 387 482 291 482 c 0
191 774 m 0
 224 774 248 747 248 714 c 0
 248 683 222 657 191 657 c 0
 158 657 132 683 132 715 c 0
 132 747 158 774 191 774 c 0
391 774 m 0
 425 774 450 747 450 714 c 0
 450 683 423 657 391 657 c 0
 360 657 332 683 332 715 c 0
 332 747 360 774 391 774 c 0
EndSplineSet
KernsSLIF: 89 -51 0 0 88 -30 0 0 87 -2 0 0 86 -28 0 0 84 -19 0 0 65 -19 0 0
Ligature: 0 0 'liga' O uni0308
EndChar
StartChar: Oacute
Encoding: 287 211 181
Width: 578
Flags: W
HStem: -15 99<291 309> 482 96<291 309>
VStem: 20 97<283 290> 464 97<272 290>
DStem: 365 798 411 743 236 690 281 636
Fore
291 578 m 0
 356 578 418 552 470 503 c 0
 532 446 561 371 561 277 c 0
 561 119 437 -15 291 -15 c 0
 141 -15 20 119 20 283 c 0
 20 446 141 578 291 578 c 0
291 482 m 0
 195 482 117 391 117 283 c 0
 117 172 195 84 291 84 c 0
 384 84 464 172 464 280 c 0
 464 391 387 482 291 482 c 0
411 743 m 2
 281 636 l 1
 268 624 259 620 250 620 c 0
 231 620 214 636 214 655 c 0
 214 666 221 678 236 690 c 2
 365 798 l 2
 379 809 387 813 396 813 c 0
 417 813 433 797 433 778 c 0
 433 766 427 756 411 743 c 2
EndSplineSet
KernsSLIF: 89 -51 0 0 87 -2 0 0 86 -28 0 0 84 -19 0 0 65 -19 0 0
Ligature: 0 0 'liga' O acutecomb
EndChar
StartChar: Ograve
Encoding: 288 210 182
Width: 578
Flags: W
HStem: -15 99<291 309> 482 96<291 309>
VStem: 20 97<283 290> 464 97<272 290>
DStem: 171 743 216 798 299 636 345 690
Fore
291 578 m 0
 356 578 418 552 470 503 c 0
 532 446 561 371 561 277 c 0
 561 119 437 -15 291 -15 c 0
 141 -15 20 119 20 283 c 0
 20 446 141 578 291 578 c 0
291 482 m 0
 195 482 117 391 117 283 c 0
 117 172 195 84 291 84 c 0
 384 84 464 172 464 280 c 0
 464 391 387 482 291 482 c 0
216 798 m 2
 345 690 l 2
 361 677 367 666 367 655 c 0
 367 636 350 620 332 620 c 0
 322 620 313 624 299 636 c 2
 171 743 l 1
 155 758 149 766 149 778 c 0
 149 797 164 813 185 813 c 0
 195 813 202 809 216 798 c 2
EndSplineSet
KernsSLIF: 89 -51 0 0 86 -28 0 0 84 -19 0 0
Ligature: 0 0 'liga' O gravecomb
EndChar
StartChar: Ocircumflex
Encoding: 289 212 183
Width: 578
Flags: W
HStem: -15 99<291 309> 482 96<291 309>
VStem: 20 97<283 290> 464 97<272 290>
DStem: 291 727 291 813 398 632 437 689 291 813 291 727 143 689 181 632 291 727 291 813 398 632 437 689 291 813 291 727 143 689 181 632 291 727 291 813 398 632 437 689 291 813 291 727 143 689 181 632 291 727 291 813 398 632 437 689 291 813 291 727 143 689 181 632 291 727 291 813 398 632 437 689 291 813 291 727 143 689 181 632
Fore
291 578 m 0
 356 578 418 552 470 503 c 0
 532 446 561 371 561 277 c 0
 561 119 437 -15 291 -15 c 0
 141 -15 20 119 20 283 c 0
 20 446 141 578 291 578 c 0
291 482 m 0
 195 482 117 391 117 283 c 0
 117 172 195 84 291 84 c 0
 384 84 464 172 464 280 c 0
 464 391 387 482 291 482 c 0
291 727 m 1
 181 632 l 2
 170 623 162 620 154 620 c 0
 136 620 120 636 120 654 c 0
 120 667 122 670 143 689 c 1
 291 813 l 1
 437 689 l 1
 446 681 l 2
 456 673 460 666 460 654 c 0
 460 636 445 620 427 620 c 0
 418 620 411 624 398 632 c 1
 291 727 l 1
EndSplineSet
KernsSLIF: 89 -51 0 0 86 -28 0 0 84 -19 0 0
Ligature: 0 0 'liga' O uni0302
EndChar
StartChar: Otilde
Encoding: 290 213 184
Width: 578
Flags: W
HStem: -15 99<291 309> 482 96<291 309> 646 66<366 373> 646 128<371 446> 708 66<223 228>
VStem: 20 97<283 290> 464 97<272 290>
Fore
291 578 m 0xc6
 356 578 418 552 470 503 c 0
 532 446 561 371 561 277 c 0
 561 119 437 -15 291 -15 c 0
 141 -15 20 119 20 283 c 0
 20 446 141 578 291 578 c 0xc6
291 482 m 0
 195 482 117 391 117 283 c 0
 117 172 195 84 291 84 c 0
 384 84 464 172 464 280 c 0
 464 391 387 482 291 482 c 0
446 774 m 0xd6
 462 774 477 760 477 747 c 0
 477 732 469 719 450 693 c 1
 422 660 398 646 371 646 c 0xe6
 349 646 318 660 275 687 c 0
 249 704 240 708 226 708 c 0
 209 708 202 701 172 663 c 0
 166 654 158 649 148 649 c 0
 132 649 119 662 119 678 c 0
 119 691 128 710 144 730 c 0
 169 759 197 774 225 774 c 0xce
 247 774 264 767 312 738 c 0
 345 719 357 712 368 712 c 0xe6
 381 712 387 716 408 745 c 1
 420 764 434 774 446 774 c 0xd6
EndSplineSet
KernsSLIF: 89 -51 0 0 86 -28 0 0 84 -19 0 0
Ligature: 0 0 'liga' O tildecomb
EndChar
StartChar: Ohungarumlaut
Encoding: 291 336 185
Width: 578
Flags: W
HStem: -15 99<291 309> 482 96<291 309>
VStem: 20 97<283 290> 464 97<272 290>
DStem: 279 797 321 741 180 690 222 636 437 797 480 741 339 690 381 636
Fore
291 578 m 0
 356 578 418 552 470 503 c 0
 532 446 561 371 561 277 c 0
 561 119 437 -15 291 -15 c 0
 141 -15 20 119 20 283 c 0
 20 446 141 578 291 578 c 0
291 482 m 0
 195 482 117 391 117 283 c 0
 117 172 195 84 291 84 c 0
 384 84 464 172 464 280 c 0
 464 391 387 482 291 482 c 0
321 741 m 1
 222 636 l 2
 211 624 202 620 194 620 c 0
 177 620 160 636 160 655 c 0
 160 666 161 670 180 690 c 2
 279 797 l 1
 291 808 296 813 307 813 c 0
 325 813 340 797 340 776 c 0
 340 766 334 756 321 741 c 1
480 741 m 1
 381 636 l 1
 371 624 361 620 353 620 c 0
 335 620 319 636 319 655 c 0
 319 666 319 667 339 690 c 2
 437 797 l 1
 450 808 456 813 466 813 c 0
 484 813 499 797 499 776 c 0
 499 766 494 758 480 741 c 1
EndSplineSet
Ligature: 0 0 'liga' O uni030B
EndChar
StartChar: Racute
Encoding: 292 340 186
Width: 578
Flags: W
HStem: 0 97<77 90 188 242 522 557> 468 97<77 90 77 311>
VStem: 90 98<96 215 97 468> 403 102<390 401>
DStem: 394 798 437 743 264 690 309 636
Fore
188 215 m 1
 188 97 l 1
 222 97 l 2
 248 97 257 95 267 88 c 1
 277 78 286 64 286 48 c 0
 286 32 277 16 263 7 c 0
 257 2 241 0 222 0 c 2
 77 0 l 2
 54 0 40 2 33 9 c 1
 20 19 12 34 12 48 c 0
 12 65 22 81 35 90 c 0
 45 97 53 97 77 97 c 2
 90 97 l 1
 90 468 l 1
 77 468 l 2
 51 468 40 470 33 477 c 1
 20 487 12 501 12 516 c 0
 12 533 22 549 35 558 c 0
 45 565 51 565 77 565 c 2
 293 565 l 2
 418 565 505 494 505 392 c 0
 505 332 472 285 401 246 c 1
 446 208 482 162 523 97 c 1
 536 97 l 2
 560 97 570 95 581 88 c 0
 591 81 600 64 600 48 c 0
 600 32 591 16 577 7 c 0
 570 2 555 0 536 0 c 2
 460 0 l 1
 411 94 322 202 281 215 c 1
 188 215 l 1
188 312 m 1
 260 312 l 2
 343 312 403 347 403 395 c 0
 403 437 358 468 296 468 c 2
 188 468 l 1
 188 312 l 1
437 743 m 2
 309 636 l 1
 296 624 287 620 277 620 c 0
 259 620 242 636 242 655 c 0
 242 666 249 678 264 690 c 2
 394 798 l 2
 407 809 415 813 425 813 c 0
 445 813 460 797 460 778 c 0
 460 766 453 756 437 743 c 2
EndSplineSet
Ligature: 0 0 'liga' R acutecomb
EndChar
StartChar: Rcaron
Encoding: 293 344 187
Width: 578
Flags: W
HStem: 0 97<77 90 188 237 522 557> 468 97<77 90 77 301>
VStem: 90 98<96 215 97 468> 403 102<390 401>
DStem: 144 744 182 800 291 620 291 706 400 800 437 744 291 706 291 620
Fore
188 215 m 1
 188 97 l 1
 222 97 l 2
 248 97 257 95 267 88 c 1
 277 78 286 64 286 48 c 0
 286 32 277 16 263 7 c 0
 257 2 241 0 222 0 c 2
 77 0 l 2
 54 0 40 2 33 9 c 1
 20 19 12 34 12 48 c 0
 12 65 22 81 35 90 c 0
 45 97 53 97 77 97 c 2
 90 97 l 1
 90 468 l 1
 77 468 l 2
 51 468 40 470 33 477 c 1
 20 487 12 501 12 516 c 0
 12 533 22 549 35 558 c 0
 45 565 51 565 77 565 c 2
 293 565 l 2
 418 565 505 494 505 392 c 0
 505 332 472 285 401 246 c 1
 446 208 482 162 523 97 c 1
 536 97 l 2
 560 97 570 95 581 88 c 0
 591 81 600 64 600 48 c 0
 600 32 591 16 577 7 c 0
 570 2 555 0 536 0 c 2
 460 0 l 1
 411 94 322 202 281 215 c 1
 188 215 l 1
188 312 m 1
 260 312 l 2
 343 312 403 347 403 395 c 0
 403 437 358 468 296 468 c 2
 188 468 l 1
 188 312 l 1
291 706 m 1
 400 800 l 1
 412 809 418 813 428 813 c 0
 446 813 461 797 461 778 c 0
 461 767 457 760 446 751 c 2
 437 744 l 1
 291 620 l 1
 144 744 l 2
 123 761 121 766 121 778 c 0
 121 797 136 813 155 813 c 0
 164 813 170 809 182 800 c 1
 291 706 l 1
EndSplineSet
Ligature: 0 0 'liga' R uni030C
EndChar
StartChar: Sacute
Encoding: 294 346 188
Width: 578
Flags: W
HStem: -15 99<275 315> 1 192<106 111> 482 96<290 309>
VStem: 81 99<400 419> 420 101<146 162>
DStem: 394 798 437 743 264 690 309 636
Fore
501 515 m 2xb8
 501 429 l 2
 501 402 499 394 492 384 c 0
 482 371 468 364 453 364 c 0
 440 364 427 370 418 378 c 1
 412 386 412 386 404 417 c 0
 396 456 349 482 290 482 c 0
 228 482 180 450 180 408 c 0
 180 388 195 365 216 356 c 1
 236 345 240 343 313 329 c 0
 397 314 434 299 464 276 c 0
 503 244 521 205 521 155 c 0
 521 54 433 -15 299 -15 c 0xb8
 247 -15 195 -1 148 24 c 1
 132 5 125 1 109 1 c 0
 76 1 60 22 60 65 c 2
 60 129 l 2
 60 153 62 164 70 172 c 1
 78 186 93 193 108 193 c 0x78
 122 193 136 188 143 178 c 1
 150 172 150 172 158 146 c 0
 169 112 228 84 293 84 c 0
 364 84 420 115 420 156 c 0
 420 177 407 197 386 208 c 0
 365 219 349 224 283 234 c 0
 221 244 191 255 159 273 c 0
 109 299 81 352 81 407 c 0
 81 505 170 578 290 578 c 0
 339 578 381 567 415 546 c 1
 425 570 434 578 453 578 c 0
 470 578 487 570 494 556 c 1
 500 549 501 539 501 515 c 2xb8
437 743 m 2
 309 636 l 1
 296 624 287 620 277 620 c 0
 259 620 242 636 242 655 c 0
 242 666 249 678 264 690 c 2
 394 798 l 2
 407 809 415 813 425 813 c 0
 445 813 460 797 460 778 c 0
 460 766 453 756 437 743 c 2
EndSplineSet
Ligature: 0 0 'liga' S acutecomb
EndChar
StartChar: Scaron
Encoding: 295 352 189
Width: 578
Flags: W
HStem: -15 99<281 315> 1 192<106 111> 482 96<290 306>
VStem: 81 99<400 419> 420 101<146 162>
DStem: 156 744 195 800 304 620 304 706 412 800 450 744 304 706 304 620
Fore
501 515 m 2xb8
 501 429 l 2
 501 402 499 394 492 384 c 0
 482 371 468 364 453 364 c 0
 440 364 427 370 418 378 c 1
 412 386 412 386 404 417 c 0
 396 456 349 482 290 482 c 0
 228 482 180 450 180 408 c 0
 180 388 195 365 216 356 c 1
 236 345 240 343 313 329 c 0
 397 314 434 299 464 276 c 0
 503 244 521 205 521 155 c 0
 521 54 433 -15 299 -15 c 0xb8
 247 -15 195 -1 148 24 c 1
 132 5 125 1 109 1 c 0
 76 1 60 22 60 65 c 2
 60 129 l 2
 60 153 62 164 70 172 c 1
 78 186 93 193 108 193 c 0x78
 122 193 136 188 143 178 c 1
 150 172 150 172 158 146 c 0
 169 112 228 84 293 84 c 0
 364 84 420 115 420 156 c 0
 420 177 407 197 386 208 c 0
 365 219 349 224 283 234 c 0
 221 244 191 255 159 273 c 0
 109 299 81 352 81 407 c 0
 81 505 170 578 290 578 c 0
 339 578 381 567 415 546 c 1
 425 570 434 578 453 578 c 0
 470 578 487 570 494 556 c 1
 500 549 501 539 501 515 c 2xb8
304 706 m 1
 412 800 l 1
 425 809 431 813 441 813 c 0
 458 813 474 797 474 778 c 0
 474 767 470 760 460 751 c 1
 450 744 l 1
 304 620 l 1
 156 744 l 2
 136 761 133 766 133 778 c 0
 133 797 149 813 169 813 c 0
 177 813 183 809 195 800 c 1
 304 706 l 1
EndSplineSet
Ligature: 0 0 'liga' S uni030C
EndChar
StartChar: Scedilla
Encoding: 296 350 190
Width: 578
Flags: W
HStem: -222 68<281 301> -97 181<273 291> 1 192<98.2221 111> 482 96<290 301>
VStem: 81 97<401 419> 254 68<-99 -12> 326 68<-137 -124> 420 101<146 163>
Fore
322 -12 m 1xdf
 322 -40 l 1
 371 -50 394 -78 394 -128 c 0
 394 -183 350 -222 290 -222 c 0
 264 -222 225 -211 202 -198 c 0
 183 -188 174 -177 174 -161 c 0
 174 -143 191 -127 208 -127 c 0
 216 -127 218 -128 236 -138 c 0
 254 -147 275 -154 291 -154 c 0
 314 -154 326 -146 326 -129 c 0
 326 -109 307 -97 275 -97 c 0xdf
 270 -97 265 -97 254 -99 c 1
 254 -11 l 1
 224 -7 178 8 148 24 c 1
 132 5 125 1 108 1 c 0
 76 1 60 22 60 65 c 2
 60 129 l 2
 60 153 62 164 70 172 c 1
 78 186 93 193 108 193 c 0xbf
 122 193 136 188 143 178 c 1
 150 172 150 172 156 146 c 1
 169 112 228 84 291 84 c 0
 364 84 420 115 420 156 c 0
 420 177 407 197 386 208 c 0
 364 219 349 224 283 234 c 0
 220 244 191 255 159 273 c 0
 109 299 81 352 81 407 c 0
 81 505 170 578 290 578 c 0
 339 578 381 567 415 546 c 1
 425 570 434 578 453 578 c 0
 470 578 487 570 494 556 c 1
 500 549 501 539 501 515 c 2
 501 429 l 2
 501 402 499 394 492 384 c 0
 482 371 468 364 453 364 c 0
 440 364 427 370 418 378 c 1
 411 386 411 386 404 417 c 0
 396 456 349 482 290 482 c 0
 228 482 178 450 178 408 c 0
 178 388 194 365 215 356 c 1
 234 345 240 343 312 329 c 0
 396 314 433 299 464 276 c 1
 503 244 521 205 521 155 c 0
 521 60 446 -4 322 -12 c 1xdf
EndSplineSet
Ligature: 0 0 'liga' S uni0327
EndChar
StartChar: Tcaron
Encoding: 297 356 191
Width: 578
Flags: W
HStem: 0 97<178 241 339 409> 468 97<40 241 40 443>
VStem: 40 98<378 468> 241 98<96 468> 443 98<378 468>
DStem: 144 744 182 800 291 620 291 706 400 800 437 744 291 706 291 620
Fore
339 468 m 1
 339 97 l 1
 402 97 l 2
 428 97 436 95 446 88 c 0
 458 78 466 64 466 48 c 0
 466 32 457 16 443 7 c 0
 436 2 420 0 402 0 c 2
 178 0 l 2
 156 0 143 2 136 9 c 1
 122 19 115 34 115 48 c 0
 115 65 123 81 138 90 c 1
 146 97 153 97 178 97 c 2
 241 97 l 1
 241 468 l 1
 138 468 l 1
 138 378 l 2
 138 352 136 345 129 334 c 1
 119 322 105 314 89 314 c 0
 73 314 56 322 47 337 c 0
 43 346 40 356 40 378 c 2
 40 565 l 1
 541 565 l 1
 541 378 l 2
 541 350 539 345 532 334 c 1
 522 322 508 314 492 314 c 0
 477 314 460 324 450 337 c 1
 446 346 443 356 443 378 c 2
 443 468 l 1
 339 468 l 1
291 706 m 1
 400 800 l 1
 412 809 418 813 428 813 c 0
 446 813 461 797 461 778 c 0
 461 767 457 760 446 751 c 2
 437 744 l 1
 291 620 l 1
 144 744 l 2
 123 761 121 766 121 778 c 0
 121 797 136 813 155 813 c 0
 164 813 170 809 182 800 c 1
 291 706 l 1
EndSplineSet
Ligature: 0 0 'liga' T uni030C
EndChar
StartChar: Udieresis
Encoding: 298 220 192
Width: 578
Flags: W
HStem: -15 99<291 298> 468 97<74 218 381 415 508 527.388> 657 117<191 202 391 393>
VStem: 70 96<189 468> 132 116<704 722> 332 118<704 722> 415 97<189 468>
Fore
512 468 m 1xf2
 512 198 l 2
 512 129 487 76 431 34 c 0
 389 2 345 -15 291 -15 c 0
 239 -15 192 2 150 34 c 0
 97 76 70 129 70 198 c 2
 70 468 l 1
 31 469 9 485 9 516 c 0
 9 533 19 549 33 558 c 1
 40 565 50 565 74 565 c 2
 200 565 l 2
 226 565 234 565 244 556 c 0
 257 546 264 532 264 516 c 0
 264 500 255 484 240 474 c 0
 232 470 222 468 200 468 c 2
 166 468 l 1
 166 191 l 2
 166 131 222 84 291 84 c 0
 360 84 415 131 415 191 c 2
 415 468 l 1
 381 468 l 2
 356 468 347 470 339 477 c 0
 326 487 318 501 318 516 c 0
 318 533 326 549 341 558 c 1
 349 565 356 565 381 565 c 2
 508 565 l 2
 534 565 542 563 552 556 c 0
 565 546 572 532 572 516 c 0
 572 485 551 468 512 468 c 1xf2
191 774 m 0
 224 774 248 747 248 714 c 0
 248 683 222 657 191 657 c 0
 158 657 132 683 132 715 c 0xe8
 132 747 158 774 191 774 c 0
391 774 m 0
 425 774 450 747 450 714 c 0
 450 683 423 657 391 657 c 0
 360 657 332 683 332 715 c 0xe4
 332 747 360 774 391 774 c 0
EndSplineSet
KernsSLIF: 114 -42 0 0 46 -141 0 0 110 -10 0 0 109 20 0 0 44 -118 0 0 98 33 0 0 65 -24 0 0
Ligature: 0 0 'liga' U uni0308
EndChar
StartChar: Uacute
Encoding: 299 218 193
Width: 578
Flags: W
HStem: -15 99<291 298> 468 97<74 218 381 414 508 527.388>
VStem: 70 96<189 468> 415 97<189 468>
DStem: 365 798 411 743 236 690 281 636
Fore
512 468 m 1
 512 198 l 2
 512 129 487 76 431 34 c 0
 389 2 345 -15 291 -15 c 0
 239 -15 192 2 150 34 c 0
 97 76 70 129 70 198 c 2
 70 468 l 1
 31 469 9 485 9 516 c 0
 9 533 19 549 33 558 c 1
 40 565 50 565 74 565 c 2
 200 565 l 2
 226 565 234 565 244 556 c 0
 257 546 264 532 264 516 c 0
 264 500 255 484 240 474 c 0
 232 470 222 468 200 468 c 2
 166 468 l 1
 166 191 l 2
 166 131 222 84 291 84 c 0
 360 84 415 131 415 191 c 2
 415 468 l 1
 381 468 l 2
 356 468 347 470 339 477 c 0
 326 487 318 501 318 516 c 0
 318 533 326 549 341 558 c 1
 349 565 356 565 381 565 c 2
 508 565 l 2
 534 565 542 563 552 556 c 0
 565 546 572 532 572 516 c 0
 572 485 551 468 512 468 c 1
411 743 m 2
 281 636 l 1
 268 624 259 620 250 620 c 0
 231 620 214 636 214 655 c 0
 214 666 221 678 236 690 c 2
 365 798 l 2
 379 809 387 813 396 813 c 0
 417 813 433 797 433 778 c 0
 433 766 427 756 411 743 c 2
EndSplineSet
KernsSLIF: 114 -42 0 0 46 -141 0 0 110 -10 0 0 109 20 0 0 44 -118 0 0 65 -24 0 0
Ligature: 0 0 'liga' U acutecomb
EndChar
StartChar: Ugrave
Encoding: 300 217 194
Width: 578
Flags: W
HStem: -15 99<291 302> 468 97<74 218 381 415 508 527.388>
VStem: 70 96<189 468> 415 97<189 468>
DStem: 171 743 216 798 299 636 345 690
Fore
512 468 m 1
 512 198 l 2
 512 129 487 76 431 34 c 0
 389 2 345 -15 291 -15 c 0
 239 -15 192 2 150 34 c 0
 97 76 70 129 70 198 c 2
 70 468 l 1
 31 469 9 485 9 516 c 0
 9 533 19 549 33 558 c 1
 40 565 50 565 74 565 c 2
 200 565 l 2
 226 565 234 565 244 556 c 0
 257 546 264 532 264 516 c 0
 264 500 255 484 240 474 c 0
 232 470 222 468 200 468 c 2
 166 468 l 1
 166 191 l 2
 166 131 222 84 291 84 c 0
 360 84 415 131 415 191 c 2
 415 468 l 1
 381 468 l 2
 356 468 347 470 339 477 c 0
 326 487 318 501 318 516 c 0
 318 533 326 549 341 558 c 1
 349 565 356 565 381 565 c 2
 508 565 l 2
 534 565 542 563 552 556 c 0
 565 546 572 532 572 516 c 0
 572 485 551 468 512 468 c 1
216 798 m 2
 345 690 l 2
 361 677 367 666 367 655 c 0
 367 636 350 620 332 620 c 0
 322 620 313 624 299 636 c 2
 171 743 l 1
 155 758 149 766 149 778 c 0
 149 797 164 813 185 813 c 0
 195 813 202 809 216 798 c 2
EndSplineSet
KernsSLIF: 65 -24 0 0
Ligature: 0 0 'liga' U gravecomb
EndChar
StartChar: Ucircumflex
Encoding: 301 219 195
Width: 578
Flags: W
HStem: -15 99<291 298> 468 97<74 218 381 415 508 527.388>
VStem: 70 96<189 468> 415 97<189 468>
DStem: 291 727 291 813 398 632 437 689 291 813 291 727 143 689 181 632 291 727 291 813 398 632 437 689 291 813 291 727 143 689 181 632 291 727 291 813 398 632 437 689 291 813 291 727 143 689 181 632 291 727 291 813 398 632 437 689 291 813 291 727 143 689 181 632 291 727 291 813 398 632 437 689 291 813 291 727 143 689 181 632
Fore
512 468 m 1
 512 198 l 2
 512 129 487 76 431 34 c 0
 389 2 345 -15 291 -15 c 0
 239 -15 192 2 150 34 c 0
 97 76 70 129 70 198 c 2
 70 468 l 1
 31 469 9 485 9 516 c 0
 9 533 19 549 33 558 c 1
 40 565 50 565 74 565 c 2
 200 565 l 2
 226 565 234 565 244 556 c 0
 257 546 264 532 264 516 c 0
 264 500 255 484 240 474 c 0
 232 470 222 468 200 468 c 2
 166 468 l 1
 166 191 l 2
 166 131 222 84 291 84 c 0
 360 84 415 131 415 191 c 2
 415 468 l 1
 381 468 l 2
 356 468 347 470 339 477 c 0
 326 487 318 501 318 516 c 0
 318 533 326 549 341 558 c 1
 349 565 356 565 381 565 c 2
 508 565 l 2
 534 565 542 563 552 556 c 0
 565 546 572 532 572 516 c 0
 572 485 551 468 512 468 c 1
291 727 m 1
 181 632 l 2
 170 623 162 620 154 620 c 0
 136 620 120 636 120 654 c 0
 120 667 122 670 143 689 c 1
 291 813 l 1
 437 689 l 1
 446 681 l 2
 456 673 460 666 460 654 c 0
 460 636 445 620 427 620 c 0
 418 620 411 624 398 632 c 1
 291 727 l 1
EndSplineSet
KernsSLIF: 65 -24 0 0
Ligature: 0 0 'liga' U uni0302
EndChar
StartChar: Uring
Encoding: 302 366 196
Width: 578
Flags: W
HStem: -15 99<291 298> 468 97<74 218 381 414 508 527.388> 611 52<291 298> 792 52<291 298>
VStem: 70 96<189 468> 171 53<728 738> 358 53<720 738> 415 97<189 468>
Fore
512 468 m 1
 512 198 l 2
 512 129 487 76 431 34 c 0
 389 2 345 -15 291 -15 c 0
 239 -15 192 2 150 34 c 0
 97 76 70 129 70 198 c 2
 70 468 l 1
 31 469 9 485 9 516 c 0
 9 533 19 549 33 558 c 1
 40 565 50 565 74 565 c 2
 200 565 l 2
 226 565 234 565 244 556 c 0
 257 546 264 532 264 516 c 0
 264 500 255 484 240 474 c 0
 232 470 222 468 200 468 c 2
 166 468 l 1
 166 191 l 2
 166 131 222 84 291 84 c 0
 360 84 415 131 415 191 c 2
 415 468 l 1
 381 468 l 2
 356 468 347 470 339 477 c 0
 326 487 318 501 318 516 c 0
 318 533 326 549 341 558 c 1
 349 565 356 565 381 565 c 2
 508 565 l 2
 534 565 542 563 552 556 c 0
 565 546 572 532 572 516 c 0
 572 485 551 468 512 468 c 1
291 844 m 0
 356 844 411 790 411 725 c 0
 411 663 356 611 291 611 c 0
 226 611 171 663 171 728 c 0
 171 790 226 844 291 844 c 0
291 792 m 0
 254 792 224 761 224 728 c 0
 224 693 254 663 291 663 c 0
 326 663 358 693 358 727 c 0
 358 761 329 792 291 792 c 0
EndSplineSet
Ligature: 0 0 'liga' U uni030A
EndChar
StartChar: Uhungarumlaut
Encoding: 303 368 197
Width: 578
Flags: W
HStem: -15 99<291 309> 468 97<74 222 381 415 508 527.388>
VStem: 70 96<189 468> 415 97<189 468>
DStem: 279 797 321 741 180 690 222 636 437 797 480 741 339 690 381 636
Fore
512 468 m 1
 512 198 l 2
 512 129 487 76 431 34 c 0
 389 2 345 -15 291 -15 c 0
 239 -15 192 2 150 34 c 0
 97 76 70 129 70 198 c 2
 70 468 l 1
 31 469 9 485 9 516 c 0
 9 533 19 549 33 558 c 1
 40 565 50 565 74 565 c 2
 200 565 l 2
 226 565 234 565 244 556 c 0
 257 546 264 532 264 516 c 0
 264 500 255 484 240 474 c 0
 232 470 222 468 200 468 c 2
 166 468 l 1
 166 191 l 2
 166 131 222 84 291 84 c 0
 360 84 415 131 415 191 c 2
 415 468 l 1
 381 468 l 2
 356 468 347 470 339 477 c 0
 326 487 318 501 318 516 c 0
 318 533 326 549 341 558 c 1
 349 565 356 565 381 565 c 2
 508 565 l 2
 534 565 542 563 552 556 c 0
 565 546 572 532 572 516 c 0
 572 485 551 468 512 468 c 1
321 741 m 1
 222 636 l 2
 211 624 202 620 194 620 c 0
 177 620 160 636 160 655 c 0
 160 666 161 670 180 690 c 2
 279 797 l 1
 291 808 296 813 307 813 c 0
 325 813 340 797 340 776 c 0
 340 766 334 756 321 741 c 1
480 741 m 1
 381 636 l 1
 371 624 361 620 353 620 c 0
 335 620 319 636 319 655 c 0
 319 666 319 667 339 690 c 2
 437 797 l 1
 450 808 456 813 466 813 c 0
 484 813 499 797 499 776 c 0
 499 766 494 758 480 741 c 1
EndSplineSet
Ligature: 0 0 'liga' U uni030B
EndChar
StartChar: Yacute
Encoding: 304 221 198
Width: 578
Flags: W
HStem: 0 97<178 242 339 421> 468 97<70.974 83 499 500>
VStem: 20 216<516 518> 242 97<96 237>
DStem: 82 468 198 469 242 237 291 337 368 798 412 743 240 690 283 636 381 469 499 468 291 337 339 237
Fore
339 237 m 1
 339 97 l 1
 402 97 l 2
 429 97 437 95 446 88 c 0
 460 78 467 64 467 48 c 0
 467 32 458 16 443 7 c 1
 437 2 422 0 402 0 c 2
 178 0 l 2
 156 0 143 2 136 9 c 1
 122 19 115 33 115 48 c 0
 115 65 123 81 138 90 c 1
 146 97 153 97 178 97 c 2
 242 97 l 1
 242 237 l 1
 82 468 l 1
 43 468 20 485 20 516 c 0
 20 542 37 560 65 563 c 0
 77 565 78 565 86 565 c 2
 171 565 l 2
 198 565 208 563 216 556 c 0
 228 546 236 532 236 516 c 0
 236 494 224 480 198 469 c 1
 291 337 l 1
 381 469 l 1
 356 479 343 494 343 516 c 0
 343 533 352 549 365 558 c 0
 375 565 384 565 408 565 c 2
 497 565 l 2
 523 565 532 563 541 556 c 0
 554 546 561 532 561 516 c 0
 561 487 534 464 500 468 c 2
 499 468 l 1
 339 237 l 1
412 743 m 2
 283 636 l 1
 271 624 260 620 253 620 c 0
 234 620 218 636 218 655 c 0
 218 666 224 678 240 690 c 1
 368 798 l 2
 381 809 389 813 398 813 c 0
 419 813 435 797 435 778 c 0
 435 766 429 756 412 743 c 2
EndSplineSet
MinimumDistance: x15,20 
Ligature: 0 0 'liga' Y acutecomb
EndChar
StartChar: Zacute
Encoding: 305 377 199
Width: 578
Flags: W
HStem: 0 97<195 511> 0 231<454 511> 468 97<93 363>
VStem: 93 98<400 468>
DStem: 363 468 488 470 71 97 195 97 394 798 437 743 264 690 309 636
Fore
195 97 m 1xb0
 414 97 l 1xb0
 414 167 l 2
 414 191 415 202 422 211 c 0
 433 224 446 231 462 231 c 0x70
 479 231 495 222 503 208 c 0
 508 198 511 192 511 167 c 2
 511 0 l 1xb0
 71 0 l 1x70
 71 97 l 1
 363 468 l 1
 191 468 l 1
 191 400 l 2
 191 374 188 365 181 356 c 0
 171 345 156 336 141 336 c 0
 125 336 109 345 100 360 c 0
 95 368 93 376 93 400 c 2
 93 565 l 1
 488 565 l 1
 488 470 l 1
 195 97 l 1xb0
437 743 m 2
 309 636 l 1
 296 624 287 620 277 620 c 0
 259 620 242 636 242 655 c 0
 242 666 249 678 264 690 c 2
 394 798 l 2
 407 809 415 813 425 813 c 0
 445 813 460 797 460 778 c 0
 460 766 453 756 437 743 c 2
EndSplineSet
Ligature: 0 0 'liga' Z acutecomb
EndChar
StartChar: Zcaron
Encoding: 306 381 200
Width: 578
Flags: W
HStem: 0 97<195 511> 0 231<454 511> 468 97<93 363>
VStem: 93 98<400 468>
DStem: 143 744 181 800 291 620 291 706 363 468 488 470 71 97 195 97 398 800 437 744 291 706 291 620
Fore
195 97 m 1xb0
 414 97 l 1xb0
 414 167 l 2
 414 191 415 202 422 211 c 0
 433 224 446 231 462 231 c 0x70
 479 231 495 222 503 208 c 0
 508 198 511 192 511 167 c 2
 511 0 l 1xb0
 71 0 l 1x70
 71 97 l 1
 363 468 l 1
 191 468 l 1
 191 400 l 2
 191 374 188 365 181 356 c 0
 171 345 156 336 141 336 c 0
 125 336 109 345 100 360 c 0
 95 368 93 376 93 400 c 2
 93 565 l 1
 488 565 l 1
 488 470 l 1
 195 97 l 1xb0
291 706 m 1
 398 800 l 1
 411 809 418 813 427 813 c 0
 445 813 460 797 460 778 c 0
 460 767 456 760 446 751 c 2
 437 744 l 1
 291 620 l 1
 143 744 l 2
 122 761 120 766 120 778 c 0
 120 797 136 813 154 813 c 0
 162 813 170 809 181 800 c 2
 291 706 l 1
EndSplineSet
Ligature: 0 0 'liga' Z uni030C
EndChar
StartChar: Zdotaccent
Encoding: 307 379 201
Width: 578
Flags: W
HStem: 0 97<195 511> 0 231<454 511> 468 97<93 363> 657 117<280.343 296>
VStem: 93 98<400 468> 232 117<712 721>
DStem: 363 468 488 470 71 97 195 97
Fore
195 97 m 1xbc
 414 97 l 1xbc
 414 167 l 2
 414 191 415 202 422 211 c 0
 433 224 446 231 462 231 c 0x7c
 479 231 495 222 503 208 c 0
 508 198 511 192 511 167 c 2
 511 0 l 1xbc
 71 0 l 1x7c
 71 97 l 1
 363 468 l 1
 191 468 l 1
 191 400 l 2
 191 374 188 365 181 356 c 0
 171 345 156 336 141 336 c 0
 125 336 109 345 100 360 c 0
 95 368 93 376 93 400 c 2
 93 565 l 1
 488 565 l 1
 488 470 l 1
 195 97 l 1xbc
291 774 m 0
 324 774 349 747 349 714 c 0
 349 683 322 657 291 657 c 0
 259 657 232 683 232 715 c 0
 232 747 259 774 291 774 c 0
EndSplineSet
Ligature: 0 0 'liga' Z uni0307
EndChar
StartChar: Amacron
Encoding: 308 256 202
Width: 578
Flags: W
HStem: 0 97<27 45 150 189 380.844 425 536 557> 153 97<211 403> 468 97<133 195> 667 78<158.449 413>
DStem: 195 468 288 436 45 97 211 250 288 436 343 565 363 250 536 97
Fore
403 153 m 1
 172 153 l 1
 150 97 l 1
 172 97 l 2
 198 97 208 95 216 88 c 0
 228 78 236 64 236 48 c 0
 236 32 228 16 213 7 c 0
 205 2 193 0 172 0 c 2
 43 0 l 2
 1 0 -20 16 -20 48 c 0
 -20 65 -12 81 2 90 c 0
 12 97 20 97 45 97 c 1
 195 468 l 1
 133 468 l 2
 108 468 99 470 89 477 c 0
 77 487 70 501 70 516 c 0
 70 533 78 549 92 558 c 0
 101 565 107 565 133 565 c 2
 343 565 l 1
 536 97 l 1
 563 97 572 95 581 87 c 1
 594 78 601 64 601 48 c 0
 601 32 593 16 578 7 c 0
 570 2 558 0 538 0 c 2
 403 0 l 2
 380 0 368 2 360 9 c 0
 347 19 339 33 339 48 c 0
 339 65 348 81 363 90 c 1
 371 97 378 97 403 97 c 2
 425 97 l 1
 403 153 l 1
363 250 m 1
 288 436 l 1
 211 250 l 1
 363 250 l 1
172 745 m 2
 409 745 l 2
 431 745 443 742 450 735 c 0
 456 728 460 714 460 706 c 0
 460 682 441 667 409 667 c 2
 172 667 l 2
 148 667 140 670 132 679 c 0
 126 687 121 698 121 706 c 0
 121 730 140 745 172 745 c 2
EndSplineSet
Ligature: 0 0 'liga' A uni0304
EndChar
StartChar: Tcommaaccent
Encoding: 309 354 203
Width: 578
Flags: W
HStem: 0 97<178 241 339 409> 468 97<40 241 40 443>
VStem: 40 98<378 467> 241 98<96 468> 443 98<378 467>
DStem: 268 -82 329 -122 189 -205 248 -244
Fore
339 468 m 1
 339 97 l 1
 402 97 l 2
 428 97 436 95 446 88 c 0
 458 78 466 64 466 48 c 0
 466 32 457 16 443 7 c 0
 436 2 420 0 402 0 c 2
 178 0 l 2
 156 0 143 2 136 9 c 1
 122 19 115 34 115 48 c 0
 115 65 123 81 138 90 c 1
 146 97 153 97 178 97 c 2
 241 97 l 1
 241 468 l 1
 138 468 l 1
 138 378 l 2
 138 352 136 345 129 334 c 1
 119 322 105 314 89 314 c 0
 73 314 56 322 47 337 c 0
 43 346 40 356 40 378 c 2
 40 565 l 1
 541 565 l 1
 541 378 l 2
 541 350 539 345 532 334 c 1
 522 322 508 314 492 314 c 0
 477 314 460 324 450 337 c 1
 446 346 443 356 443 378 c 2
 443 468 l 1
 339 468 l 1
329 -122 m 1
 248 -244 l 1
 236 -264 226 -270 213 -270 c 0
 194 -270 177 -254 177 -236 c 0
 177 -226 181 -216 189 -205 c 1
 268 -82 l 1
 281 -64 290 -57 306 -57 c 0
 325 -57 340 -74 340 -93 c 0
 340 -100 335 -110 329 -122 c 1
EndSplineSet
Ligature: 0 0 'liga' T uni0327
EndChar
StartChar: Ydieresis
Encoding: 310 376 204
Width: 578
Flags: W
HStem: 0 97<178 242 339 421> 468 97<70.974 83 499 500> 657 117<180.101 199 391 402>
VStem: 20 216<516 518> 132 116<712 721> 242 97<96 237> 332 118<712 721>
DStem: 82 468 198 469 242 237 291 337 381 469 499 468 291 337 339 237
Fore
339 237 m 1xf4
 339 97 l 1
 402 97 l 2
 429 97 437 95 446 88 c 0
 460 78 467 64 467 48 c 0
 467 32 458 16 443 7 c 1
 437 2 422 0 402 0 c 2
 178 0 l 2
 156 0 143 2 136 9 c 1
 122 19 115 33 115 48 c 0
 115 65 123 81 138 90 c 1
 146 97 153 97 178 97 c 2
 242 97 l 1
 242 237 l 1
 82 468 l 1
 43 468 20 485 20 516 c 0
 20 542 37 560 65 563 c 0
 77 565 78 565 86 565 c 2
 171 565 l 2
 198 565 208 563 216 556 c 0
 228 546 236 532 236 516 c 0
 236 494 224 480 198 469 c 1
 291 337 l 1
 381 469 l 1
 356 479 343 494 343 516 c 0
 343 533 352 549 365 558 c 0
 375 565 384 565 408 565 c 2
 497 565 l 2
 523 565 532 563 541 556 c 0
 554 546 561 532 561 516 c 0
 561 487 534 464 500 468 c 2
 499 468 l 1
 339 237 l 1xf4
191 774 m 0
 224 774 248 747 248 714 c 0
 248 683 222 657 191 657 c 0
 158 657 132 683 132 715 c 0xe8
 132 747 158 774 191 774 c 0
391 774 m 0
 425 774 450 747 450 714 c 0
 450 683 423 657 391 657 c 0
 360 657 332 683 332 715 c 0xe2
 332 747 360 774 391 774 c 0
EndSplineSet
MinimumDistance: x15,20 
Ligature: 0 0 'liga' Y uni0308
EndChar
StartChar: Emacron
Encoding: 311 274 205
Width: 578
Flags: W
HStem: 0 97<77 90 188 533> 0 211<475 533> 164 239<315 321> 356 209<77 465> 468 97<77 90 77 415> 667 78<158.449 422>
VStem: 90 98<97 236 97 468> 270 95<228 236 332 358> 415 97<419 468>
Fore
188 236 m 1x2f80
 188 97 l 1
 436 97 l 1xaf80
 436 147 l 2
 436 174 437 182 445 192 c 1
 453 205 469 211 484 211 c 0x4780
 501 211 516 203 525 189 c 0
 532 180 533 171 533 147 c 2
 533 0 l 1
 77 0 l 2
 54 0 40 2 33 9 c 1
 20 19 12 33 12 48 c 0
 12 65 22 81 35 90 c 0
 45 97 53 97 77 97 c 2
 90 97 l 1
 90 468 l 1
 77 468 l 2x8f80
 51 468 40 470 33 477 c 1
 20 487 12 501 12 516 c 0
 12 533 22 549 35 558 c 0
 45 565 51 565 77 565 c 2x1780
 512 565 l 1x0f80
 512 419 l 2
 512 392 508 384 503 375 c 1
 492 363 479 356 463 356 c 0x1780
 446 356 431 363 420 378 c 1
 417 387 415 396 415 419 c 2
 415 468 l 1
 188 468 l 1
 188 332 l 1
 270 332 l 1
 270 339 l 2
 270 364 273 373 279 381 c 0
 290 395 303 403 318 403 c 0
 345 403 361 386 365 358 c 1
 365 339 l 1
 365 228 l 2
 365 203 364 194 357 185 c 0
 348 172 332 164 319 164 c 0
 302 164 286 172 277 188 c 0
 273 197 270 205 270 228 c 2
 270 236 l 1
 188 236 l 1x2f80
172 745 m 2
 409 745 l 2
 431 745 443 742 450 735 c 0
 456 728 460 714 460 706 c 0
 460 682 441 667 409 667 c 2
 172 667 l 2
 148 667 140 670 132 679 c 0
 126 687 121 698 121 706 c 0
 121 730 140 745 172 745 c 2
EndSplineSet
Ligature: 0 0 'liga' E uni0304
EndChar
StartChar: Imacron
Encoding: 312 298 206
Width: 578
Flags: W
HStem: 0 97<144 242 339 452> 468 97<144 242 144 460> 667 78<172 418>
VStem: 242 97<96 468>
Fore
339 468 m 1
 339 97 l 1
 437 97 l 2
 463 97 470 95 480 88 c 0
 494 78 501 64 501 48 c 0
 501 16 480 0 437 0 c 2
 144 0 l 2
 121 0 109 2 101 9 c 0
 88 19 81 34 81 48 c 0
 81 65 89 81 104 90 c 1
 113 97 119 97 144 97 c 2
 242 97 l 1
 242 468 l 1
 144 468 l 2
 120 468 109 470 101 477 c 0
 88 487 81 501 81 516 c 0
 81 533 89 549 104 558 c 1
 113 565 119 565 144 565 c 2
 437 565 l 2
 463 565 470 563 480 556 c 0
 494 546 501 532 501 516 c 0
 501 500 492 484 477 474 c 0
 470 470 460 468 437 468 c 2
 339 468 l 1
172 745 m 2
 409 745 l 2
 431 745 443 742 450 735 c 0
 456 728 460 714 460 706 c 0
 460 682 441 667 409 667 c 2
 172 667 l 2
 148 667 140 670 132 679 c 0
 126 687 121 698 121 706 c 0
 121 730 140 745 172 745 c 2
EndSplineSet
Ligature: 0 0 'liga' I uni0304
EndChar
StartChar: Iogonek
Encoding: 313 302 207
Width: 578
Flags: W
HStem: -202 74<382 393> 0 97<144 242 339 370> 468 97<144 242 144 460>
VStem: 242 97<96 468> 294 74<-115 -102>
Fore
339 468 m 1xf0
 339 97 l 1xf0
 437 97 l 2
 463 97 470 95 480 88 c 0
 494 78 501 64 501 48 c 0
 501 26 492 16 458 -5 c 0
 404 -37 368 -78 368 -108 c 0
 368 -121 378 -128 391 -128 c 0
 403 -128 414 -123 441 -110 c 0
 450 -105 456 -105 462 -105 c 0
 484 -105 500 -121 500 -141 c 0
 500 -159 489 -172 466 -183 c 0
 440 -195 411 -202 384 -202 c 0
 329 -202 294 -169 294 -115 c 0xe8
 294 -67 313 -37 370 0 c 1
 144 0 l 2
 121 0 109 2 101 9 c 0
 88 19 81 34 81 48 c 0
 81 65 89 81 104 90 c 1
 113 97 119 97 144 97 c 2
 242 97 l 1
 242 468 l 1
 144 468 l 2
 120 468 109 470 101 477 c 0
 88 487 81 501 81 516 c 0
 81 533 89 549 104 558 c 1
 113 565 119 565 144 565 c 2
 437 565 l 2
 463 565 470 563 480 556 c 0
 494 546 501 532 501 516 c 0
 501 500 492 484 477 474 c 0
 470 470 460 468 437 468 c 2
 339 468 l 1xf0
EndSplineSet
Ligature: 0 0 'liga' I uni0328
EndChar
StartChar: Kcommaaccent
Encoding: 314 310 208
Width: 578
Flags: W
HStem: 0 97<77 90 188 237 487 541> 468 97<77 90 77 237 491 511.079>
VStem: 90 98<96 202 97 468> 330 225<513 518>
DStem: 268 -82 329 -122 189 -205 248 -244 361 472 495 468 188 324 325 319
Fore
188 202 m 1
 188 97 l 1
 222 97 l 2
 248 97 257 95 265 88 c 0
 277 78 286 64 286 48 c 0
 286 32 277 16 263 7 c 0
 257 2 241 0 222 0 c 2
 77 0 l 2
 54 0 40 2 33 9 c 1
 20 19 12 34 12 48 c 0
 12 65 22 81 35 90 c 0
 45 97 53 97 77 97 c 2
 90 97 l 1
 90 468 l 1
 77 468 l 2
 51 468 40 470 33 477 c 1
 20 487 12 501 12 516 c 0
 12 533 22 549 35 558 c 0
 45 565 51 565 77 565 c 2
 222 565 l 2
 248 565 257 563 265 556 c 0
 277 546 286 532 286 516 c 0
 286 500 277 484 263 474 c 1
 255 470 244 468 222 468 c 2
 188 468 l 1
 188 324 l 1
 361 472 l 1
 340 480 330 492 330 515 c 0
 330 542 346 560 374 563 c 0
 386 565 387 565 394 565 c 2
 491 565 l 2
 518 565 525 563 536 556 c 0
 549 546 555 532 555 516 c 0
 555 484 535 468 495 468 c 1
 325 319 l 1
 384 290 443 208 488 97 c 1
 519 97 l 2
 546 97 554 95 563 88 c 0
 574 78 583 64 583 48 c 0
 583 32 574 16 560 7 c 0
 554 2 539 0 519 0 c 2
 412 0 l 1
 367 139 306 232 246 250 c 1
 188 202 l 1
329 -122 m 1
 248 -244 l 1
 236 -264 226 -270 213 -270 c 0
 194 -270 177 -254 177 -236 c 0
 177 -226 181 -216 189 -205 c 1
 268 -82 l 1
 281 -64 290 -57 306 -57 c 0
 325 -57 340 -74 340 -93 c 0
 340 -100 335 -110 329 -122 c 1
EndSplineSet
Ligature: 0 0 'liga' K uni0327
EndChar
StartChar: Lcommaaccent
Encoding: 315 315 209
Width: 578
Flags: W
HStem: 0 97<97 152 248 554> 0 250<495 554> 468 97<97 152 97 321>
VStem: 152 96<97 468> 456 98<97 195>
DStem: 268 -82 329 -122 189 -205 248 -244
Fore
248 468 m 1xb8
 248 97 l 1
 456 97 l 1xb8
 456 186 l 2
 456 211 458 221 466 231 c 1
 474 244 489 250 505 250 c 0x78
 521 250 536 242 546 228 c 0
 552 219 554 210 554 186 c 2
 554 0 l 1
 97 0 l 2
 74 0 60 2 51 9 c 0
 40 19 32 33 32 48 c 0
 32 65 40 81 55 90 c 1
 64 97 71 97 97 97 c 2
 152 97 l 1
 152 468 l 1
 97 468 l 2
 71 468 61 470 51 477 c 1
 40 487 32 501 32 516 c 0
 32 533 40 549 55 558 c 1
 64 565 71 565 97 565 c 2
 303 565 l 2
 329 565 337 563 347 556 c 0
 360 546 367 532 367 516 c 0
 367 500 358 484 345 474 c 1
 336 470 326 468 303 468 c 2
 248 468 l 1xb8
329 -122 m 1
 248 -244 l 1
 236 -264 226 -270 213 -270 c 0
 194 -270 177 -254 177 -236 c 0
 177 -226 181 -216 189 -205 c 1
 268 -82 l 1
 281 -64 290 -57 306 -57 c 0
 325 -57 340 -74 340 -93 c 0
 340 -100 335 -110 329 -122 c 1
EndSplineSet
Ligature: 0 0 'liga' L uni0327
EndChar
StartChar: Ncommaaccent
Encoding: 316 325 210
Width: 578
Flags: W
HStem: 0 97<55 77 169 217> 468 97<56 71 361.216 418 508 530.334>
VStem: 71 98<96 381> 418 97<185 468>
DStem: 169 381 169 565 418 0 418 185 268 -82 329 -122 189 -205 248 -244
Fore
169 381 m 1
 169 97 l 1
 202 97 l 2
 228 97 236 95 246 88 c 0
 259 78 265 64 265 48 c 0
 265 32 257 16 242 7 c 1
 236 2 221 0 202 0 c 2
 77 0 l 2
 53 0 40 2 32 9 c 0
 19 19 12 33 12 48 c 0
 12 81 33 97 71 97 c 1
 71 468 l 1
 56 468 l 2
 32 468 22 470 12 477 c 0
 0 487 -8 501 -8 516 c 0
 -8 533 1 549 16 558 c 1
 24 565 31 565 56 565 c 2
 169 565 l 1
 418 185 l 1
 418 468 l 1
 384 468 l 2
 360 468 349 470 340 477 c 0
 329 487 319 501 319 516 c 0
 319 533 329 549 343 558 c 0
 352 565 358 565 384 565 c 2
 508 565 l 2
 536 565 543 563 554 556 c 1
 566 546 574 532 574 516 c 0
 574 485 554 468 515 468 c 1
 515 0 l 1
 418 0 l 1
 169 381 l 1
329 -122 m 1
 248 -244 l 1
 236 -264 226 -270 213 -270 c 0
 194 -270 177 -254 177 -236 c 0
 177 -226 181 -216 189 -205 c 1
 268 -82 l 1
 281 -64 290 -57 306 -57 c 0
 325 -57 340 -74 340 -93 c 0
 340 -100 335 -110 329 -122 c 1
EndSplineSet
Ligature: 0 0 'liga' N uni0327
EndChar
StartChar: Omacron
Encoding: 317 332 211
Width: 578
Flags: W
HStem: -15 99<291 309> 482 96<291 309> 667 78<172 421>
VStem: 20 97<283 290> 464 97<272 290>
Fore
291 578 m 0
 356 578 418 552 470 503 c 0
 532 446 561 371 561 277 c 0
 561 119 437 -15 291 -15 c 0
 141 -15 20 119 20 283 c 0
 20 446 141 578 291 578 c 0
291 482 m 0
 195 482 117 391 117 283 c 0
 117 172 195 84 291 84 c 0
 384 84 464 172 464 280 c 0
 464 391 387 482 291 482 c 0
172 745 m 2
 409 745 l 2
 431 745 443 742 450 735 c 0
 456 728 460 714 460 706 c 0
 460 682 441 667 409 667 c 2
 172 667 l 2
 148 667 140 670 132 679 c 0
 126 687 121 698 121 706 c 0
 121 730 140 745 172 745 c 2
EndSplineSet
Ligature: 0 0 'liga' O uni0304
EndChar
StartChar: Rcommaaccent
Encoding: 318 342 212
Width: 578
Flags: W
HStem: 0 97<77 90 188 237 522 557> 468 97<77 90 77 308>
VStem: 90 98<96 215 97 468> 403 102<385 403>
DStem: 268 -82 329 -122 189 -205 248 -244
Fore
188 215 m 1
 188 97 l 1
 222 97 l 2
 248 97 257 95 267 88 c 1
 277 78 286 64 286 48 c 0
 286 32 277 16 263 7 c 0
 257 2 241 0 222 0 c 2
 77 0 l 2
 54 0 40 2 33 9 c 1
 20 19 12 34 12 48 c 0
 12 65 22 81 35 90 c 0
 45 97 53 97 77 97 c 2
 90 97 l 1
 90 468 l 1
 77 468 l 2
 51 468 40 470 33 477 c 1
 20 487 12 501 12 516 c 0
 12 533 22 549 35 558 c 0
 45 565 51 565 77 565 c 2
 293 565 l 2
 418 565 505 494 505 392 c 0
 505 332 472 285 401 246 c 1
 446 208 482 162 523 97 c 1
 536 97 l 2
 560 97 570 95 581 88 c 0
 591 81 600 64 600 48 c 0
 600 32 591 16 577 7 c 0
 570 2 555 0 536 0 c 2
 460 0 l 1
 411 94 322 202 281 215 c 1
 188 215 l 1
188 312 m 1
 260 312 l 2
 343 312 403 347 403 395 c 0
 403 437 358 468 296 468 c 2
 188 468 l 1
 188 312 l 1
329 -122 m 1
 248 -244 l 1
 236 -264 226 -270 213 -270 c 0
 194 -270 177 -254 177 -236 c 0
 177 -226 181 -216 189 -205 c 1
 268 -82 l 1
 281 -64 290 -57 306 -57 c 0
 325 -57 340 -74 340 -93 c 0
 340 -100 335 -110 329 -122 c 1
EndSplineSet
Ligature: 0 0 'liga' R uni0327
EndChar
StartChar: Gcommaaccent
Encoding: 319 290 213
Width: 578
Flags: W
HStem: -15 99<293 343> 174 97<339 436> 482 96<287 331>
VStem: 32 97<222 323>
DStem: 268 -82 329 -122 189 -205 248 -244
Fore
533 174 m 1
 533 47 l 1
 446 1 396 -15 321 -15 c 0
 226 -15 143 15 97 64 c 1
 56 105 32 170 32 239 c 2
 32 307 l 2
 32 381 62 453 113 503 c 0
 164 554 228 578 307 578 c 0
 360 578 407 567 448 549 c 1
 460 570 469 578 487 578 c 0
 503 578 519 570 525 555 c 1
 532 546 533 538 533 515 c 2
 533 439 l 2
 533 412 532 404 524 395 c 1
 515 381 500 375 484 375 c 0
 472 375 458 381 450 389 c 1
 445 396 445 396 437 427 c 0
 427 460 379 482 308 482 c 0
 254 482 210 466 180 436 c 0
 148 404 129 356 129 307 c 2
 129 244 l 2
 129 189 143 152 172 126 c 0
 205 98 254 84 315 84 c 0
 361 84 398 90 436 107 c 1
 436 174 l 1
 339 174 l 2
 315 174 304 177 295 185 c 1
 283 193 275 208 275 224 c 0
 275 240 283 257 298 264 c 1
 307 270 315 271 339 271 c 2
 508 271 l 2
 535 271 543 270 554 263 c 0
 567 253 574 239 574 224 c 0
 574 198 560 182 533 174 c 1
329 -122 m 1
 248 -244 l 1
 236 -264 226 -270 213 -270 c 0
 194 -270 177 -254 177 -236 c 0
 177 -226 181 -216 189 -205 c 1
 268 -82 l 1
 281 -64 290 -57 306 -57 c 0
 325 -57 340 -74 340 -93 c 0
 340 -100 335 -110 329 -122 c 1
EndSplineSet
Ligature: 0 0 'liga' G uni0327
EndChar
StartChar: Umacron
Encoding: 320 362 214
Width: 578
Flags: W
HStem: -15 99<291 298> 468 97<74 218 381 415 508 527.388> 667 78<172 417>
VStem: 70 96<189 468> 415 97<189 468>
Fore
512 468 m 1
 512 198 l 2
 512 129 487 76 431 34 c 0
 389 2 345 -15 291 -15 c 0
 239 -15 192 2 150 34 c 0
 97 76 70 129 70 198 c 2
 70 468 l 1
 31 469 9 485 9 516 c 0
 9 533 19 549 33 558 c 1
 40 565 50 565 74 565 c 2
 200 565 l 2
 226 565 234 565 244 556 c 0
 257 546 264 532 264 516 c 0
 264 500 255 484 240 474 c 0
 232 470 222 468 200 468 c 2
 166 468 l 1
 166 191 l 2
 166 131 222 84 291 84 c 0
 360 84 415 131 415 191 c 2
 415 468 l 1
 381 468 l 2
 356 468 347 470 339 477 c 0
 326 487 318 501 318 516 c 0
 318 533 326 549 341 558 c 1
 349 565 356 565 381 565 c 2
 508 565 l 2
 534 565 542 563 552 556 c 0
 565 546 572 532 572 516 c 0
 572 485 551 468 512 468 c 1
172 745 m 2
 409 745 l 2
 431 745 443 742 450 735 c 0
 456 728 460 714 460 706 c 0
 460 682 441 667 409 667 c 2
 172 667 l 2
 148 667 140 670 132 679 c 0
 126 687 121 698 121 706 c 0
 121 730 140 745 172 745 c 2
EndSplineSet
Ligature: 0 0 'liga' U uni0304
EndChar
StartChar: Uogonek
Encoding: 321 370 215
Width: 578
Flags: W
HStem: -202 74<358 369> -15 97<291 298> 468 97<74 218 381 415 508 527.388>
VStem: 70 96<181 468> 268 77<-117 -103> 415 97<181 468>
Fore
512 468 m 1
 512 198 l 2
 512 128 492 86 427 24 c 1
 371 -26 345 -71 345 -109 c 0
 345 -121 352 -128 367 -128 c 0
 379 -128 392 -123 417 -110 c 0
 425 -105 430 -105 437 -105 c 0
 458 -105 474 -121 474 -141 c 0
 474 -153 468 -166 458 -172 c 1
 436 -189 394 -202 360 -202 c 0
 303 -202 268 -169 268 -115 c 0
 268 -74 282 -50 329 -11 c 1
 312 -15 298 -15 291 -15 c 0
 252 -15 205 -2 172 17 c 1
 105 59 70 121 70 198 c 2
 70 468 l 1
 31 469 9 485 9 516 c 0
 9 533 19 549 33 558 c 1
 40 565 50 565 74 565 c 2
 200 565 l 2
 226 565 234 565 244 556 c 0
 257 546 264 532 264 516 c 0
 264 500 255 484 240 474 c 0
 232 470 222 468 200 468 c 2
 166 468 l 1
 166 191 l 2
 166 131 222 82 291 82 c 0
 360 82 415 131 415 191 c 2
 415 468 l 1
 381 468 l 2
 356 468 347 470 339 477 c 0
 326 487 318 501 318 516 c 0
 318 533 326 549 341 558 c 1
 349 565 356 565 381 565 c 2
 508 565 l 2
 534 565 542 563 552 556 c 0
 565 546 572 532 572 516 c 0
 572 485 551 468 512 468 c 1
EndSplineSet
Ligature: 0 0 'liga' U uni0328
EndChar
StartChar: adieresis
Encoding: 322 228 216
Width: 578
Flags: W
HStem: -16 97<199.966 239> 191 88<263 297> 339 97<263 297> 518 116<178 185 381 383>
VStem: 40 103<113 121> 121 116<563.563 577> 322 117<563.733 577> 378 96<130 295>
Fore
376 0 m 1xf9
 376 22 l 1
 329 -2 273 -16 215 -16 c 0
 119 -16 40 43 40 115 c 0
 40 146 55 178 78 205 c 0
 122 254 189 279 275 279 c 0
 306 279 336 276 376 270 c 1
 376 291 l 2
 376 325 348 339 286 339 c 0
 254 339 218 334 172 322 c 0
 156 319 143 316 136 316 c 0
 107 316 87 339 87 365 c 0
 87 387 97 400 116 407 c 0
 162 423 234 436 283 436 c 0
 402 436 474 381 474 293 c 2
 474 97 l 1
 489 97 l 2
 515 97 524 95 534 88 c 0
 546 78 554 64 554 48 c 0
 554 32 544 16 530 7 c 0
 523 2 508 0 489 0 c 2
 376 0 l 1xf9
378 131 m 1
 378 178 l 1
 339 186 302 191 270 191 c 0
 203 191 143 156 143 119 c 0
 143 98 175 81 218 81 c 0
 270 81 324 98 378 131 c 1
178 634 m 0
 211 634 237 608 237 574 c 0
 237 543 211 518 178 518 c 0
 147 518 121 543 121 574 c 0xf4
 121 608 147 634 178 634 c 0
381 634 m 0
 414 634 439 608 439 574 c 0
 439 543 412 518 381 518 c 0
 349 518 322 543 322 574 c 0xf2
 322 608 349 634 381 634 c 0
EndSplineSet
KernsSLIF: 121 -40 0 0 119 -15 0 0 118 -25 0 0
Ligature: 0 0 'liga' a uni0308
EndChar
StartChar: aacute
Encoding: 323 225 217
Width: 578
Flags: W
HStem: -16 97<208 234> 191 88<263 297> 339 97<263 297>
VStem: 40 103<113 121> 378 96<130 295>
DStem: 361 659 406 604 232 551 277 496
Fore
376 0 m 1
 376 22 l 1
 329 -2 273 -16 215 -16 c 0
 119 -16 40 43 40 115 c 0
 40 146 55 178 78 205 c 0
 122 254 189 279 275 279 c 0
 306 279 336 276 376 270 c 1
 376 291 l 2
 376 325 348 339 286 339 c 0
 254 339 218 334 172 322 c 0
 156 319 143 316 136 316 c 0
 107 316 87 339 87 365 c 0
 87 387 97 400 116 407 c 0
 162 423 234 436 283 436 c 0
 402 436 474 381 474 293 c 2
 474 97 l 1
 489 97 l 2
 515 97 524 95 534 88 c 0
 546 78 554 64 554 48 c 0
 554 32 544 16 530 7 c 0
 523 2 508 0 489 0 c 2
 376 0 l 1
378 131 m 1
 378 178 l 1
 339 186 302 191 270 191 c 0
 203 191 143 156 143 119 c 0
 143 98 175 81 218 81 c 0
 270 81 324 98 378 131 c 1
406 604 m 2
 277 496 l 2
 263 484 257 480 246 480 c 0
 226 480 210 497 210 515 c 0
 210 528 218 539 232 551 c 2
 361 659 l 1
 378 671 381 675 392 675 c 0
 412 675 428 659 428 639 c 0
 428 627 422 617 406 604 c 2
EndSplineSet
KernsSLIF: 121 -40 0 0 119 -15 0 0 118 -25 0 0
Ligature: 0 0 'liga' a acutecomb
EndChar
StartChar: agrave
Encoding: 324 224 218
Width: 578
Flags: W
HStem: -16 97<200 233> 191 88<263 297> 339 97<263 297>
VStem: 40 103<113 121> 378 96<130 295>
DStem: 155 604 200 659 283 496 329 551
Fore
376 0 m 1
 376 22 l 1
 329 -2 273 -16 215 -16 c 0
 119 -16 40 43 40 115 c 0
 40 146 55 178 78 205 c 0
 122 254 189 279 275 279 c 0
 306 279 336 276 376 270 c 1
 376 291 l 2
 376 325 348 339 286 339 c 0
 254 339 218 334 172 322 c 0
 156 319 143 316 136 316 c 0
 107 316 87 339 87 365 c 0
 87 387 97 400 116 407 c 0
 162 423 234 436 283 436 c 0
 402 436 474 381 474 293 c 2
 474 97 l 1
 489 97 l 2
 515 97 524 95 534 88 c 0
 546 78 554 64 554 48 c 0
 554 32 544 16 530 7 c 0
 523 2 508 0 489 0 c 2
 376 0 l 1
378 131 m 1
 378 178 l 1
 339 186 302 191 270 191 c 0
 203 191 143 156 143 119 c 0
 143 98 175 81 218 81 c 0
 270 81 324 98 378 131 c 1
200 659 m 2
 329 551 l 1
 345 539 350 528 350 515 c 0
 350 497 334 480 315 480 c 0
 306 480 298 484 283 496 c 2
 155 604 l 2
 139 617 133 627 133 639 c 0
 133 659 148 675 169 675 c 0
 178 675 185 671 200 659 c 2
EndSplineSet
KernsSLIF: 121 -40 0 0 119 -15 0 0 118 -25 0 0
Ligature: 0 0 'liga' a gravecomb
EndChar
